G04 #@! TF.GenerationSoftware,KiCad,Pcbnew,(5.0.2)-1*
G04 #@! TF.CreationDate,2019-04-03T00:40:33-04:00*
G04 #@! TF.ProjectId,RASAC,52415341-432e-46b6-9963-61645f706362,rev?*
G04 #@! TF.SameCoordinates,Original*
G04 #@! TF.FileFunction,Copper,L3,Inr*
G04 #@! TF.FilePolarity,Positive*
%FSLAX46Y46*%
G04 Gerber Fmt 4.6, Leading zero omitted, Abs format (unit mm)*
G04 Created by KiCad (PCBNEW (5.0.2)-1) date 4/3/2019 12:40:33 AM*
%MOMM*%
%LPD*%
G01*
G04 APERTURE LIST*
G04 #@! TA.AperFunction,ViaPad*
%ADD10C,4.000000*%
G04 #@! TD*
G04 #@! TA.AperFunction,ViaPad*
%ADD11C,1.600000*%
G04 #@! TD*
G04 #@! TA.AperFunction,ViaPad*
%ADD12R,1.600000X1.600000*%
G04 #@! TD*
G04 #@! TA.AperFunction,ViaPad*
%ADD13O,0.800000X1.400000*%
G04 #@! TD*
G04 #@! TA.AperFunction,ViaPad*
%ADD14C,0.300000*%
G04 #@! TD*
G04 #@! TA.AperFunction,ViaPad*
%ADD15C,3.000000*%
G04 #@! TD*
G04 #@! TA.AperFunction,ViaPad*
%ADD16R,3.000000X3.000000*%
G04 #@! TD*
G04 #@! TA.AperFunction,ViaPad*
%ADD17O,1.700000X1.700000*%
G04 #@! TD*
G04 #@! TA.AperFunction,ViaPad*
%ADD18R,1.700000X1.700000*%
G04 #@! TD*
G04 #@! TA.AperFunction,ViaPad*
%ADD19C,2.000000*%
G04 #@! TD*
G04 #@! TA.AperFunction,ViaPad*
%ADD20C,0.450088*%
G04 #@! TD*
G04 #@! TA.AperFunction,ViaPad*
%ADD21C,1.270000*%
G04 #@! TD*
G04 #@! TA.AperFunction,ViaPad*
%ADD22C,0.508000*%
G04 #@! TD*
G04 #@! TA.AperFunction,ViaPad*
%ADD23C,0.457200*%
G04 #@! TD*
G04 #@! TA.AperFunction,ViaPad*
%ADD24C,1.016000*%
G04 #@! TD*
G04 #@! TA.AperFunction,Conductor*
%ADD25C,0.304800*%
G04 #@! TD*
G04 #@! TA.AperFunction,Conductor*
%ADD26C,0.254000*%
G04 #@! TD*
G04 #@! TA.AperFunction,Conductor*
%ADD27C,0.152400*%
G04 #@! TD*
G04 #@! TA.AperFunction,Conductor*
%ADD28C,0.101600*%
G04 #@! TD*
G04 #@! TA.AperFunction,Conductor*
%ADD29C,0.203200*%
G04 #@! TD*
G04 APERTURE END LIST*
D10*
G04 #@! TO.N,GND*
G04 #@! TO.C,J6*
X93448920Y-106444900D03*
X93448920Y-81444900D03*
D11*
G04 #@! TO.N,Net-(J6-Pad15)*
X91538920Y-89099900D03*
G04 #@! TO.N,Net-(J6-Pad14)*
X91538920Y-91389900D03*
G04 #@! TO.N,Net-(J6-Pad13)*
X91538920Y-93679900D03*
G04 #@! TO.N,Net-(J6-Pad12)*
X91538920Y-95969900D03*
G04 #@! TO.N,Net-(J6-Pad11)*
X91538920Y-98259900D03*
G04 #@! TO.N,GND*
X93518920Y-90244900D03*
G04 #@! TO.N,Net-(J6-Pad9)*
X93518920Y-92534900D03*
G04 #@! TO.N,GND*
X93518920Y-94824900D03*
X93518920Y-97114900D03*
X93518920Y-99404900D03*
X95498920Y-89099900D03*
G04 #@! TO.N,Net-(J6-Pad4)*
X95498920Y-91389900D03*
G04 #@! TO.N,Net-(J6-Pad3)*
X95498920Y-93679900D03*
G04 #@! TO.N,Net-(J6-Pad2)*
X95498920Y-95969900D03*
D12*
G04 #@! TO.N,Net-(J6-Pad1)*
X95498920Y-98259900D03*
G04 #@! TD*
D13*
G04 #@! TO.N,GND*
G04 #@! TO.C,J4*
X152564380Y-77210640D03*
X143584380Y-77210640D03*
X143944380Y-83160640D03*
X152204380Y-83160640D03*
G04 #@! TD*
D14*
G04 #@! TO.N,GND*
G04 #@! TO.C,J5*
X109052480Y-127429140D03*
X110052480Y-127429140D03*
X111052480Y-127429140D03*
X112052480Y-127429140D03*
X112052480Y-126429140D03*
X111052480Y-126429140D03*
X110052480Y-126429140D03*
X109052480Y-126429140D03*
X109052480Y-125429140D03*
X110052480Y-125429140D03*
X111052480Y-125429140D03*
X112052480Y-125429140D03*
X112052480Y-124429140D03*
X111052480Y-124429140D03*
X110052480Y-124429140D03*
X109052480Y-124429140D03*
X109052480Y-123429140D03*
X110052480Y-123429140D03*
X111052480Y-123429140D03*
X112052480Y-123429140D03*
X112052480Y-122429140D03*
X111052480Y-122429140D03*
X110052480Y-122429140D03*
X109052480Y-122429140D03*
X109052480Y-121429140D03*
X110052480Y-121429140D03*
X111052480Y-121429140D03*
X112052480Y-121429140D03*
X112052480Y-120429140D03*
X111052480Y-120429140D03*
X110052480Y-120429140D03*
X109052480Y-120429140D03*
X113052480Y-127429140D03*
X114052480Y-127429140D03*
X113052480Y-126429140D03*
X114052480Y-126429140D03*
X113052480Y-125429140D03*
X114052480Y-125429140D03*
X114052480Y-124429140D03*
X113052480Y-124429140D03*
X113052480Y-123429140D03*
X114052480Y-123429140D03*
X114052480Y-122429140D03*
X113052480Y-122429140D03*
X113052480Y-121429140D03*
X114052480Y-121429140D03*
X113052480Y-120429140D03*
X114052480Y-120429140D03*
X115052480Y-120429140D03*
X115052480Y-121429140D03*
X115052480Y-122429140D03*
X115052480Y-123429140D03*
X115052480Y-124429140D03*
X115052480Y-125429140D03*
X115052480Y-126429140D03*
X115052480Y-127429140D03*
X116052480Y-127429140D03*
X116052480Y-126429140D03*
X116052480Y-125429140D03*
X116052480Y-124429140D03*
X116052480Y-123429140D03*
X116052480Y-122429140D03*
X116052480Y-121429140D03*
X116052480Y-120429140D03*
G04 #@! TD*
D15*
G04 #@! TO.N,GND*
G04 #@! TO.C,J2*
X208152100Y-83919280D03*
G04 #@! TO.N,Net-(J2-Pad5)*
X208152100Y-79719280D03*
G04 #@! TO.N,GND*
X208152100Y-75519280D03*
G04 #@! TO.N,Net-(D1-Pad2)*
X213652100Y-83919280D03*
G04 #@! TO.N,Net-(J2-Pad2)*
X213652100Y-79719280D03*
D16*
G04 #@! TO.N,Net-(D1-Pad2)*
X213652100Y-75519280D03*
G04 #@! TD*
D17*
G04 #@! TO.N,GND*
G04 #@! TO.C,J3*
X128955800Y-106873040D03*
G04 #@! TO.N,VCC3V3*
X131495800Y-106873040D03*
G04 #@! TO.N,JTAG_TDO*
X128955800Y-109413040D03*
G04 #@! TO.N,JTAG_TDI*
X131495800Y-109413040D03*
G04 #@! TO.N,JTAG_TMS*
X128955800Y-111953040D03*
D18*
G04 #@! TO.N,JTAG_TCK*
X131495800Y-111953040D03*
G04 #@! TD*
D19*
G04 #@! TO.N,GND*
G04 #@! TO.C,J7*
X84594700Y-130460880D03*
X84594700Y-114760880D03*
X89494700Y-129860880D03*
X89494700Y-115360880D03*
G04 #@! TD*
D17*
G04 #@! TO.N,JTAG_TDI*
G04 #@! TO.C,J8*
X162308540Y-96545400D03*
D18*
G04 #@! TO.N,Net-(J8-Pad1)*
X159768540Y-96545400D03*
G04 #@! TD*
D17*
G04 #@! TO.N,Net-(J9-Pad2)*
G04 #@! TO.C,J9*
X159781240Y-100342700D03*
D18*
G04 #@! TO.N,JTAG_TDO*
X162321240Y-100342700D03*
G04 #@! TD*
D17*
G04 #@! TO.N,VCC5V0*
G04 #@! TO.C,J12*
X139158980Y-89966800D03*
G04 #@! TO.N,Net-(J12-Pad2)*
X139158980Y-92506800D03*
D18*
G04 #@! TO.N,USB_VBUS_1*
X139158980Y-95046800D03*
G04 #@! TD*
G04 #@! TO.N,EMCCLK*
G04 #@! TO.C,J14*
X167048180Y-104792780D03*
D17*
G04 #@! TO.N,Net-(J14-Pad2)*
X167048180Y-102252780D03*
G04 #@! TD*
D20*
G04 #@! TO.N,PCIe_CLK_P*
X153858648Y-129536390D03*
X148163280Y-138187176D03*
X158996873Y-129205686D03*
G04 #@! TO.N,PCIe_CLK_N*
X153858648Y-130336490D03*
X148163280Y-138815064D03*
X158996873Y-129833574D03*
D21*
G04 #@! TO.N,PCIe_12V*
X201168000Y-100774500D03*
X219951300Y-98105280D03*
X194284600Y-93802200D03*
X218435740Y-94589720D03*
X186588400Y-93446600D03*
D22*
X219951300Y-132892800D03*
X219951300Y-132280660D03*
X219951300Y-131658360D03*
X219951300Y-131036060D03*
X219951300Y-130395980D03*
X219951300Y-129811780D03*
X219951300Y-129209800D03*
X219951300Y-128605280D03*
X219951300Y-128117600D03*
X219673600Y-126555500D03*
X219198620Y-126080520D03*
X217420500Y-123302400D03*
X217420500Y-123302400D03*
X217420500Y-123302400D03*
X219951300Y-120771600D03*
X217420500Y-123302400D03*
X217420500Y-123302400D03*
X219951300Y-123512580D03*
X219951300Y-122359420D03*
X219951300Y-124485400D03*
X217420500Y-124302400D03*
X217420500Y-123784360D03*
X217987040Y-124868940D03*
X217987040Y-124868940D03*
X217987040Y-124868940D03*
X219951300Y-119253000D03*
X219155960Y-121566940D03*
X219951300Y-118704360D03*
X219951300Y-116908580D03*
X219951300Y-116329460D03*
X219951300Y-114477800D03*
X219951300Y-113954560D03*
X219951300Y-113398300D03*
X219951300Y-112842040D03*
D20*
X138371580Y-139852400D03*
X137906760Y-139852400D03*
X137441940Y-139852400D03*
X136972040Y-139852400D03*
X136507220Y-139852400D03*
X136039860Y-139852400D03*
X135575040Y-139852400D03*
D21*
X128153160Y-144895160D03*
D20*
G04 #@! TO.N,VCC3V3*
X143442108Y-124718010D03*
X143056028Y-118809970D03*
X154273967Y-95232348D03*
X154279047Y-94627828D03*
X154286667Y-94023308D03*
X154279047Y-93451808D03*
X154286667Y-92656788D03*
X131622800Y-100210620D03*
X131655820Y-102689660D03*
X141290040Y-103840280D03*
X145760440Y-91338400D03*
X155864560Y-101823520D03*
X155851860Y-107289600D03*
X147820380Y-111531400D03*
X144254220Y-122339100D03*
X143461740Y-127932180D03*
X144246600Y-126326900D03*
X153052780Y-123934220D03*
X153047700Y-126329440D03*
X105516680Y-120680480D03*
X105153460Y-123080780D03*
X110754160Y-116738400D03*
X116558060Y-116852700D03*
X104178100Y-110025180D03*
X105112820Y-126164340D03*
X108788200Y-131066540D03*
X126875540Y-137782300D03*
X112572800Y-110690660D03*
X112565180Y-112016540D03*
X148254720Y-120731280D03*
X150294340Y-118181120D03*
X145855108Y-119938800D03*
X127635000Y-137782300D03*
X131622800Y-102077520D03*
X131622800Y-101396800D03*
X131622800Y-100774500D03*
X138142980Y-120302020D03*
X160825180Y-107535980D03*
X162986720Y-114137440D03*
X172709840Y-108104940D03*
X172161200Y-107556300D03*
X125453140Y-137302240D03*
X124940060Y-136789160D03*
X125933200Y-137782300D03*
X168793160Y-128036320D03*
X152112753Y-101955600D03*
X152112753Y-101955600D03*
X153024840Y-102143560D03*
X105905300Y-131267200D03*
X113807240Y-112016540D03*
X163377880Y-107602020D03*
X125615700Y-128615440D03*
X111843820Y-106324400D03*
X107582300Y-104457500D03*
D21*
G04 #@! TO.N,MGTAVCC*
X199885300Y-118071900D03*
X201180700Y-133261100D03*
D20*
X154656008Y-130333950D03*
X151458348Y-126336290D03*
X151463428Y-127941370D03*
X149863328Y-127941270D03*
X148243008Y-127920950D03*
X146653168Y-127931110D03*
X145852968Y-126335990D03*
X147463328Y-124725630D03*
X146647688Y-124725630D03*
X184912000Y-105257600D03*
X185437780Y-105257600D03*
X185841640Y-105257600D03*
X187107700Y-105309800D03*
X187107700Y-105309800D03*
X187777120Y-105257600D03*
X152252680Y-124736860D03*
X177459640Y-116065300D03*
X177459640Y-115590320D03*
X177459640Y-115062000D03*
X177459640Y-114515900D03*
X148258352Y-125526800D03*
X157802580Y-133398260D03*
X161071754Y-132042094D03*
X169367200Y-125816360D03*
X146469100Y-135018780D03*
X179069780Y-85910420D03*
X179029360Y-84421980D03*
X179003200Y-90606120D03*
X176578260Y-73245980D03*
X174980600Y-73245980D03*
D23*
G04 #@! TO.N,VCC1V8*
X184950100Y-119570500D03*
X185381900Y-120012460D03*
X185790840Y-119537480D03*
X186253120Y-119999760D03*
X186618880Y-119517160D03*
X187076080Y-119946420D03*
X187325000Y-119458740D03*
D20*
X144254908Y-131134050D03*
X147452768Y-129533850D03*
X145052468Y-127931110D03*
X156444368Y-121136610D03*
X153061088Y-122327870D03*
X154656208Y-123133050D03*
X150650628Y-121537930D03*
X145049928Y-123127970D03*
X147460288Y-123938230D03*
X149847488Y-123125430D03*
X140393420Y-129943860D03*
X146657060Y-131937760D03*
X149072600Y-126329440D03*
X154658060Y-126334520D03*
X153847800Y-120723660D03*
X143852900Y-133799580D03*
X134002780Y-131594860D03*
X149983907Y-96847788D03*
X141678660Y-98656140D03*
X135691880Y-109100620D03*
X150301960Y-110916720D03*
X107777280Y-114533680D03*
X151457660Y-119931180D03*
X116367560Y-105046780D03*
X117706140Y-105046780D03*
X118513860Y-105046780D03*
X119479060Y-105046780D03*
X117002560Y-105044240D03*
X118988840Y-105044240D03*
X157312360Y-93210380D03*
X159636460Y-93207840D03*
X158805880Y-93210380D03*
X158003240Y-93210380D03*
X159588200Y-92257880D03*
X157312360Y-92257880D03*
X158048960Y-92257880D03*
X158833820Y-92257880D03*
X128234440Y-105046780D03*
X126011940Y-93842840D03*
X127043261Y-85130640D03*
G04 #@! TO.N,MGTAVTT*
X153852880Y-132735320D03*
X160924240Y-130670440D03*
X179806600Y-124104400D03*
X151460200Y-131935220D03*
X152655508Y-134517368D03*
X157238700Y-132333450D03*
X100652580Y-136512300D03*
G04 #@! TO.N,Net-(C69-Pad1)*
X150131227Y-92966668D03*
G04 #@! TO.N,Net-(C70-Pad1)*
X146311507Y-96540320D03*
G04 #@! TO.N,VCC2V5*
X172735240Y-126611380D03*
X173649640Y-116255800D03*
G04 #@! TO.N,VCC5V0*
X104106980Y-117320060D03*
X102821740Y-117429280D03*
X102778560Y-129339340D03*
X184073800Y-99720400D03*
X185607960Y-99720400D03*
X184800240Y-99720400D03*
X186425840Y-99720400D03*
X101699060Y-114244120D03*
X101585550Y-113901136D03*
X101617655Y-107792520D03*
X101627813Y-105859580D03*
G04 #@! TO.N,Net-(D3-Pad2)*
X143449728Y-125528270D03*
X152166320Y-116868956D03*
G04 #@! TO.N,Net-(D4-Pad2)*
X152255908Y-123935690D03*
X152265380Y-118101364D03*
G04 #@! TO.N,MSEN*
X112359440Y-115702080D03*
G04 #@! TO.N,PCIe_PRSNT_B*
X135712200Y-142707360D03*
X158696660Y-142707360D03*
G04 #@! TO.N,PCIe_3.3V*
X134147560Y-137612120D03*
X134139940Y-145689320D03*
X134139940Y-144559020D03*
X134139940Y-143543020D03*
G04 #@! TO.N,PCIe_WAKE_B*
X149855608Y-122332950D03*
X138160760Y-141874240D03*
G04 #@! TO.N,PCIe_PERST*
X137965180Y-141218920D03*
X149065668Y-121522690D03*
X148343620Y-136644380D03*
G04 #@! TO.N,PCIe_RX0_P*
X152255908Y-131134050D03*
G04 #@! TO.N,PCIe_RX0_N*
X152255908Y-131931610D03*
G04 #@! TO.N,PCIe_RX1_P*
X159008068Y-130461008D03*
G04 #@! TO.N,PCIe_RX1_N*
X159452052Y-130904992D03*
G04 #@! TO.N,PCIe_RX2_P*
X154653668Y-131128970D03*
X160011453Y-130991898D03*
G04 #@! TO.N,PCIe_RX2_N*
X154653668Y-131929070D03*
X160455437Y-131435882D03*
G04 #@! TO.N,PCIe_RX3_P*
X150660788Y-131131510D03*
X154977088Y-143815812D03*
G04 #@! TO.N,PCIe_RX3_N*
X155421072Y-143371828D03*
X150658248Y-131926530D03*
G04 #@! TO.N,JTAG_TDO*
X143449728Y-127128470D03*
G04 #@! TO.N,JTAG_TDI*
X143449728Y-126325830D03*
G04 #@! TO.N,JTAG_TMS*
X144254908Y-127131010D03*
X158239460Y-102692200D03*
X157867604Y-109552740D03*
X133712214Y-109533426D03*
G04 #@! TO.N,JTAG_TCK*
X152258448Y-127933650D03*
X156690060Y-97398840D03*
G04 #@! TO.N,USB_DM_1*
X148003260Y-96707960D03*
X148711558Y-84103042D03*
X147828000Y-84312760D03*
G04 #@! TO.N,USB_DP_1*
X148396960Y-97119440D03*
G04 #@! TO.N,HDMI_D1*
X119811800Y-120944640D03*
G04 #@! TO.N,HDMI_D3*
X119755920Y-122095260D03*
G04 #@! TO.N,HDMI_D5*
X119776240Y-123108720D03*
G04 #@! TO.N,HDMI_D7*
X119651780Y-125188980D03*
G04 #@! TO.N,HDMI_D9*
X119778780Y-126474220D03*
G04 #@! TO.N,HDMI_D11*
X119501920Y-127480060D03*
G04 #@! TO.N,HDMI_D13*
X116377720Y-131681220D03*
G04 #@! TO.N,HDMI_D15*
X115100100Y-131668520D03*
G04 #@! TO.N,HDMI_D17*
X113596420Y-131056380D03*
G04 #@! TO.N,HDMI_D19*
X112247680Y-131498340D03*
G04 #@! TO.N,HDMI_D21*
X111025940Y-131320540D03*
G04 #@! TO.N,HDMI_D23*
X109898180Y-131213860D03*
G04 #@! TO.N,HDMI_SCL*
X126644400Y-113474500D03*
X157182820Y-111899700D03*
G04 #@! TO.N,HDMI_SDA*
X154658748Y-124735790D03*
X128323340Y-114110516D03*
G04 #@! TO.N,HDMI_RST*
X137713720Y-123710700D03*
X128005840Y-123725940D03*
G04 #@! TO.N,HPD*
X112694720Y-116283740D03*
X100274120Y-115511580D03*
G04 #@! TO.N,HDMI_HSYNC*
X114901980Y-116372640D03*
G04 #@! TO.N,Net-(J6-Pad3)*
X163517580Y-116697760D03*
X133913880Y-114513360D03*
G04 #@! TO.N,Net-(J6-Pad2)*
X163609020Y-121307860D03*
X134594600Y-114520980D03*
G04 #@! TO.N,Net-(J6-Pad1)*
X164658040Y-120787160D03*
X135242300Y-114475260D03*
G04 #@! TO.N,Net-(J13-Pad3)*
X152255908Y-123133050D03*
X165821360Y-120378220D03*
G04 #@! TO.N,Net-(J13-Pad2)*
X144252368Y-124728170D03*
X173583600Y-119915940D03*
G04 #@! TO.N,Net-(J13-Pad1)*
X144254908Y-123933150D03*
X167055800Y-119527320D03*
G04 #@! TO.N,EMCCLK*
X148602700Y-116718080D03*
X160807594Y-113860774D03*
G04 #@! TO.N,Net-(R10-Pad2)*
X141650720Y-102814120D03*
G04 #@! TO.N,Net-(R11-Pad1)*
X131439920Y-99456240D03*
G04 #@! TO.N,Net-(R12-Pad1)*
X136761220Y-101544120D03*
G04 #@! TO.N,Net-(R13-Pad2)*
X137853420Y-102768400D03*
G04 #@! TO.N,Net-(R13-Pad1)*
X139090400Y-104942640D03*
G04 #@! TO.N,FCS_B*
X148257948Y-121527770D03*
X164632640Y-108058204D03*
G04 #@! TO.N,D01*
X148490940Y-114843560D03*
G04 #@! TO.N,D02*
X149863228Y-121525230D03*
X149506940Y-116651024D03*
X151185880Y-113449100D03*
G04 #@! TO.N,SYSCLK_N*
X147452768Y-121530310D03*
D22*
X169687240Y-110685580D03*
D20*
G04 #@! TO.N,SYSCLK_P*
X147452768Y-120735290D03*
D22*
X170134280Y-108686600D03*
D20*
G04 #@! TO.N,D03*
X149853068Y-120730210D03*
G04 #@! TO.N,D00*
X149055508Y-120730210D03*
G04 #@! TO.N,Net-(R25-Pad2)*
X145055008Y-125533350D03*
D22*
X137015220Y-133073140D03*
D20*
G04 #@! TO.N,RxD_LED*
X140779500Y-105740200D03*
G04 #@! TO.N,HDMI_R_D0*
X146657748Y-122330410D03*
X123093480Y-117995700D03*
G04 #@! TO.N,HDMI_R_D2*
X126631700Y-117843300D03*
X139628880Y-117525800D03*
G04 #@! TO.N,HDMI_R_D4*
X127510540Y-119471440D03*
X140070840Y-118290340D03*
G04 #@! TO.N,HDMI_R_D6*
X145855108Y-120735290D03*
X127767080Y-120073420D03*
G04 #@! TO.N,HDMI_R_D8*
X144257448Y-121532850D03*
X125374400Y-122389900D03*
G04 #@! TO.N,HDMI_R_D10*
X143449728Y-121525230D03*
X127091440Y-121223024D03*
G04 #@! TO.N,HDMI_R_D12*
X145051780Y-117800120D03*
X118051580Y-131655820D03*
G04 #@! TO.N,HDMI_R_D14*
X143581120Y-117924580D03*
X115872260Y-135135620D03*
G04 #@! TO.N,HDMI_R_D16*
X114145060Y-135082280D03*
X142412720Y-118905020D03*
G04 #@! TO.N,HDMI_R_D18*
X138785600Y-118534180D03*
X114729260Y-136401556D03*
G04 #@! TO.N,HDMI_R_D20*
X111066580Y-135082280D03*
X139880340Y-119021860D03*
X117177820Y-136027160D03*
G04 #@! TO.N,HDMI_R_D22*
X143454808Y-123130510D03*
X109585760Y-135061960D03*
G04 #@! TO.N,HDMI_R_CLK*
X123982480Y-122958860D03*
X138089640Y-122547380D03*
G04 #@! TO.N,HDMI_R_VSYNC*
X127904240Y-117772180D03*
X133985000Y-117787420D03*
X137680700Y-119316500D03*
G04 #@! TO.N,HDMI_R_D1*
X146657748Y-120730210D03*
X134518400Y-117307360D03*
G04 #@! TO.N,HDMI_R_D3*
X134475220Y-118831360D03*
X140723620Y-117769640D03*
G04 #@! TO.N,HDMI_R_D5*
X145862728Y-121527770D03*
X134246620Y-120327420D03*
G04 #@! TO.N,HDMI_R_D7*
X145055008Y-122332950D03*
X124305060Y-123588780D03*
G04 #@! TO.N,HDMI_R_D9*
X143452268Y-122330410D03*
X134610856Y-121571511D03*
G04 #@! TO.N,HDMI_R_D11*
X145062628Y-120725130D03*
X133868160Y-121488200D03*
X138148060Y-121513600D03*
G04 #@! TO.N,HDMI_R_D13*
X144622520Y-117386100D03*
X118287800Y-132898896D03*
G04 #@! TO.N,HDMI_R_D15*
X144063720Y-117525800D03*
X115067080Y-135100060D03*
G04 #@! TO.N,HDMI_R_D17*
X113428780Y-135094980D03*
X138272520Y-119715280D03*
G04 #@! TO.N,HDMI_R_D19*
X138501120Y-119098060D03*
X114000280Y-136547860D03*
G04 #@! TO.N,HDMI_R_D21*
X144252368Y-123127970D03*
X110411260Y-135082280D03*
G04 #@! TO.N,HDMI_R_D23*
X138887200Y-122565160D03*
X127541020Y-122483880D03*
X108902500Y-135041640D03*
G04 #@! TO.N,HDMI_R_HSYNC*
X133967220Y-116885720D03*
X137967720Y-118379240D03*
G04 #@! TO.N,HDMI_R_DE*
X143457348Y-123933150D03*
X130987800Y-116273580D03*
X125636020Y-116448840D03*
G04 #@! TO.N,Net-(R60-Pad1)*
X103416100Y-128595120D03*
G04 #@! TO.N,VGA_R3*
X154653668Y-127933650D03*
G04 #@! TO.N,VGA_G1*
X154651128Y-127128470D03*
G04 #@! TO.N,VGA_B1*
X158640780Y-117469920D03*
G04 #@! TO.N,VGA_R2*
X153858648Y-127938730D03*
G04 #@! TO.N,VGA_R4*
X153851028Y-127125930D03*
X160477200Y-124188220D03*
X163583620Y-124185680D03*
G04 #@! TO.N,VGA_G4*
X154651128Y-125530810D03*
G04 #@! TO.N,VGA_B4*
X153856108Y-125530810D03*
G04 #@! TO.N,VGA_VS*
X147457848Y-122332950D03*
X127134620Y-110718600D03*
G04 #@! TO.N,VGA_HS*
X127114300Y-112636300D03*
X147448704Y-117149880D03*
X142031720Y-112102900D03*
G04 #@! TO.N,TxD_LED*
X138780520Y-106090720D03*
G04 #@! TO.N,CCLK*
X153058548Y-127936190D03*
X159594804Y-126156046D03*
X167182800Y-114399060D03*
G04 #@! TO.N,VGA_R1*
X153863728Y-126341070D03*
X161046160Y-123736100D03*
X163509960Y-123629420D03*
G04 #@! TO.N,TTL_DSR1*
X135569960Y-124531120D03*
X136563100Y-125293120D03*
G04 #@! TO.N,TTL_RI1*
X148260488Y-122330410D03*
X145204180Y-112387889D03*
G04 #@! TO.N,GND*
X171521120Y-129082800D03*
X155935680Y-97909380D03*
X155961080Y-98465640D03*
X155973780Y-99009200D03*
X155973780Y-99568000D03*
D21*
X191643000Y-110629700D03*
X193090800Y-110629700D03*
X194564000Y-110629700D03*
X196011800Y-110629700D03*
X198958200Y-110629700D03*
X197510400Y-110629700D03*
X191643000Y-112001300D03*
X198958200Y-112001300D03*
X193090800Y-112001300D03*
X196011800Y-112001300D03*
X197510400Y-112001300D03*
X194564000Y-112001300D03*
X191643000Y-113334800D03*
X198958200Y-113334800D03*
X193090800Y-113334800D03*
X193090800Y-114706400D03*
X197510400Y-114706400D03*
X196011800Y-113334800D03*
X197510400Y-113334800D03*
X194564000Y-114706400D03*
X196011800Y-114706400D03*
X194564000Y-113334800D03*
X191643000Y-114706400D03*
X198958200Y-114706400D03*
X190080900Y-125310900D03*
X191439800Y-125298200D03*
X192798700Y-125298200D03*
X194144900Y-125298200D03*
X195478400Y-125285500D03*
X196900800Y-125399800D03*
X190080900Y-126657100D03*
X191439800Y-126657100D03*
X192786000Y-126657100D03*
X194144900Y-126657100D03*
X195491100Y-126657100D03*
X190080900Y-128003300D03*
X191439800Y-128003300D03*
X192786000Y-128003300D03*
X194144900Y-128003300D03*
X195491100Y-128003300D03*
X196761100Y-127317500D03*
X190080900Y-129362200D03*
X191439800Y-129362200D03*
X192786000Y-129362200D03*
X194144900Y-129362200D03*
X195491100Y-129362200D03*
X196748400Y-128727200D03*
X188899800Y-125958600D03*
D24*
X204774800Y-81876900D03*
X204774800Y-80518000D03*
X204774800Y-79197200D03*
X204787500Y-75171300D03*
X204787500Y-73850500D03*
X204787500Y-76530200D03*
X204774800Y-84480400D03*
X204774800Y-85801200D03*
X203784200Y-85102700D03*
X203796900Y-73152000D03*
X203796900Y-74472800D03*
X203796900Y-75831700D03*
X203796900Y-77152500D03*
X203784200Y-83781900D03*
X203784200Y-79819500D03*
X203784200Y-81178400D03*
X202780900Y-83172300D03*
X202780900Y-80492600D03*
X202793600Y-75145900D03*
X202793600Y-76504800D03*
X202793600Y-73825100D03*
X202780900Y-84455000D03*
X202793600Y-77825600D03*
X201764900Y-83781900D03*
X201777600Y-74472800D03*
X201764900Y-81178400D03*
X201777600Y-75831700D03*
X201764900Y-79819500D03*
X200812400Y-75133200D03*
X200812400Y-76492100D03*
X200812400Y-77812900D03*
X200799700Y-83159600D03*
X199809100Y-77203300D03*
X199796400Y-79870300D03*
X199796400Y-81191100D03*
X199809100Y-75844400D03*
X199796400Y-83870800D03*
X198793100Y-80581500D03*
X198793100Y-83261200D03*
X198805800Y-76555600D03*
X198805800Y-77914500D03*
X197751700Y-82562700D03*
X197751700Y-83921600D03*
X197764400Y-77216000D03*
X197764400Y-78574900D03*
D20*
X143459888Y-128723590D03*
X155458848Y-128730110D03*
X154651128Y-128737830D03*
X153056008Y-128733750D03*
X153856108Y-131934150D03*
X153058548Y-131926530D03*
X153043308Y-129510990D03*
X153043308Y-130331410D03*
X152257548Y-130331410D03*
X148257948Y-123131010D03*
X146657748Y-123938230D03*
X145847488Y-124725630D03*
X148255408Y-126333450D03*
X147455308Y-126333450D03*
X149865768Y-131944310D03*
X150658248Y-130330710D03*
X150660788Y-129528170D03*
X150650128Y-128738830D03*
X145852568Y-130336490D03*
X147467908Y-128721050D03*
X146643108Y-128721050D03*
X145050528Y-127128470D03*
X154658748Y-121530310D03*
X156345308Y-119043650D03*
X153853568Y-123935690D03*
X141707288Y-118985230D03*
X149847988Y-123925930D03*
X149055508Y-124733450D03*
X148263028Y-124725930D03*
X152260988Y-125527970D03*
X150650428Y-126328370D03*
X149852968Y-126335990D03*
X156479928Y-133333690D03*
X141823440Y-133565900D03*
X143456660Y-131132580D03*
D23*
X133151880Y-145653760D03*
X130152140Y-145635980D03*
X148587460Y-144846040D03*
X150670260Y-144802860D03*
X152580340Y-144861280D03*
X154622500Y-144912080D03*
X156641800Y-144879060D03*
X159712660Y-145282920D03*
X140594080Y-145011140D03*
X143642080Y-144967960D03*
X146146520Y-145059400D03*
D20*
X131864600Y-128409700D03*
X181889400Y-82791300D03*
X148107400Y-95839280D03*
X151975820Y-96735900D03*
X150713440Y-96634300D03*
X149484080Y-97195640D03*
X131724400Y-104208580D03*
X139684760Y-113281460D03*
X139103100Y-113281460D03*
X140281660Y-113263680D03*
X136776460Y-97162620D03*
X97340420Y-121546620D03*
X98516440Y-121511060D03*
X99738180Y-121432320D03*
X97360740Y-123052840D03*
X98516440Y-123022360D03*
X99738180Y-123029980D03*
X97403920Y-124548900D03*
X98610420Y-124856240D03*
X99740720Y-124747020D03*
X97411540Y-126192280D03*
X98696780Y-126311660D03*
X99715320Y-126286260D03*
X97200720Y-117703600D03*
X88572340Y-123954540D03*
X88549480Y-125534420D03*
X88506300Y-126852680D03*
X88425020Y-122491500D03*
X88358980Y-119844820D03*
X98645980Y-128460500D03*
X100157280Y-128498600D03*
X106791760Y-115404900D03*
X147858480Y-133758940D03*
X158163260Y-117005100D03*
X136547860Y-125872240D03*
X139501880Y-123123960D03*
X147060920Y-116651024D03*
X150652480Y-119931180D03*
X146646900Y-121533920D03*
X151185880Y-134912100D03*
X145846800Y-132735320D03*
X165397180Y-112717580D03*
X168008300Y-124833380D03*
D22*
X195658740Y-98787200D03*
X192808860Y-98787200D03*
X190436500Y-99549200D03*
X198501000Y-97034600D03*
X169689780Y-109707680D03*
D20*
X117241320Y-99763580D03*
X118498620Y-99763580D03*
X117904260Y-99763580D03*
X116551960Y-100042980D03*
X119293640Y-100024180D03*
X116561578Y-110093760D03*
X119246440Y-110131860D03*
X117937280Y-110317280D03*
X117302280Y-110317280D03*
X118574820Y-110317280D03*
X174525940Y-95694500D03*
X148508720Y-104437180D03*
X147718780Y-104480360D03*
X100047140Y-132090160D03*
X101125020Y-135224520D03*
X181889400Y-83540600D03*
X164251640Y-89016840D03*
X164848540Y-89016840D03*
X165426520Y-89016840D03*
X163687760Y-89016840D03*
X163119940Y-89016840D03*
X134393940Y-136108440D03*
X139631420Y-136525000D03*
X181889400Y-84193380D03*
X181889400Y-84838540D03*
X181889400Y-85534500D03*
X121285000Y-91658440D03*
X121533920Y-88285320D03*
X123787500Y-80538320D03*
X125115320Y-80538320D03*
X127355600Y-80538320D03*
X128551340Y-80538320D03*
X126184660Y-80538320D03*
X121678700Y-84234020D03*
X130898900Y-83969860D03*
X130670300Y-87762080D03*
X130540760Y-91762580D03*
X150655020Y-123110244D03*
X151465280Y-124724160D03*
X104198420Y-104594060D03*
X110495080Y-103941880D03*
X110477300Y-100332540D03*
X151038560Y-86436200D03*
X145143220Y-86395560D03*
X215097360Y-120665240D03*
X215869520Y-120690640D03*
X213989920Y-120995440D03*
X213032340Y-120985280D03*
X210114220Y-121315480D03*
X210759040Y-121328180D03*
X210723480Y-117668040D03*
X209974180Y-117607080D03*
X212519260Y-124973080D03*
X212331300Y-123738640D03*
X206659480Y-128249680D03*
X205854300Y-128270000D03*
X212463380Y-128137920D03*
X212498940Y-125854460D03*
X212257640Y-128793240D03*
X212481160Y-127276860D03*
X212529420Y-115963700D03*
X212529420Y-114975640D03*
X212432900Y-113863120D03*
X210312000Y-103687880D03*
X210563460Y-104315260D03*
X210312000Y-104904540D03*
X210563460Y-105343960D03*
X210312000Y-105679240D03*
X210312000Y-106205020D03*
X210563460Y-106728260D03*
X210312000Y-107149900D03*
X212305900Y-108303060D03*
X212369400Y-109143800D03*
X212285580Y-110129320D03*
X212285580Y-110987840D03*
X212389720Y-112016540D03*
X212493860Y-113004600D03*
X206702660Y-113822480D03*
X205737460Y-113822480D03*
X206639160Y-99372420D03*
X205724760Y-99430840D03*
X212341460Y-94792800D03*
X212519180Y-96271080D03*
X212519260Y-97660460D03*
X212519260Y-99016820D03*
X212310980Y-101706680D03*
X212458300Y-102415340D03*
X215473280Y-105783380D03*
X170591480Y-127909320D03*
X171223940Y-127825500D03*
X170802300Y-128617980D03*
X171566840Y-128592980D03*
X170644820Y-129405380D03*
X111074200Y-137789920D03*
X110274100Y-137789920D03*
X109504480Y-137789920D03*
X107309400Y-136525000D03*
X108574320Y-137789920D03*
X119804180Y-137586720D03*
X120502680Y-137078720D03*
X121097040Y-136423400D03*
X121795540Y-135770620D03*
X124104400Y-135696960D03*
G04 #@! TD*
D25*
G04 #@! TO.N,VCC3V3*
X156098240Y-107535980D02*
X156189680Y-107535980D01*
X155851860Y-107289600D02*
X156098240Y-107535980D01*
X156189680Y-107535980D02*
X160825180Y-107535980D01*
D26*
G04 #@! TO.N,Net-(D3-Pad2)*
X143449728Y-125528270D02*
X144217190Y-125528270D01*
D27*
X151941277Y-117093999D02*
X152166320Y-116868956D01*
X151063960Y-117971316D02*
X151941277Y-117093999D01*
X151063960Y-121513490D02*
X151063960Y-117971316D01*
X144217190Y-125528270D02*
X146991895Y-122753565D01*
X146991895Y-122753565D02*
X148891815Y-122753565D01*
X148891815Y-122753565D02*
X149689875Y-121955505D01*
X149689875Y-121955505D02*
X150804825Y-121955505D01*
X150804825Y-121955505D02*
X151155400Y-121604930D01*
X151155400Y-121604930D02*
X151063960Y-121513490D01*
D26*
G04 #@! TO.N,Net-(D4-Pad2)*
X152255908Y-123935690D02*
X151759920Y-123439702D01*
X152265380Y-119757264D02*
X152265380Y-118101364D01*
X151759920Y-123439702D02*
X151759920Y-120262724D01*
X151759920Y-120262724D02*
X152265380Y-119757264D01*
D27*
G04 #@! TO.N,PCIe_WAKE_B*
X138160760Y-141874240D02*
X139768580Y-141874240D01*
X139768580Y-141874240D02*
X140065760Y-141577060D01*
X140065760Y-141577060D02*
X140065760Y-137429240D01*
X140065760Y-137429240D02*
X140914120Y-136580880D01*
X140914120Y-136580880D02*
X147375880Y-136580880D01*
X149630565Y-122557993D02*
X149855608Y-122332950D01*
X149450045Y-122738513D02*
X149630565Y-122557993D01*
X149450045Y-134506715D02*
X149450045Y-122738513D01*
X147375880Y-136580880D02*
X149450045Y-134506715D01*
G04 #@! TO.N,PCIe_RX2_P*
X154653668Y-131128970D02*
X157384950Y-131128970D01*
D28*
X160011453Y-131238316D02*
X159863189Y-131386580D01*
X160011453Y-130991898D02*
X160011453Y-131238316D01*
X157642560Y-131386580D02*
X157384950Y-131128970D01*
X159863189Y-131386580D02*
X157642560Y-131386580D01*
D27*
G04 #@! TO.N,PCIe_RX2_N*
X154653668Y-131929070D02*
X157428130Y-131929070D01*
D28*
X160209019Y-131435882D02*
X159978921Y-131665980D01*
X159978921Y-131665980D02*
X157691220Y-131665980D01*
X157691220Y-131665980D02*
X157428130Y-131929070D01*
X160209019Y-131435882D02*
X160455437Y-131435882D01*
G04 #@! TO.N,PCIe_RX3_P*
X154977088Y-143569394D02*
X154196334Y-142788640D01*
X154977088Y-143815812D02*
X154977088Y-143569394D01*
X154196334Y-142788640D02*
X151750314Y-142788640D01*
D27*
X150660788Y-131131510D02*
X150263860Y-131528438D01*
X150263860Y-131528438D02*
X150263860Y-134505700D01*
D28*
X150263860Y-141302186D02*
X150263860Y-134505700D01*
X151750314Y-142788640D02*
X150263860Y-141302186D01*
G04 #@! TO.N,PCIe_RX3_N*
X155421072Y-143371828D02*
X155174654Y-143371828D01*
X155174654Y-143371828D02*
X154312066Y-142509240D01*
X154312066Y-142509240D02*
X151866046Y-142509240D01*
D27*
X150658248Y-131926530D02*
X150658248Y-134508928D01*
D28*
X151866046Y-142509240D02*
X150658248Y-141301442D01*
X150658248Y-141301442D02*
X150658248Y-134508928D01*
D26*
G04 #@! TO.N,JTAG_TDO*
X133910325Y-106861355D02*
X159002985Y-106861355D01*
X159002985Y-106861355D02*
X162298380Y-103565960D01*
X162298380Y-103565960D02*
X162298380Y-100345240D01*
D29*
X133910325Y-106861355D02*
X133742685Y-106861355D01*
X133742685Y-106861355D02*
X132481320Y-108122720D01*
X132481320Y-108122720D02*
X130167380Y-108122720D01*
X130167380Y-108122720D02*
X128823720Y-109466380D01*
D27*
G04 #@! TO.N,JTAG_TDI*
X143449728Y-126325830D02*
X140693828Y-126325830D01*
D26*
X164675820Y-104985820D02*
X164675820Y-98971100D01*
X164675820Y-98971100D02*
X162278060Y-96573340D01*
D29*
X132697881Y-109413040D02*
X133858661Y-108252260D01*
X131495800Y-109413040D02*
X132697881Y-109413040D01*
X161409380Y-108252260D02*
X161790380Y-107871260D01*
X133858661Y-108252260D02*
X161409380Y-108252260D01*
D26*
X161790380Y-107871260D02*
X164675820Y-104985820D01*
D29*
X132697881Y-109413040D02*
X132737860Y-109413040D01*
X132737860Y-109413040D02*
X133428740Y-110103920D01*
X133428740Y-110103920D02*
X133428740Y-125686820D01*
X134067750Y-126325830D02*
X133428740Y-125686820D01*
X140693828Y-126325830D02*
X134067750Y-126325830D01*
G04 #@! TO.N,JTAG_TMS*
X157867604Y-109552740D02*
X157420564Y-109999780D01*
X157420564Y-109999780D02*
X134178568Y-109999780D01*
X134178568Y-109999780D02*
X133712214Y-109533426D01*
G04 #@! TO.N,HPD*
X112469677Y-116508783D02*
X111426243Y-116508783D01*
X112694720Y-116283740D02*
X112469677Y-116508783D01*
X111426243Y-116508783D02*
X111170720Y-116253260D01*
X111170720Y-116253260D02*
X101015800Y-116253260D01*
X101015800Y-116253260D02*
X100274120Y-115511580D01*
G04 #@! TO.N,Net-(J6-Pad3)*
X163517580Y-116379500D02*
X163386260Y-116248180D01*
X163517580Y-116697760D02*
X163517580Y-116379500D01*
X163386260Y-116248180D02*
X135648700Y-116248180D01*
X135648700Y-116248180D02*
X133913880Y-114513360D01*
G04 #@! TO.N,Net-(J6-Pad2)*
X163834063Y-121082817D02*
X163834063Y-117237257D01*
X163609020Y-121307860D02*
X163834063Y-121082817D01*
X163834063Y-117237257D02*
X163834063Y-117112797D01*
X163834063Y-117112797D02*
X164050980Y-116895880D01*
X164050980Y-116895880D02*
X164050980Y-116240560D01*
X164050980Y-116240560D02*
X163609020Y-115798600D01*
X163609020Y-115798600D02*
X135884920Y-115798600D01*
X135884920Y-115798600D02*
X135872220Y-115798600D01*
X135872220Y-115798600D02*
X134594600Y-114520980D01*
G04 #@! TO.N,Net-(J6-Pad1)*
X164658040Y-120787160D02*
X164658040Y-116052600D01*
X164658040Y-116052600D02*
X163906200Y-115300760D01*
X163906200Y-115300760D02*
X136067800Y-115300760D01*
X136067800Y-115300760D02*
X135242300Y-114475260D01*
D27*
G04 #@! TO.N,Net-(J13-Pad3)*
X165503100Y-120378220D02*
X165160960Y-120720360D01*
X165821360Y-120378220D02*
X165503100Y-120378220D01*
X165160960Y-120720360D02*
X165160960Y-121620280D01*
X165160960Y-121620280D02*
X164053520Y-122727720D01*
X152661238Y-122727720D02*
X152255908Y-123133050D01*
X164053520Y-122727720D02*
X152661238Y-122727720D01*
D29*
G04 #@! TO.N,HDMI_R_VSYNC*
X133985000Y-117787420D02*
X136057640Y-117787420D01*
D27*
X136057640Y-117787420D02*
X136151620Y-117787420D01*
X136151620Y-117787420D02*
X137680700Y-119316500D01*
D29*
G04 #@! TO.N,HDMI_R_D5*
X134246620Y-120327420D02*
X134846060Y-120926860D01*
X145544468Y-121527770D02*
X145862728Y-121527770D01*
X144848580Y-121527770D02*
X145544468Y-121527770D01*
X144247670Y-120926860D02*
X144848580Y-121527770D01*
X134846060Y-120926860D02*
X144247670Y-120926860D01*
D27*
G04 #@! TO.N,HDMI_R_D9*
X143452268Y-122330410D02*
X139518190Y-122330410D01*
X139518190Y-122330410D02*
X139201760Y-122013980D01*
X139201760Y-122013980D02*
X135112760Y-122013980D01*
X135112760Y-122013980D02*
X135053325Y-122013980D01*
X135053325Y-122013980D02*
X134610856Y-121571511D01*
G04 #@! TO.N,HDMI_R_D11*
X134162294Y-121194066D02*
X134775446Y-121194066D01*
X133868160Y-121488200D02*
X134162294Y-121194066D01*
X134775446Y-121194066D02*
X135069580Y-121488200D01*
X135069580Y-121488200D02*
X138122660Y-121488200D01*
X138122660Y-121488200D02*
X138148060Y-121513600D01*
D29*
G04 #@! TO.N,HDMI_R_D23*
X110477300Y-133466840D02*
X108902500Y-135041640D01*
X120334352Y-133466840D02*
X110477300Y-133466840D01*
X120855740Y-132945452D02*
X120334352Y-133466840D01*
X120855740Y-127975360D02*
X120855740Y-132945452D01*
X127541020Y-122483880D02*
X126347220Y-122483880D01*
X126347220Y-122483880D02*
X120855740Y-127975360D01*
G04 #@! TO.N,HDMI_R_HSYNC*
X133967220Y-116885720D02*
X137238740Y-116885720D01*
X137238740Y-116885720D02*
X138183620Y-117830600D01*
X138183620Y-117830600D02*
X138183620Y-118163340D01*
X138183620Y-118163340D02*
X137967720Y-118379240D01*
G04 #@! TO.N,HDMI_R_DE*
X130762757Y-116498623D02*
X130987800Y-116273580D01*
X130587497Y-116673883D02*
X130762757Y-116498623D01*
X125861063Y-116673883D02*
X130587497Y-116673883D01*
X125636020Y-116448840D02*
X125861063Y-116673883D01*
G04 #@! TO.N,VGA_R4*
X160477200Y-124188220D02*
X163581080Y-124188220D01*
X163581080Y-124188220D02*
X163583620Y-124185680D01*
D27*
G04 #@! TO.N,CCLK*
X159819847Y-125931003D02*
X159819847Y-123837193D01*
X159594804Y-126156046D02*
X159819847Y-125931003D01*
X159819847Y-123837193D02*
X160576260Y-123080780D01*
X160576260Y-123080780D02*
X164975540Y-123080780D01*
X164975540Y-123080780D02*
X166362380Y-121693940D01*
X166362380Y-121693940D02*
X166362380Y-115219480D01*
X166362380Y-115219480D02*
X167182800Y-114399060D01*
D29*
G04 #@! TO.N,VGA_R1*
X161046160Y-123736100D02*
X163403280Y-123736100D01*
X163403280Y-123736100D02*
X163509960Y-123629420D01*
G04 #@! TO.N,TTL_DSR1*
X135569960Y-124531120D02*
X135569960Y-124775976D01*
D27*
X135569960Y-124775976D02*
X135569960Y-125061980D01*
X135569960Y-125061980D02*
X135669020Y-125161040D01*
X135669020Y-125161040D02*
X136431020Y-125161040D01*
X136431020Y-125161040D02*
X136563100Y-125293120D01*
G04 #@! TO.N,GND*
X151465280Y-124732262D02*
X152260988Y-125527970D01*
X151465280Y-124724160D02*
X151465280Y-124732262D01*
X150650428Y-126328370D02*
X150650428Y-125973352D01*
X151095810Y-125527970D02*
X152260988Y-125527970D01*
X151240237Y-125383543D02*
X150992840Y-125630940D01*
X151240237Y-124949203D02*
X151240237Y-125383543D01*
X151465280Y-124724160D02*
X151240237Y-124949203D01*
X150650428Y-125973352D02*
X150992840Y-125630940D01*
X150992840Y-125630940D02*
X151095810Y-125527970D01*
X153853268Y-123935690D02*
X153853568Y-123935690D01*
X152260988Y-125527970D02*
X153853268Y-123935690D01*
X152830965Y-128508707D02*
X153056008Y-128733750D01*
X152635893Y-128313635D02*
X152830965Y-128508707D01*
X152635893Y-125902875D02*
X152635893Y-128313635D01*
X152260988Y-125527970D02*
X152635893Y-125902875D01*
X150655020Y-123913900D02*
X151465280Y-124724160D01*
X150655020Y-123110244D02*
X150655020Y-123913900D01*
D26*
X147464968Y-123131010D02*
X148257948Y-123131010D01*
X146657748Y-123938230D02*
X147464968Y-123131010D01*
X149055508Y-125533350D02*
X149055508Y-124733450D01*
X148255408Y-126333450D02*
X149055508Y-125533350D01*
G04 #@! TD*
M02*
