M48
;DRILL file {KiCad (5.0.2)-1} date 4/3/2019 12:40:39 AM
;FORMAT={-:-/ absolute / inch / decimal}
FMAT,2
INCH,TZ
T1C0.0079
T2C0.0079
T3C0.0080
T4C0.0090
T5C0.0197
T6C0.0200
T7C0.0394
T8C0.0512
T9C0.0709
T10C0.1260
%
G90
G05
T1
X4.2934Y-4.7413
X4.2934Y-4.7807
X4.2934Y-4.82
X4.2934Y-4.8594
X4.2934Y-4.8988
X4.2934Y-4.9382
X4.2934Y-4.9775
X4.2934Y-5.0169
X4.3328Y-4.7413
X4.3328Y-4.7807
X4.3328Y-4.82
X4.3328Y-4.8594
X4.3328Y-4.8988
X4.3328Y-4.9382
X4.3328Y-4.9775
X4.3328Y-5.0169
X4.3721Y-4.7413
X4.3721Y-4.7807
X4.3721Y-4.82
X4.3721Y-4.8594
X4.3721Y-4.8988
X4.3721Y-4.9382
X4.3721Y-4.9775
X4.3721Y-5.0169
X4.4115Y-4.7413
X4.4115Y-4.7807
X4.4115Y-4.82
X4.4115Y-4.8594
X4.4115Y-4.8988
X4.4115Y-4.9382
X4.4115Y-4.9775
X4.4115Y-5.0169
X4.4509Y-4.7413
X4.4509Y-4.7807
X4.4509Y-4.82
X4.4509Y-4.8594
X4.4509Y-4.8988
X4.4509Y-4.9382
X4.4509Y-4.9775
X4.4509Y-5.0169
X4.4903Y-4.7413
X4.4903Y-4.7807
X4.4903Y-4.82
X4.4903Y-4.8594
X4.4903Y-4.8988
X4.4903Y-4.9382
X4.4903Y-4.9775
X4.4903Y-5.0169
X4.5296Y-4.7413
X4.5296Y-4.7807
X4.5296Y-4.82
X4.5296Y-4.8594
X4.5296Y-4.8988
X4.5296Y-4.9382
X4.5296Y-4.9775
X4.5296Y-5.0169
X4.569Y-4.7413
X4.569Y-4.7807
X4.569Y-4.82
X4.569Y-4.8594
X4.569Y-4.8988
X4.569Y-4.9382
X4.569Y-4.9775
X4.569Y-5.0169
T2
X3.4787Y-4.7183
X3.4813Y-4.8225
X3.4845Y-4.9942
X3.4862Y-4.9423
X3.4871Y-4.8801
X3.8268Y-4.634
X3.8323Y-4.7853
X3.8331Y-4.8446
X3.8348Y-4.9035
X3.8351Y-4.9682
X3.8786Y-4.7839
X3.8786Y-4.8434
X3.8823Y-4.9156
X3.8837Y-5.0575
X3.8857Y-4.9729
X3.9258Y-4.9719
X3.9267Y-4.7808
X3.9267Y-4.8437
X3.9268Y-4.9113
X3.9389Y-5.2004
X3.9432Y-5.059
X3.9478Y-4.5477
X3.9627Y-5.3745
X3.9813Y-5.3238
X3.9994Y-4.4843
X4.0007Y-4.2438
X4.0011Y-4.1677
X4.0039Y-4.4978
X4.0464Y-5.0921
X4.0481Y-4.6232
X4.0715Y-5.0628
X4.0987Y-4.6189
X4.1015Y-4.3317
X4.1023Y-4.1179
X4.1383Y-4.9671
X4.1399Y-4.8457
X4.1542Y-4.7512
X4.1695Y-5.168
X4.2044Y-4.5435
X4.2248Y-5.375
X4.2355Y-4.1125
X4.2432Y-4.5092
X4.2746Y-5.4248
X4.283Y-5.1601
X4.2875Y-5.3166
X4.3112Y-5.4248
X4.3144Y-5.3174
X4.3267Y-5.1659
X4.3415Y-5.4248
X4.3469Y-5.3182
X4.3495Y-3.9501
X4.3502Y-4.0922
X4.3604Y-4.596
X4.3711Y-5.1701
X4.3727Y-5.3182
X4.373Y-5.4248
X4.4033Y-4.186
X4.4192Y-5.1771
X4.4236Y-4.5552
X4.4317Y-4.4101
X4.432Y-4.3579
X4.4368Y-4.5781
X4.4657Y-5.3187
X4.4723Y-5.1597
X4.4806Y-4.4101
X4.4882Y-5.3759
X4.4939Y-5.3182
X4.5169Y-5.3701
X4.5237Y-4.5816
X4.5302Y-5.3189
X4.5315Y-5.1838
X4.5619Y-5.3203
X4.5814Y-4.1357
X4.5818Y-5.1843
X4.5887Y-3.9387
X4.5889Y-4.6005
X4.589Y-4.3344
X4.6064Y-4.1356
X4.6133Y-5.3554
X4.6158Y-3.9277
X4.6182Y-4.3432
X4.6341Y-4.1357
X4.6419Y-3.9277
X4.6432Y-4.3432
X4.6477Y-5.1833
X4.657Y-5.2322
X4.6653Y-3.9277
X4.6659Y-4.1357
X4.6683Y-4.3432
X4.6846Y-4.1356
X4.6947Y-4.3359
X4.6966Y-3.938
X4.7039Y-4.1357
X4.7048Y-5.0189
X4.7107Y-4.9287
X4.7148Y-4.8069
X4.7156Y-4.8468
X4.7157Y-4.9793
X4.7167Y-5.4168
X4.717Y-4.7616
X4.7442Y-5.3968
X4.7676Y-5.371
X4.775Y-3.6086
X4.7848Y-3.4758
X4.7905Y-3.3163
X4.7951Y-5.3453
X4.8462Y-4.6455
X4.8735Y-3.1708
X4.8812Y-4.8409
X4.886Y-5.3424
X4.8939Y-4.8657
X4.9189Y-5.3854
X4.9258Y-3.1708
X4.936Y-4.8185
X4.9391Y-5.4056
X4.9455Y-5.0636
X4.9463Y-4.5846
X4.958Y-5.4245
X4.9611Y-3.6946
X4.9679Y-3.1708
X4.9855Y-4.6395
X4.986Y-4.4675
X4.9951Y-5.4245
X5.0017Y-3.3516
X5.0036Y-4.7726
X5.0045Y-4.4345
X5.0053Y-4.359
X5.014Y-3.1708
X5.0201Y-4.7036
X5.0213Y-4.8222
X5.025Y-5.4245
X5.0302Y-4.7273
X5.0356Y-4.6367
X5.0396Y-4.8711
X5.0486Y-4.1357
X5.0521Y-4.4925
X5.0611Y-3.1708
X5.1394Y-3.6127
X5.1445Y-3.4552
X5.1535Y-3.3059
X5.157Y-4.5777
X5.1748Y-3.9156
X5.182Y-3.9453
X5.182Y-3.9675
X5.182Y-3.992
X5.182Y-4.0188
X5.1833Y-4.0429
X5.186Y-4.1027
X5.1915Y-5.0555
X5.2643Y-4.3123
X5.2704Y-4.783
X5.2722Y-4.5084
X5.2743Y-4.6018
X5.275Y-4.6373
X5.2757Y-5.1809
X5.2811Y-5.6513
X5.2811Y-5.6913
X5.2811Y-5.7358
X5.2814Y-5.4178
X5.2853Y-4.7373
X5.2911Y-5.3586
X5.2943Y-4.6784
X5.296Y-4.6184
X5.299Y-4.5087
X5.2996Y-4.7863
X5.3245Y-4.5069
X5.3374Y-4.9028
X5.3376Y-5.506
X5.3422Y-4.2953
X5.343Y-5.6184
X5.3559Y-5.506
X5.3743Y-5.506
X5.3759Y-4.9556
X5.3765Y-4.9328
X5.3843Y-3.9978
X5.3849Y-3.8253
X5.3926Y-5.506
X5.4111Y-5.506
X5.4205Y-4.6975
X5.4218Y-4.8705
X5.4273Y-4.046
X5.4294Y-5.506
X5.4317Y-5.5598
X5.4318Y-4.6606
X5.4366Y-4.8247
X5.4387Y-4.7363
X5.4389Y-4.784
X5.4394Y-5.5856
X5.4438Y-4.7132
X5.4477Y-5.506
X5.4528Y-4.6889
X5.4638Y-4.1768
X5.464Y-4.6667
X5.468Y-4.8254
X5.476Y-4.1316
X5.4765Y-4.4599
X5.4922Y-4.8474
X5.4972Y-4.627
X5.4973Y-5.375
X5.4994Y-4.4599
X5.5071Y-4.6859
X5.5146Y-4.6571
X5.5229Y-4.4592
X5.5273Y-5.1159
X5.5403Y-4.6366
X5.5425Y-4.163
X5.5626Y-4.0882
X5.5768Y-4.0478
X5.5779Y-3.8841
X5.579Y-4.6845
X5.5836Y-5.2585
X5.5918Y-4.4135
X5.6068Y-4.6813
X5.6321Y-4.6776
X5.6473Y-4.9102
X5.6476Y-4.7845
X5.6476Y-4.9421
X5.6476Y-4.9735
X5.6476Y-5.0051
X5.6477Y-4.8162
X5.6478Y-4.8477
X5.6479Y-5.1627
X5.6479Y-4.8793
X5.648Y-5.0679
X5.6481Y-5.0367
X5.6528Y-4.6427
X5.6635Y-5.2677
X5.6718Y-4.627
X5.679Y-4.9735
X5.6792Y-4.8476
X5.6792Y-4.9106
X5.6793Y-4.8165
X5.6793Y-4.8793
X5.6793Y-5.0052
X5.6793Y-5.1628
X5.6794Y-4.7848
X5.6938Y-4.6215
X5.7106Y-4.8476
X5.7107Y-5.0051
X5.7107Y-4.6378
X5.7107Y-5.0367
X5.7108Y-4.8163
X5.7108Y-4.9423
X5.7111Y-4.753
X5.7143Y-3.4014
X5.7167Y-4.4247
X5.7386Y-3.596
X5.742Y-5.2258
X5.742Y-4.9105
X5.7422Y-5.1314
X5.7422Y-4.9739
X5.7423Y-4.722
X5.7423Y-4.7534
X5.7426Y-4.7846
X5.7603Y-3.8008
X5.7665Y-5.3157
X5.7734Y-5.0678
X5.7735Y-4.7848
X5.7735Y-4.9105
X5.7737Y-5.0367
X5.7739Y-5.1944
X5.7739Y-4.7532
X5.7739Y-4.8162
X5.7739Y-4.8795
X5.7898Y-4.5926
X5.8051Y-4.6122
X5.8052Y-4.7534
X5.8052Y-4.7847
X5.8052Y-5.0998
X5.8053Y-4.9738
X5.8054Y-4.8163
X5.8055Y-4.8795
X5.8056Y-4.9105
X5.8058Y-5.0678
X5.8157Y-4.1134
X5.8197Y-4.391
X5.82Y-3.3194
X5.8212Y-5.2661
X5.8269Y-3.8074
X5.831Y-3.7732
X5.8332Y-5.4404
X5.8332Y-5.4652
X5.8363Y-5.0363
X5.8368Y-4.7532
X5.8368Y-4.9738
X5.8369Y-4.7846
X5.8369Y-4.8477
X5.8369Y-4.942
X5.837Y-4.8162
X5.8371Y-4.9105
X5.8403Y-5.3797
X5.8424Y-3.8236
X5.8461Y-4.5214
X5.8468Y-4.1117
X5.8505Y-4.5952
X5.8548Y-3.3111
X5.8683Y-4.7532
X5.8683Y-4.9108
X5.8687Y-4.7844
X5.869Y-4.9736
X5.8852Y-3.8266
X5.8861Y-4.5926
X5.8995Y-4.8475
X5.8995Y-4.879
X5.8997Y-4.9739
X5.8997Y-4.7532
X5.8998Y-4.8163
X5.9001Y-4.7845
X5.9001Y-5.0371
X5.9002Y-5.1947
X5.9049Y-3.8129
X5.9107Y-3.6601
X5.9171Y-4.6528
X5.9174Y-4.3668
X5.9311Y-5.0685
X5.9311Y-4.9736
X5.9311Y-4.785
X5.9312Y-4.7217
X5.9313Y-4.8469
X5.9314Y-5.1311
X5.9314Y-5.194
X5.9315Y-5.0995
X5.9315Y-5.1627
X5.9336Y-3.8045
X5.9464Y-3.403
X5.9522Y-4.4665
X5.9522Y-5.3115
X5.9629Y-4.7217
X5.9629Y-4.9739
X5.963Y-5.1943
X5.9631Y-5.0371
X5.9632Y-4.9104
X5.9833Y-3.8085
X5.9887Y-4.014
X5.9887Y-4.014
X5.9908Y-4.6011
X5.9942Y-4.9109
X5.9943Y-4.8478
X5.9943Y-4.8794
X5.9943Y-5.1628
X5.9943Y-5.1942
X5.9944Y-5.1312
X5.9944Y-5.0368
X5.9945Y-4.942
X5.9947Y-4.6497
X6.0101Y-5.296
X6.0246Y-4.0214
X6.0253Y-5.0989
X6.0253Y-5.1312
X6.0255Y-4.9736
X6.0257Y-4.8793
X6.0258Y-5.0683
X6.0259Y-5.0369
X6.0259Y-5.194
X6.026Y-4.8161
X6.057Y-4.7529
X6.0571Y-5.005
X6.0572Y-5.2258
X6.0572Y-4.8794
X6.0573Y-4.9422
X6.0573Y-5.1943
X6.0574Y-5.037
X6.0574Y-5.0999
X6.0574Y-5.1314
X6.0576Y-4.9741
X6.0738Y-3.7493
X6.074Y-3.6792
X6.074Y-3.7255
X6.0743Y-3.6479
X6.0743Y-3.7017
X6.0886Y-4.9422
X6.0886Y-5.0051
X6.0886Y-5.0684
X6.0887Y-5.0368
X6.0887Y-5.1626
X6.0887Y-5.1941
X6.0888Y-5.1313
X6.0888Y-4.8478
X6.0889Y-4.9738
X6.0889Y-4.7847
X6.0889Y-4.9109
X6.1015Y-5.662
X6.1189Y-5.6446
X6.1204Y-5.0681
X6.1359Y-4.224
X6.1364Y-4.0088
X6.1392Y-3.8547
X6.1402Y-3.8766
X6.1407Y-3.898
X6.1407Y-3.92
X6.1553Y-4.6868
X6.1592Y-4.7692
X6.1606Y-5.2494
X6.1689Y-3.8346
X6.1883Y-4.4055
X6.1905Y-5.21
X6.1934Y-3.6322
X6.1934Y-3.6697
X6.2127Y-5.2519
X6.2153Y-4.3131
X6.2206Y-3.6697
X6.2224Y-3.6322
X6.2269Y-4.6065
X6.2299Y-4.043
X6.2457Y-4.6248
X6.2479Y-5.6184
X6.2522Y-3.6697
X6.2533Y-3.6322
X6.2597Y-5.0868
X6.2597Y-5.1116
X6.2602Y-5.1363
X6.2776Y-5.1537
X6.283Y-3.6322
X6.2833Y-4.9668
X6.2849Y-3.6696
X6.2997Y-5.1572
X6.3171Y-5.1746
X6.318Y-4.8893
X6.331Y-4.4827
X6.3317Y-4.2337
X6.3356Y-5.1445
X6.3404Y-4.8715
X6.3414Y-5.1985
X6.4168Y-4.4936
X6.422Y-3.5046
X6.4322Y-4.2363
X6.4374Y-4.8673
X6.4377Y-4.5944
X6.4403Y-4.8892
X6.4413Y-4.7759
X6.4444Y-3.5046
X6.4666Y-3.5046
X6.4816Y-4.2543
X6.4826Y-4.7554
X6.4901Y-3.5046
X6.5117Y-4.4377
X6.5129Y-3.5046
X6.5284Y-4.7393
X6.577Y-4.7058
X6.582Y-4.5039
X6.6145Y-4.9147
X6.6454Y-5.0408
X6.668Y-4.9534
X6.7162Y-5.0358
X6.7183Y-5.0947
X6.7245Y-5.0637
X6.7411Y-5.0325
X6.7528Y-5.082
X6.7546Y-5.0627
X6.778Y-4.2345
X6.7996Y-4.2561
X6.8006Y-4.9847
X6.834Y-4.7211
X6.8366Y-4.577
X6.8711Y-3.7675
X6.889Y-2.8837
X6.9519Y-2.8837
X6.9866Y-4.5085
X6.9866Y-4.53
X6.9866Y-4.5508
X6.9866Y-4.5695
X7.0474Y-3.5672
X7.0484Y-3.3237
X7.05Y-3.3823
X7.079Y-4.886
X7.161Y-3.2595
X7.161Y-3.289
X7.161Y-3.3147
X7.161Y-3.3401
X7.161Y-3.3675
X7.247Y-3.926
X7.2756Y-3.926
X7.28Y-4.144
X7.3007Y-4.144
X7.3074Y-3.926
X7.3166Y-4.144
X7.3396Y-3.926
X7.3664Y-4.1461
X7.3664Y-4.1461
X7.3928Y-4.144
X8.0994Y-3.9146
X8.0999Y-4.4812
X8.1045Y-5.05
X8.1354Y-3.9123
X8.1362Y-5.0492
X8.1379Y-4.4812
X8.2667Y-4.6302
X8.2722Y-4.7762
X8.28Y-4.0822
X8.28Y-4.1301
X8.28Y-4.1606
X8.28Y-4.1813
X8.28Y-4.2185
X8.2899Y-4.1069
X8.2899Y-4.1474
X8.2899Y-4.2019
X8.2962Y-4.6326
X8.2976Y-4.7767
X8.3566Y-5.0706
X8.3577Y-4.3358
X8.3577Y-4.3696
X8.3585Y-4.2639
X8.3587Y-4.0042
X8.3595Y-4.8716
X8.3599Y-3.732
X8.361Y-4.297
X8.3618Y-4.4101
X8.3635Y-4.4828
X8.3645Y-4.0321
X8.3647Y-5.0448
X8.3654Y-5.0109
X8.3659Y-4.449
X8.3661Y-4.9549
X8.3669Y-3.7902
X8.3669Y-3.8449
X8.3669Y-3.8983
X8.3669Y-4.9202
X8.3673Y-4.5266
X8.3673Y-4.5655
X8.3871Y-4.7632
X8.4248Y-4.7636
X8.4684Y-4.7506
X8.4832Y-4.1647
X8.4988Y-4.7516
T3
X7.2815Y-4.7075
X7.2985Y-4.7249
X7.3146Y-4.7062
X7.3328Y-4.7244
X7.3472Y-4.7054
X7.3652Y-4.7223
X7.375Y-4.7031
X7.4975Y-3.9193
X7.5909Y-3.8893
X7.7031Y-3.8893
X7.815Y-3.8203
T4
X5.1241Y-5.7337
X5.2422Y-5.7344
X5.3943Y-5.2391
X5.5352Y-5.7091
X5.6552Y-5.7074
X5.7538Y-5.711
X5.8499Y-5.7026
X5.9319Y-5.7009
X6.0071Y-5.7032
X6.0875Y-5.7052
X6.167Y-5.7039
X6.2879Y-5.7198
X6.6806Y-4.3577
X6.6807Y-4.3192
X6.6982Y-4.279
X8.5599Y-4.8544
X8.5599Y-4.8544
X8.5599Y-4.8544
X8.5599Y-4.8544
X8.5599Y-4.8544
X8.5599Y-4.8734
X8.5599Y-4.8938
X8.5822Y-4.9161
X8.5822Y-4.9161
X8.5822Y-4.9161
X8.6282Y-4.7861
X8.6299Y-4.9638
X8.6486Y-4.9825
X8.6595Y-4.4426
X8.6595Y-4.4645
X8.6595Y-4.4864
X8.6595Y-4.507
X8.6595Y-4.5799
X8.6595Y-4.6027
X8.6595Y-4.6734
X8.6595Y-4.695
X8.6595Y-4.7548
X8.6595Y-4.8173
X8.6595Y-4.8627
X8.6595Y-4.901
X8.6595Y-5.044
X8.6595Y-5.0632
X8.6595Y-5.087
X8.6595Y-5.1107
X8.6595Y-5.1337
X8.6595Y-5.1589
X8.6595Y-5.1834
X8.6595Y-5.2079
X8.6595Y-5.232
T6
X5.0454Y-5.7045
X7.346Y-3.679
X7.437Y-4.959
X7.4835Y-4.9335
X7.4835Y-4.9865
X7.4835Y-5.0395
X7.4835Y-5.093
X7.537Y-4.933
X7.537Y-4.9865
X7.537Y-5.0395
X7.537Y-5.093
X7.545Y-4.3555
X7.545Y-4.4095
X7.545Y-4.462
X7.545Y-4.516
X7.59Y-4.9865
X7.59Y-5.0395
X7.59Y-5.093
X7.5905Y-4.933
X7.602Y-4.3555
X7.602Y-4.4095
X7.602Y-4.462
X7.602Y-4.516
X7.6435Y-4.933
X7.6435Y-4.9865
X7.6435Y-5.0395
X7.6435Y-5.093
X7.649Y-3.693
X7.66Y-4.3555
X7.66Y-4.4095
X7.66Y-4.462
X7.66Y-4.516
X7.696Y-4.9325
X7.6965Y-4.9865
X7.6965Y-5.0395
X7.6965Y-5.093
X7.717Y-4.3555
X7.717Y-4.4095
X7.717Y-4.462
X7.717Y-4.516
X7.746Y-5.068
X7.7465Y-5.0125
X7.752Y-4.937
X7.776Y-4.3555
X7.776Y-4.4095
X7.776Y-4.462
X7.776Y-4.516
X7.7855Y-3.2505
X7.7855Y-3.304
X7.786Y-3.04
X7.786Y-3.0935
X7.8265Y-3.1725
X7.8265Y-3.278
X7.827Y-3.014
X7.827Y-3.0675
X7.833Y-4.3555
X7.833Y-4.4095
X7.833Y-4.462
X7.833Y-4.516
X7.866Y-3.1445
X7.866Y-3.1965
X7.866Y-3.302
X7.8665Y-2.986
X7.8665Y-3.0395
X7.8695Y-4.6485
X7.9055Y-3.274
X7.906Y-2.958
X7.906Y-3.0115
X7.906Y-3.0635
X7.92Y-3.9675
X7.9205Y-5.2465
X7.9435Y-3.1425
X7.9435Y-3.196
X7.9435Y-3.2985
X7.944Y-2.932
X7.944Y-2.9855
X7.9835Y-3.169
X7.9835Y-3.2745
X7.9835Y-3.325
X7.984Y-2.9065
X7.984Y-2.9585
X7.984Y-3.012
X7.984Y-3.064
X8.023Y-3.1425
X8.023Y-3.196
X8.023Y-3.2985
X8.023Y-3.3505
X8.0235Y-2.88
X8.0235Y-2.932
X8.0235Y-2.9855
X8.0235Y-3.0375
X8.062Y-3.118
X8.062Y-3.17
X8.062Y-3.2235
X8.062Y-3.326
X8.062Y-3.378
X8.0625Y-2.9075
X8.0625Y-2.9595
X8.0625Y-3.013
X8.5998Y-3.724
X8.6595Y-3.8624
T7
X6.2906Y-3.9505
X6.3906Y-3.9505
X5.4787Y-3.542
X5.4787Y-3.642
X5.4787Y-3.742
X6.5767Y-4.0257
X6.5767Y-4.1257
X6.2901Y-3.801
X6.3901Y-3.801
X5.077Y-4.2076
X5.077Y-4.3076
X5.077Y-4.4076
X5.177Y-4.2076
X5.177Y-4.3076
X5.177Y-4.4076
X3.6039Y-3.5079
X3.6039Y-3.598
X3.6039Y-3.6882
X3.6039Y-3.7783
X3.6039Y-3.8685
X3.6818Y-3.5529
X3.6818Y-3.6431
X3.6818Y-3.7333
X3.6818Y-3.8234
X3.6818Y-3.9136
X3.7598Y-3.5079
X3.7598Y-3.598
X3.7598Y-3.6882
X3.7598Y-3.7783
X3.7598Y-3.8685
T8
X3.3305Y-4.5181
X3.3305Y-5.1363
X3.5234Y-4.5418
X3.5234Y-5.1126
T9
X8.195Y-2.9732
X8.195Y-3.1386
X8.195Y-3.3039
X8.4115Y-2.9732
X8.4115Y-3.1386
X8.4115Y-3.3039
T10
X3.6791Y-3.2065
X3.6791Y-4.1907
T5
X5.6529Y-3.0516G85X5.6529Y-3.028
G05
X5.6671Y-3.2859G85X5.6671Y-3.2622
G05
X5.9923Y-3.2859G85X5.9923Y-3.2622
G05
X6.0065Y-3.0516G85X6.0065Y-3.028
G05
T0
M30
