G04 #@! TF.GenerationSoftware,KiCad,Pcbnew,(5.0.2)-1*
G04 #@! TF.CreationDate,2019-04-03T00:40:33-04:00*
G04 #@! TF.ProjectId,RASAC,52415341-432e-46b6-9963-61645f706362,rev?*
G04 #@! TF.SameCoordinates,Original*
G04 #@! TF.FileFunction,Legend,Bot*
G04 #@! TF.FilePolarity,Positive*
%FSLAX46Y46*%
G04 Gerber Fmt 4.6, Leading zero omitted, Abs format (unit mm)*
G04 Created by KiCad (PCBNEW (5.0.2)-1) date 4/3/2019 12:40:33 AM*
%MOMM*%
%LPD*%
G01*
G04 APERTURE LIST*
%ADD10C,0.120000*%
%ADD11C,0.150000*%
G04 APERTURE END LIST*
D10*
G04 #@! TO.C,R69*
X162494520Y-124659500D02*
X161294520Y-124659500D01*
X161294520Y-126419500D02*
X162494520Y-126419500D01*
G04 #@! TO.C,R64*
X161291980Y-123409600D02*
X162491980Y-123409600D01*
X162491980Y-121649600D02*
X161291980Y-121649600D01*
D11*
G04 #@! TO.C,U7*
X136646920Y-100058220D02*
X136646920Y-99550220D01*
X135376920Y-100058220D02*
X136646920Y-100058220D01*
X135376920Y-99550220D02*
X135376920Y-100058220D01*
X138424920Y-99550220D02*
X133852920Y-99550220D01*
X138424920Y-104630220D02*
X138424920Y-99550220D01*
X133852920Y-104630220D02*
X138424920Y-104630220D01*
X133852920Y-99550220D02*
X133852920Y-104630220D01*
G04 #@! TO.C,U1*
X155755508Y-133983450D02*
X152955508Y-133983450D01*
X156705508Y-133033450D02*
X155755508Y-133983450D01*
X156705508Y-130233450D02*
X156705508Y-133033450D01*
X141405508Y-133983450D02*
X145155508Y-133983450D01*
X141405508Y-130233450D02*
X141405508Y-133983450D01*
X156705508Y-118683450D02*
X152955508Y-118683450D01*
X156705508Y-122433450D02*
X156705508Y-118683450D01*
X141405508Y-118683450D02*
X145155508Y-118683450D01*
X141405508Y-122433450D02*
X141405508Y-118683450D01*
X156705508Y-118683450D02*
X152955508Y-118683450D01*
X156705508Y-122433450D02*
X156705508Y-118683450D01*
X156705508Y-118683450D02*
X152955508Y-118683450D01*
X156705508Y-122433450D02*
X156705508Y-118683450D01*
D10*
G04 #@! TO.C,C1*
X141719400Y-141990000D02*
X141719400Y-142490000D01*
X140779400Y-142490000D02*
X140779400Y-141990000D01*
G04 #@! TO.C,C2*
X141579500Y-142490000D02*
X141579500Y-141990000D01*
X142519500Y-141990000D02*
X142519500Y-142490000D01*
G04 #@! TO.C,C3*
X144716600Y-141990000D02*
X144716600Y-142490000D01*
X143776600Y-142490000D02*
X143776600Y-141990000D01*
G04 #@! TO.C,C4*
X144576700Y-142490000D02*
X144576700Y-141990000D01*
X145516700Y-141990000D02*
X145516700Y-142490000D01*
G04 #@! TO.C,C5*
X149720400Y-141990000D02*
X149720400Y-142490000D01*
X148780400Y-142490000D02*
X148780400Y-141990000D01*
G04 #@! TO.C,C6*
X149580500Y-142490000D02*
X149580500Y-141990000D01*
X150520500Y-141990000D02*
X150520500Y-142490000D01*
G04 #@! TO.C,C7*
X153720900Y-141990000D02*
X153720900Y-142490000D01*
X152780900Y-142490000D02*
X152780900Y-141990000D01*
G04 #@! TO.C,C8*
X153581000Y-142490000D02*
X153581000Y-141990000D01*
X154521000Y-141990000D02*
X154521000Y-142490000D01*
G04 #@! TO.C,C9*
X156781400Y-142490000D02*
X156781400Y-141990000D01*
X157721400Y-141990000D02*
X157721400Y-142490000D01*
G04 #@! TO.C,C10*
X157581500Y-142490000D02*
X157581500Y-141990000D01*
X158521500Y-141990000D02*
X158521500Y-142490000D01*
G04 #@! TO.C,C12*
X187925260Y-96719900D02*
X187925260Y-94719900D01*
X190885260Y-94719900D02*
X190885260Y-96719900D01*
G04 #@! TO.C,C210*
X197133632Y-94714820D02*
X197133632Y-96714820D01*
X194173632Y-96714820D02*
X194173632Y-94714820D01*
G04 #@! TO.C,C211*
X194001840Y-94714820D02*
X194001840Y-96714820D01*
X191041840Y-96714820D02*
X191041840Y-94714820D01*
G04 #@! TO.C,L4*
X151674987Y-93846668D02*
X152874987Y-93846668D01*
X152874987Y-92086668D02*
X151674987Y-92086668D01*
G04 #@! TO.C,L5*
X145444320Y-93446000D02*
X145444320Y-94646000D01*
X147204320Y-94646000D02*
X147204320Y-93446000D01*
G04 #@! TO.C,R1*
X160511900Y-129480500D02*
X160511900Y-129980500D01*
X159451900Y-129980500D02*
X159451900Y-129480500D01*
G04 #@! TO.C,SW1*
X128443600Y-127750180D02*
X134903600Y-127750180D01*
X128443600Y-132280180D02*
X128443600Y-129680180D01*
X128443600Y-134210180D02*
X134903600Y-134210180D01*
X134903600Y-132280180D02*
X134903600Y-129680180D01*
X128443600Y-134180180D02*
X128443600Y-134210180D01*
X128443600Y-127750180D02*
X128443600Y-127780180D01*
X134903600Y-127750180D02*
X134903600Y-127780180D01*
X134903600Y-134210180D02*
X134903600Y-134180180D01*
G04 #@! TO.C,U9*
X171402480Y-108887840D02*
X171402480Y-108387840D01*
X171402480Y-108387840D02*
X170902480Y-108387840D01*
X171427480Y-113612840D02*
X170927480Y-113612840D01*
X171427480Y-113112840D02*
X171427480Y-113612840D01*
X168502480Y-108387840D02*
X168002480Y-108387840D01*
X168002480Y-113587840D02*
X168502480Y-113587840D01*
X168002480Y-108387840D02*
X168002480Y-108887840D01*
G04 #@! TO.C,Y1*
X131229260Y-98893800D02*
X131229260Y-86293800D01*
X136329260Y-98893800D02*
X131229260Y-98893800D01*
X136329260Y-86293800D02*
X136329260Y-98893800D01*
D11*
G04 #@! TO.C,U6*
X144461507Y-98881308D02*
X144461507Y-97856308D01*
X143386507Y-109231308D02*
X143386507Y-108156308D01*
X153736507Y-109231308D02*
X153736507Y-108156308D01*
X153736507Y-98881308D02*
X153736507Y-99956308D01*
X143386507Y-98881308D02*
X143386507Y-99956308D01*
X153736507Y-98881308D02*
X152661507Y-98881308D01*
X153736507Y-109231308D02*
X152661507Y-109231308D01*
X143386507Y-109231308D02*
X144461507Y-109231308D01*
X143386507Y-98881308D02*
X144461507Y-98881308D01*
D10*
G04 #@! TO.C,C72*
X143250020Y-93251400D02*
X143250020Y-94251400D01*
X141550020Y-94251400D02*
X141550020Y-93251400D01*
G04 #@! TO.C,C73*
X143399140Y-94251400D02*
X143399140Y-93251400D01*
X145099140Y-93251400D02*
X145099140Y-94251400D01*
G04 #@! TO.C,C75*
X127485520Y-85301720D02*
X128485520Y-85301720D01*
X128485520Y-87001720D02*
X127485520Y-87001720D01*
G04 #@! TO.C,C80*
X104978279Y-100946641D02*
X103978279Y-100946641D01*
X103978279Y-99246641D02*
X104978279Y-99246641D01*
G04 #@! TO.C,C84*
X107613721Y-99217059D02*
X108613721Y-99217059D01*
X108613721Y-100917059D02*
X107613721Y-100917059D01*
G04 #@! TO.C,C85*
X104978279Y-102881941D02*
X103978279Y-102881941D01*
X103978279Y-101181941D02*
X104978279Y-101181941D01*
G04 #@! TO.C,C87*
X176144820Y-82306540D02*
X176144820Y-81306540D01*
X177844820Y-81306540D02*
X177844820Y-82306540D01*
G04 #@! TO.C,C88*
X172297460Y-92766260D02*
X172297460Y-93766260D01*
X170597460Y-93766260D02*
X170597460Y-92766260D01*
G04 #@! TO.C,C89*
X176370880Y-90106120D02*
X176370880Y-89106120D01*
X178070880Y-89106120D02*
X178070880Y-90106120D01*
G04 #@! TO.C,C90*
X170372140Y-89106120D02*
X170372140Y-90106120D01*
X168672140Y-90106120D02*
X168672140Y-89106120D01*
G04 #@! TO.C,C91*
X177629048Y-77588367D02*
X176629048Y-77588367D01*
X176629048Y-75888367D02*
X177629048Y-75888367D01*
G04 #@! TO.C,C92*
X164286459Y-81310319D02*
X164286459Y-82310319D01*
X162586459Y-82310319D02*
X162586459Y-81310319D01*
G04 #@! TO.C,C94*
X124244620Y-90866520D02*
X124944620Y-90866520D01*
X124944620Y-89666520D02*
X124244620Y-89666520D01*
G04 #@! TO.C,C97*
X176175721Y-92769681D02*
X176175721Y-93769681D01*
X174475721Y-93769681D02*
X174475721Y-92769681D01*
G04 #@! TO.C,C98*
X176370880Y-93766260D02*
X176370880Y-92766260D01*
X178070880Y-92766260D02*
X178070880Y-93766260D01*
G04 #@! TO.C,C99*
X160384860Y-81338800D02*
X160384860Y-82338800D01*
X158684860Y-82338800D02*
X158684860Y-81338800D01*
G04 #@! TO.C,C100*
X173007928Y-75901067D02*
X174007928Y-75901067D01*
X174007928Y-77601067D02*
X173007928Y-77601067D01*
G04 #@! TO.C,C102*
X172258620Y-82321020D02*
X172258620Y-81321020D01*
X173958620Y-81321020D02*
X173958620Y-82321020D01*
G04 #@! TO.C,C103*
X176641748Y-73956607D02*
X177641748Y-73956607D01*
X177641748Y-75656607D02*
X176641748Y-75656607D01*
G04 #@! TO.C,C105*
X127198640Y-92299080D02*
X127898640Y-92299080D01*
X127898640Y-91099080D02*
X127198640Y-91099080D01*
G04 #@! TO.C,C108*
X166196380Y-81305780D02*
X166196380Y-82305780D01*
X164496380Y-82305780D02*
X164496380Y-81305780D01*
G04 #@! TO.C,C109*
X174475721Y-90105381D02*
X174475721Y-89105381D01*
X176175721Y-89105381D02*
X176175721Y-90105381D01*
G04 #@! TO.C,C110*
X174271901Y-92769681D02*
X174271901Y-93769681D01*
X172571901Y-93769681D02*
X172571901Y-92769681D01*
G04 #@! TO.C,C111*
X181158260Y-105639500D02*
X182158260Y-105639500D01*
X182158260Y-107339500D02*
X181158260Y-107339500D01*
G04 #@! TO.C,C112*
X160638120Y-85983700D02*
X160638120Y-84983700D01*
X162338120Y-84983700D02*
X162338120Y-85983700D01*
G04 #@! TO.C,C113*
X170051899Y-81323319D02*
X170051899Y-82323319D01*
X168351899Y-82323319D02*
X168351899Y-81323319D01*
G04 #@! TO.C,C114*
X172304581Y-89105381D02*
X172304581Y-90105381D01*
X170604581Y-90105381D02*
X170604581Y-89105381D01*
G04 #@! TO.C,C116*
X127896100Y-89661440D02*
X127196100Y-89661440D01*
X127196100Y-90861440D02*
X127896100Y-90861440D01*
G04 #@! TO.C,C119*
X164506540Y-85991320D02*
X164506540Y-84991320D01*
X166206540Y-84991320D02*
X166206540Y-85991320D01*
G04 #@! TO.C,C120*
X168672140Y-93773880D02*
X168672140Y-92773880D01*
X170372140Y-92773880D02*
X170372140Y-93773880D01*
G04 #@! TO.C,C121*
X162578680Y-85991320D02*
X162578680Y-84991320D01*
X164278680Y-84991320D02*
X164278680Y-85991320D01*
G04 #@! TO.C,C122*
X175911880Y-84978620D02*
X175911880Y-85978620D01*
X174211880Y-85978620D02*
X174211880Y-84978620D01*
G04 #@! TO.C,C123*
X160395020Y-84983700D02*
X160395020Y-85983700D01*
X158695020Y-85983700D02*
X158695020Y-84983700D01*
G04 #@! TO.C,C125*
X124944620Y-91101620D02*
X124244620Y-91101620D01*
X124244620Y-92301620D02*
X124944620Y-92301620D01*
G04 #@! TO.C,C127*
X178505740Y-107344580D02*
X177505740Y-107344580D01*
X177505740Y-105644580D02*
X178505740Y-105644580D01*
G04 #@! TO.C,C128*
X181176040Y-111448480D02*
X182176040Y-111448480D01*
X182176040Y-113148480D02*
X181176040Y-113148480D01*
G04 #@! TO.C,C129*
X171987580Y-84978620D02*
X171987580Y-85978620D01*
X170287580Y-85978620D02*
X170287580Y-84978620D01*
G04 #@! TO.C,C130*
X177515499Y-109488621D02*
X178515499Y-109488621D01*
X178515499Y-111188621D02*
X177515499Y-111188621D01*
G04 #@! TO.C,C131*
X182165361Y-111175239D02*
X181165361Y-111175239D01*
X181165361Y-109475239D02*
X182165361Y-109475239D01*
G04 #@! TO.C,C132*
X172271320Y-85978620D02*
X172271320Y-84978620D01*
X173971320Y-84978620D02*
X173971320Y-85978620D01*
G04 #@! TO.C,C135*
X177515499Y-111453401D02*
X178515499Y-111453401D01*
X178515499Y-113153401D02*
X177515499Y-113153401D01*
G04 #@! TO.C,C136*
X177502799Y-107554321D02*
X178502799Y-107554321D01*
X178502799Y-109254321D02*
X177502799Y-109254321D01*
G04 #@! TO.C,C137*
X181152661Y-107540939D02*
X182152661Y-107540939D01*
X182152661Y-109240939D02*
X181152661Y-109240939D01*
G04 #@! TO.C,C138*
X173999780Y-79513800D02*
X172999780Y-79513800D01*
X172999780Y-77813800D02*
X173999780Y-77813800D01*
G04 #@! TO.C,C139*
X170044480Y-84993860D02*
X170044480Y-85993860D01*
X168344480Y-85993860D02*
X168344480Y-84993860D01*
G04 #@! TO.C,C140*
X176639600Y-77798560D02*
X177639600Y-77798560D01*
X177639600Y-79498560D02*
X176639600Y-79498560D01*
G04 #@! TO.C,C145*
X156299420Y-81384700D02*
X156999420Y-81384700D01*
X156999420Y-80184700D02*
X156299420Y-80184700D01*
G04 #@! TO.C,C148*
X166414960Y-135038280D02*
X164414960Y-135038280D01*
X164414960Y-132078280D02*
X166414960Y-132078280D01*
G04 #@! TO.C,C150*
X173020628Y-73969307D02*
X174020628Y-73969307D01*
X174020628Y-75669307D02*
X173020628Y-75669307D01*
G04 #@! TO.C,C151*
X162333040Y-81303240D02*
X162333040Y-82303240D01*
X160633040Y-82303240D02*
X160633040Y-81303240D01*
G04 #@! TO.C,C155*
X156966400Y-81642660D02*
X156266400Y-81642660D01*
X156266400Y-82842660D02*
X156966400Y-82842660D01*
G04 #@! TO.C,C159*
X156940819Y-84612481D02*
X156240819Y-84612481D01*
X156240819Y-85812481D02*
X156940819Y-85812481D01*
G04 #@! TO.C,C160*
X177839740Y-84996400D02*
X177839740Y-85996400D01*
X176139740Y-85996400D02*
X176139740Y-84996400D01*
G04 #@! TO.C,C161*
X174206800Y-82321020D02*
X174206800Y-81321020D01*
X175906800Y-81321020D02*
X175906800Y-82321020D01*
G04 #@! TO.C,C167*
X156266400Y-84338720D02*
X156966400Y-84338720D01*
X156966400Y-83138720D02*
X156266400Y-83138720D01*
G04 #@! TO.C,C170*
X171992660Y-81336260D02*
X171992660Y-82336260D01*
X170292660Y-82336260D02*
X170292660Y-81336260D01*
G04 #@! TO.C,C171*
X172571901Y-90105381D02*
X172571901Y-89105381D01*
X174271901Y-89105381D02*
X174271901Y-90105381D01*
G04 #@! TO.C,C179*
X166452180Y-82323560D02*
X166452180Y-81323560D01*
X168152180Y-81323560D02*
X168152180Y-82323560D01*
G04 #@! TO.C,C180*
X166447100Y-85993860D02*
X166447100Y-84993860D01*
X168147100Y-84993860D02*
X168147100Y-85993860D01*
G04 #@! TO.C,C181*
X156943540Y-86029240D02*
X156243540Y-86029240D01*
X156243540Y-87229240D02*
X156943540Y-87229240D01*
G04 #@! TO.C,C219*
X107613721Y-101152359D02*
X108613721Y-101152359D01*
X108613721Y-102852359D02*
X107613721Y-102852359D01*
G04 #@! TO.C,D3*
X156778480Y-115255420D02*
X154678480Y-115255420D01*
X156778480Y-116255420D02*
X154678480Y-116255420D01*
X156778480Y-115255420D02*
X156778480Y-116255420D01*
G04 #@! TO.C,D4*
X156778480Y-116736240D02*
X156778480Y-117736240D01*
X156778480Y-117736240D02*
X154678480Y-117736240D01*
X156778480Y-116736240D02*
X154678480Y-116736240D01*
G04 #@! TO.C,D5*
X137065540Y-105346880D02*
X137065540Y-106346880D01*
X137065540Y-106346880D02*
X134965540Y-106346880D01*
X137065540Y-105346880D02*
X134965540Y-105346880D01*
G04 #@! TO.C,R7*
X147603620Y-96445260D02*
X147603620Y-96945260D01*
X146543620Y-96945260D02*
X146543620Y-96445260D01*
G04 #@! TO.C,R8*
X151659747Y-95830408D02*
X152859747Y-95830408D01*
X152859747Y-94070408D02*
X151659747Y-94070408D01*
G04 #@! TO.C,R15*
X165024360Y-106785520D02*
X163824360Y-106785520D01*
X163824360Y-108545520D02*
X165024360Y-108545520D01*
G04 #@! TO.C,R23*
X151627280Y-116414440D02*
X152827280Y-116414440D01*
X152827280Y-114654440D02*
X151627280Y-114654440D01*
G04 #@! TO.C,R24*
X152827280Y-116602620D02*
X151627280Y-116602620D01*
X151627280Y-118362620D02*
X152827280Y-118362620D01*
G04 #@! TO.C,R25*
X124448680Y-129930600D02*
X124448680Y-131130600D01*
X126208680Y-131130600D02*
X126208680Y-129930600D01*
G04 #@! TO.C,R28*
X136350300Y-106628040D02*
X135150300Y-106628040D01*
X135150300Y-108388040D02*
X136350300Y-108388040D01*
G04 #@! TO.C,C212*
X185657120Y-91193240D02*
X185657120Y-90193240D01*
X187357120Y-90193240D02*
X187357120Y-91193240D01*
G04 #@! TO.C,D19*
X111820480Y-115199540D02*
X111820480Y-116199540D01*
X111820480Y-116199540D02*
X109720480Y-116199540D01*
X111820480Y-115199540D02*
X109720480Y-115199540D01*
G04 #@! TO.C,R46*
X122226960Y-119177520D02*
X121226960Y-119177520D01*
X121226960Y-120537520D02*
X122226960Y-120537520D01*
G04 #@! TO.C,R47*
X122221880Y-120754860D02*
X121221880Y-120754860D01*
X121221880Y-122114860D02*
X122221880Y-122114860D01*
G04 #@! TO.C,R48*
X122224420Y-122311880D02*
X121224420Y-122311880D01*
X121224420Y-123671880D02*
X122224420Y-123671880D01*
G04 #@! TO.C,R49*
X121191400Y-126722420D02*
X122191400Y-126722420D01*
X122191400Y-125362420D02*
X121191400Y-125362420D01*
G04 #@! TO.C,R50*
X122188860Y-126891500D02*
X121188860Y-126891500D01*
X121188860Y-128251500D02*
X122188860Y-128251500D01*
G04 #@! TO.C,R51*
X122193940Y-128438360D02*
X121193940Y-128438360D01*
X121193940Y-129798360D02*
X122193940Y-129798360D01*
G04 #@! TO.C,R52*
X117535240Y-133933820D02*
X117535240Y-132933820D01*
X116175240Y-132933820D02*
X116175240Y-133933820D01*
G04 #@! TO.C,R53*
X116006160Y-133936360D02*
X116006160Y-132936360D01*
X114646160Y-132936360D02*
X114646160Y-133936360D01*
G04 #@! TO.C,R54*
X113122160Y-132954140D02*
X113122160Y-133954140D01*
X114482160Y-133954140D02*
X114482160Y-132954140D01*
G04 #@! TO.C,R55*
X111590540Y-132946520D02*
X111590540Y-133946520D01*
X112950540Y-133946520D02*
X112950540Y-132946520D01*
G04 #@! TO.C,R56*
X111444320Y-133946520D02*
X111444320Y-132946520D01*
X110084320Y-132946520D02*
X110084320Y-133946520D01*
G04 #@! TO.C,R57*
X108555240Y-132938900D02*
X108555240Y-133938900D01*
X109915240Y-133938900D02*
X109915240Y-132938900D01*
G04 #@! TO.C,R58*
X115179220Y-115909640D02*
X116179220Y-115909640D01*
X116179220Y-114549640D02*
X115179220Y-114549640D01*
G04 #@! TO.C,R60*
X104655060Y-129947560D02*
X105855060Y-129947560D01*
X105855060Y-128187560D02*
X104655060Y-128187560D01*
G04 #@! TO.C,R66*
X161330080Y-118842680D02*
X162530080Y-118842680D01*
X162530080Y-117082680D02*
X161330080Y-117082680D01*
G04 #@! TO.C,R71*
X161337700Y-120780700D02*
X162537700Y-120780700D01*
X162537700Y-119020700D02*
X161337700Y-119020700D01*
G04 #@! TO.C,R92*
X111126369Y-113139519D02*
X109926369Y-113139519D01*
X109926369Y-114899519D02*
X111126369Y-114899519D01*
G04 #@! TO.C,R69*
D11*
X162537377Y-124341880D02*
X162870710Y-123865690D01*
X163108805Y-124341880D02*
X163108805Y-123341880D01*
X162727853Y-123341880D01*
X162632615Y-123389500D01*
X162584996Y-123437119D01*
X162537377Y-123532357D01*
X162537377Y-123675214D01*
X162584996Y-123770452D01*
X162632615Y-123818071D01*
X162727853Y-123865690D01*
X163108805Y-123865690D01*
X161680234Y-123341880D02*
X161870710Y-123341880D01*
X161965948Y-123389500D01*
X162013567Y-123437119D01*
X162108805Y-123579976D01*
X162156424Y-123770452D01*
X162156424Y-124151404D01*
X162108805Y-124246642D01*
X162061186Y-124294261D01*
X161965948Y-124341880D01*
X161775472Y-124341880D01*
X161680234Y-124294261D01*
X161632615Y-124246642D01*
X161584996Y-124151404D01*
X161584996Y-123913309D01*
X161632615Y-123818071D01*
X161680234Y-123770452D01*
X161775472Y-123722833D01*
X161965948Y-123722833D01*
X162061186Y-123770452D01*
X162108805Y-123818071D01*
X162156424Y-123913309D01*
X161108805Y-124341880D02*
X160918329Y-124341880D01*
X160823091Y-124294261D01*
X160775472Y-124246642D01*
X160680234Y-124103785D01*
X160632615Y-123913309D01*
X160632615Y-123532357D01*
X160680234Y-123437119D01*
X160727853Y-123389500D01*
X160823091Y-123341880D01*
X161013567Y-123341880D01*
X161108805Y-123389500D01*
X161156424Y-123437119D01*
X161204043Y-123532357D01*
X161204043Y-123770452D01*
X161156424Y-123865690D01*
X161108805Y-123913309D01*
X161013567Y-123960928D01*
X160823091Y-123960928D01*
X160727853Y-123913309D01*
X160680234Y-123865690D01*
X160632615Y-123770452D01*
G04 #@! TO.C,R64*
X162534837Y-121331980D02*
X162868170Y-120855790D01*
X163106265Y-121331980D02*
X163106265Y-120331980D01*
X162725313Y-120331980D01*
X162630075Y-120379600D01*
X162582456Y-120427219D01*
X162534837Y-120522457D01*
X162534837Y-120665314D01*
X162582456Y-120760552D01*
X162630075Y-120808171D01*
X162725313Y-120855790D01*
X163106265Y-120855790D01*
X161677694Y-120331980D02*
X161868170Y-120331980D01*
X161963408Y-120379600D01*
X162011027Y-120427219D01*
X162106265Y-120570076D01*
X162153884Y-120760552D01*
X162153884Y-121141504D01*
X162106265Y-121236742D01*
X162058646Y-121284361D01*
X161963408Y-121331980D01*
X161772932Y-121331980D01*
X161677694Y-121284361D01*
X161630075Y-121236742D01*
X161582456Y-121141504D01*
X161582456Y-120903409D01*
X161630075Y-120808171D01*
X161677694Y-120760552D01*
X161772932Y-120712933D01*
X161963408Y-120712933D01*
X162058646Y-120760552D01*
X162106265Y-120808171D01*
X162153884Y-120903409D01*
X160725313Y-120665314D02*
X160725313Y-121331980D01*
X160963408Y-120284361D02*
X161201503Y-120998647D01*
X160582456Y-120998647D01*
G04 #@! TO.C,U7*
X134321300Y-101328315D02*
X135130824Y-101328315D01*
X135226062Y-101375934D01*
X135273681Y-101423553D01*
X135321300Y-101518791D01*
X135321300Y-101709267D01*
X135273681Y-101804505D01*
X135226062Y-101852124D01*
X135130824Y-101899743D01*
X134321300Y-101899743D01*
X134321300Y-102280696D02*
X134321300Y-102947362D01*
X135321300Y-102518791D01*
G04 #@! TO.C,U1*
X157007888Y-125571545D02*
X157817412Y-125571545D01*
X157912650Y-125619164D01*
X157960269Y-125666783D01*
X158007888Y-125762021D01*
X158007888Y-125952497D01*
X157960269Y-126047735D01*
X157912650Y-126095354D01*
X157817412Y-126142973D01*
X157007888Y-126142973D01*
X158007888Y-127142973D02*
X158007888Y-126571545D01*
X158007888Y-126857259D02*
X157007888Y-126857259D01*
X157150746Y-126762021D01*
X157245984Y-126666783D01*
X157293603Y-126571545D01*
G04 #@! TO.C,C1*
X140336542Y-142073333D02*
X140384161Y-142025714D01*
X140431780Y-141882857D01*
X140431780Y-141787619D01*
X140384161Y-141644761D01*
X140288923Y-141549523D01*
X140193685Y-141501904D01*
X140003209Y-141454285D01*
X139860352Y-141454285D01*
X139669876Y-141501904D01*
X139574638Y-141549523D01*
X139479400Y-141644761D01*
X139431780Y-141787619D01*
X139431780Y-141882857D01*
X139479400Y-142025714D01*
X139527019Y-142073333D01*
X140431780Y-143025714D02*
X140431780Y-142454285D01*
X140431780Y-142740000D02*
X139431780Y-142740000D01*
X139574638Y-142644761D01*
X139669876Y-142549523D01*
X139717495Y-142454285D01*
G04 #@! TO.C,C2*
X141136642Y-142073333D02*
X141184261Y-142025714D01*
X141231880Y-141882857D01*
X141231880Y-141787619D01*
X141184261Y-141644761D01*
X141089023Y-141549523D01*
X140993785Y-141501904D01*
X140803309Y-141454285D01*
X140660452Y-141454285D01*
X140469976Y-141501904D01*
X140374738Y-141549523D01*
X140279500Y-141644761D01*
X140231880Y-141787619D01*
X140231880Y-141882857D01*
X140279500Y-142025714D01*
X140327119Y-142073333D01*
X140327119Y-142454285D02*
X140279500Y-142501904D01*
X140231880Y-142597142D01*
X140231880Y-142835238D01*
X140279500Y-142930476D01*
X140327119Y-142978095D01*
X140422357Y-143025714D01*
X140517595Y-143025714D01*
X140660452Y-142978095D01*
X141231880Y-142406666D01*
X141231880Y-143025714D01*
G04 #@! TO.C,C3*
X143333742Y-142073333D02*
X143381361Y-142025714D01*
X143428980Y-141882857D01*
X143428980Y-141787619D01*
X143381361Y-141644761D01*
X143286123Y-141549523D01*
X143190885Y-141501904D01*
X143000409Y-141454285D01*
X142857552Y-141454285D01*
X142667076Y-141501904D01*
X142571838Y-141549523D01*
X142476600Y-141644761D01*
X142428980Y-141787619D01*
X142428980Y-141882857D01*
X142476600Y-142025714D01*
X142524219Y-142073333D01*
X142428980Y-142406666D02*
X142428980Y-143025714D01*
X142809933Y-142692380D01*
X142809933Y-142835238D01*
X142857552Y-142930476D01*
X142905171Y-142978095D01*
X143000409Y-143025714D01*
X143238504Y-143025714D01*
X143333742Y-142978095D01*
X143381361Y-142930476D01*
X143428980Y-142835238D01*
X143428980Y-142549523D01*
X143381361Y-142454285D01*
X143333742Y-142406666D01*
G04 #@! TO.C,C4*
X144133842Y-142073333D02*
X144181461Y-142025714D01*
X144229080Y-141882857D01*
X144229080Y-141787619D01*
X144181461Y-141644761D01*
X144086223Y-141549523D01*
X143990985Y-141501904D01*
X143800509Y-141454285D01*
X143657652Y-141454285D01*
X143467176Y-141501904D01*
X143371938Y-141549523D01*
X143276700Y-141644761D01*
X143229080Y-141787619D01*
X143229080Y-141882857D01*
X143276700Y-142025714D01*
X143324319Y-142073333D01*
X143562414Y-142930476D02*
X144229080Y-142930476D01*
X143181461Y-142692380D02*
X143895747Y-142454285D01*
X143895747Y-143073333D01*
G04 #@! TO.C,C5*
X148337542Y-142073333D02*
X148385161Y-142025714D01*
X148432780Y-141882857D01*
X148432780Y-141787619D01*
X148385161Y-141644761D01*
X148289923Y-141549523D01*
X148194685Y-141501904D01*
X148004209Y-141454285D01*
X147861352Y-141454285D01*
X147670876Y-141501904D01*
X147575638Y-141549523D01*
X147480400Y-141644761D01*
X147432780Y-141787619D01*
X147432780Y-141882857D01*
X147480400Y-142025714D01*
X147528019Y-142073333D01*
X147432780Y-142978095D02*
X147432780Y-142501904D01*
X147908971Y-142454285D01*
X147861352Y-142501904D01*
X147813733Y-142597142D01*
X147813733Y-142835238D01*
X147861352Y-142930476D01*
X147908971Y-142978095D01*
X148004209Y-143025714D01*
X148242304Y-143025714D01*
X148337542Y-142978095D01*
X148385161Y-142930476D01*
X148432780Y-142835238D01*
X148432780Y-142597142D01*
X148385161Y-142501904D01*
X148337542Y-142454285D01*
G04 #@! TO.C,C6*
X149137642Y-142073333D02*
X149185261Y-142025714D01*
X149232880Y-141882857D01*
X149232880Y-141787619D01*
X149185261Y-141644761D01*
X149090023Y-141549523D01*
X148994785Y-141501904D01*
X148804309Y-141454285D01*
X148661452Y-141454285D01*
X148470976Y-141501904D01*
X148375738Y-141549523D01*
X148280500Y-141644761D01*
X148232880Y-141787619D01*
X148232880Y-141882857D01*
X148280500Y-142025714D01*
X148328119Y-142073333D01*
X148232880Y-142930476D02*
X148232880Y-142740000D01*
X148280500Y-142644761D01*
X148328119Y-142597142D01*
X148470976Y-142501904D01*
X148661452Y-142454285D01*
X149042404Y-142454285D01*
X149137642Y-142501904D01*
X149185261Y-142549523D01*
X149232880Y-142644761D01*
X149232880Y-142835238D01*
X149185261Y-142930476D01*
X149137642Y-142978095D01*
X149042404Y-143025714D01*
X148804309Y-143025714D01*
X148709071Y-142978095D01*
X148661452Y-142930476D01*
X148613833Y-142835238D01*
X148613833Y-142644761D01*
X148661452Y-142549523D01*
X148709071Y-142501904D01*
X148804309Y-142454285D01*
G04 #@! TO.C,C7*
X152338042Y-142073333D02*
X152385661Y-142025714D01*
X152433280Y-141882857D01*
X152433280Y-141787619D01*
X152385661Y-141644761D01*
X152290423Y-141549523D01*
X152195185Y-141501904D01*
X152004709Y-141454285D01*
X151861852Y-141454285D01*
X151671376Y-141501904D01*
X151576138Y-141549523D01*
X151480900Y-141644761D01*
X151433280Y-141787619D01*
X151433280Y-141882857D01*
X151480900Y-142025714D01*
X151528519Y-142073333D01*
X151433280Y-142406666D02*
X151433280Y-143073333D01*
X152433280Y-142644761D01*
G04 #@! TO.C,C8*
X153138142Y-142073333D02*
X153185761Y-142025714D01*
X153233380Y-141882857D01*
X153233380Y-141787619D01*
X153185761Y-141644761D01*
X153090523Y-141549523D01*
X152995285Y-141501904D01*
X152804809Y-141454285D01*
X152661952Y-141454285D01*
X152471476Y-141501904D01*
X152376238Y-141549523D01*
X152281000Y-141644761D01*
X152233380Y-141787619D01*
X152233380Y-141882857D01*
X152281000Y-142025714D01*
X152328619Y-142073333D01*
X152661952Y-142644761D02*
X152614333Y-142549523D01*
X152566714Y-142501904D01*
X152471476Y-142454285D01*
X152423857Y-142454285D01*
X152328619Y-142501904D01*
X152281000Y-142549523D01*
X152233380Y-142644761D01*
X152233380Y-142835238D01*
X152281000Y-142930476D01*
X152328619Y-142978095D01*
X152423857Y-143025714D01*
X152471476Y-143025714D01*
X152566714Y-142978095D01*
X152614333Y-142930476D01*
X152661952Y-142835238D01*
X152661952Y-142644761D01*
X152709571Y-142549523D01*
X152757190Y-142501904D01*
X152852428Y-142454285D01*
X153042904Y-142454285D01*
X153138142Y-142501904D01*
X153185761Y-142549523D01*
X153233380Y-142644761D01*
X153233380Y-142835238D01*
X153185761Y-142930476D01*
X153138142Y-142978095D01*
X153042904Y-143025714D01*
X152852428Y-143025714D01*
X152757190Y-142978095D01*
X152709571Y-142930476D01*
X152661952Y-142835238D01*
G04 #@! TO.C,C9*
X156338542Y-142073333D02*
X156386161Y-142025714D01*
X156433780Y-141882857D01*
X156433780Y-141787619D01*
X156386161Y-141644761D01*
X156290923Y-141549523D01*
X156195685Y-141501904D01*
X156005209Y-141454285D01*
X155862352Y-141454285D01*
X155671876Y-141501904D01*
X155576638Y-141549523D01*
X155481400Y-141644761D01*
X155433780Y-141787619D01*
X155433780Y-141882857D01*
X155481400Y-142025714D01*
X155529019Y-142073333D01*
X156433780Y-142549523D02*
X156433780Y-142740000D01*
X156386161Y-142835238D01*
X156338542Y-142882857D01*
X156195685Y-142978095D01*
X156005209Y-143025714D01*
X155624257Y-143025714D01*
X155529019Y-142978095D01*
X155481400Y-142930476D01*
X155433780Y-142835238D01*
X155433780Y-142644761D01*
X155481400Y-142549523D01*
X155529019Y-142501904D01*
X155624257Y-142454285D01*
X155862352Y-142454285D01*
X155957590Y-142501904D01*
X156005209Y-142549523D01*
X156052828Y-142644761D01*
X156052828Y-142835238D01*
X156005209Y-142930476D01*
X155957590Y-142978095D01*
X155862352Y-143025714D01*
G04 #@! TO.C,C10*
X157138642Y-141597142D02*
X157186261Y-141549523D01*
X157233880Y-141406666D01*
X157233880Y-141311428D01*
X157186261Y-141168571D01*
X157091023Y-141073333D01*
X156995785Y-141025714D01*
X156805309Y-140978095D01*
X156662452Y-140978095D01*
X156471976Y-141025714D01*
X156376738Y-141073333D01*
X156281500Y-141168571D01*
X156233880Y-141311428D01*
X156233880Y-141406666D01*
X156281500Y-141549523D01*
X156329119Y-141597142D01*
X157233880Y-142549523D02*
X157233880Y-141978095D01*
X157233880Y-142263809D02*
X156233880Y-142263809D01*
X156376738Y-142168571D01*
X156471976Y-142073333D01*
X156519595Y-141978095D01*
X156233880Y-143168571D02*
X156233880Y-143263809D01*
X156281500Y-143359047D01*
X156329119Y-143406666D01*
X156424357Y-143454285D01*
X156614833Y-143501904D01*
X156852928Y-143501904D01*
X157043404Y-143454285D01*
X157138642Y-143406666D01*
X157186261Y-143359047D01*
X157233880Y-143263809D01*
X157233880Y-143168571D01*
X157186261Y-143073333D01*
X157138642Y-143025714D01*
X157043404Y-142978095D01*
X156852928Y-142930476D01*
X156614833Y-142930476D01*
X156424357Y-142978095D01*
X156329119Y-143025714D01*
X156281500Y-143073333D01*
X156233880Y-143168571D01*
G04 #@! TO.C,C12*
X187512402Y-95077042D02*
X187560021Y-95029423D01*
X187607640Y-94886566D01*
X187607640Y-94791328D01*
X187560021Y-94648471D01*
X187464783Y-94553233D01*
X187369545Y-94505614D01*
X187179069Y-94457995D01*
X187036212Y-94457995D01*
X186845736Y-94505614D01*
X186750498Y-94553233D01*
X186655260Y-94648471D01*
X186607640Y-94791328D01*
X186607640Y-94886566D01*
X186655260Y-95029423D01*
X186702879Y-95077042D01*
X187607640Y-96029423D02*
X187607640Y-95457995D01*
X187607640Y-95743709D02*
X186607640Y-95743709D01*
X186750498Y-95648471D01*
X186845736Y-95553233D01*
X186893355Y-95457995D01*
X186702879Y-96410376D02*
X186655260Y-96457995D01*
X186607640Y-96553233D01*
X186607640Y-96791328D01*
X186655260Y-96886566D01*
X186702879Y-96934185D01*
X186798117Y-96981804D01*
X186893355Y-96981804D01*
X187036212Y-96934185D01*
X187607640Y-96362757D01*
X187607640Y-96981804D01*
G04 #@! TO.C,C210*
X193760774Y-94595772D02*
X193808393Y-94548153D01*
X193856012Y-94405296D01*
X193856012Y-94310058D01*
X193808393Y-94167200D01*
X193713155Y-94071962D01*
X193617917Y-94024343D01*
X193427441Y-93976724D01*
X193284584Y-93976724D01*
X193094108Y-94024343D01*
X192998870Y-94071962D01*
X192903632Y-94167200D01*
X192856012Y-94310058D01*
X192856012Y-94405296D01*
X192903632Y-94548153D01*
X192951251Y-94595772D01*
X192951251Y-94976724D02*
X192903632Y-95024343D01*
X192856012Y-95119581D01*
X192856012Y-95357677D01*
X192903632Y-95452915D01*
X192951251Y-95500534D01*
X193046489Y-95548153D01*
X193141727Y-95548153D01*
X193284584Y-95500534D01*
X193856012Y-94929105D01*
X193856012Y-95548153D01*
X193856012Y-96500534D02*
X193856012Y-95929105D01*
X193856012Y-96214820D02*
X192856012Y-96214820D01*
X192998870Y-96119581D01*
X193094108Y-96024343D01*
X193141727Y-95929105D01*
X192856012Y-97119581D02*
X192856012Y-97214820D01*
X192903632Y-97310058D01*
X192951251Y-97357677D01*
X193046489Y-97405296D01*
X193236965Y-97452915D01*
X193475060Y-97452915D01*
X193665536Y-97405296D01*
X193760774Y-97357677D01*
X193808393Y-97310058D01*
X193856012Y-97214820D01*
X193856012Y-97119581D01*
X193808393Y-97024343D01*
X193760774Y-96976724D01*
X193665536Y-96929105D01*
X193475060Y-96881486D01*
X193236965Y-96881486D01*
X193046489Y-96929105D01*
X192951251Y-96976724D01*
X192903632Y-97024343D01*
X192856012Y-97119581D01*
G04 #@! TO.C,C211*
X190628982Y-94595772D02*
X190676601Y-94548153D01*
X190724220Y-94405296D01*
X190724220Y-94310058D01*
X190676601Y-94167200D01*
X190581363Y-94071962D01*
X190486125Y-94024343D01*
X190295649Y-93976724D01*
X190152792Y-93976724D01*
X189962316Y-94024343D01*
X189867078Y-94071962D01*
X189771840Y-94167200D01*
X189724220Y-94310058D01*
X189724220Y-94405296D01*
X189771840Y-94548153D01*
X189819459Y-94595772D01*
X189819459Y-94976724D02*
X189771840Y-95024343D01*
X189724220Y-95119581D01*
X189724220Y-95357677D01*
X189771840Y-95452915D01*
X189819459Y-95500534D01*
X189914697Y-95548153D01*
X190009935Y-95548153D01*
X190152792Y-95500534D01*
X190724220Y-94929105D01*
X190724220Y-95548153D01*
X190724220Y-96500534D02*
X190724220Y-95929105D01*
X190724220Y-96214820D02*
X189724220Y-96214820D01*
X189867078Y-96119581D01*
X189962316Y-96024343D01*
X190009935Y-95929105D01*
X190724220Y-97452915D02*
X190724220Y-96881486D01*
X190724220Y-97167200D02*
X189724220Y-97167200D01*
X189867078Y-97071962D01*
X189962316Y-96976724D01*
X190009935Y-96881486D01*
G04 #@! TO.C,L4*
X152441653Y-91319048D02*
X152917844Y-91319048D01*
X152917844Y-90319048D01*
X151679748Y-90652382D02*
X151679748Y-91319048D01*
X151917844Y-90271429D02*
X152155939Y-90985715D01*
X151536891Y-90985715D01*
G04 #@! TO.C,L5*
X144676700Y-93879333D02*
X144676700Y-93403142D01*
X143676700Y-93403142D01*
X143676700Y-94688857D02*
X143676700Y-94212666D01*
X144152891Y-94165047D01*
X144105272Y-94212666D01*
X144057653Y-94307904D01*
X144057653Y-94546000D01*
X144105272Y-94641238D01*
X144152891Y-94688857D01*
X144248129Y-94736476D01*
X144486224Y-94736476D01*
X144581462Y-94688857D01*
X144629081Y-94641238D01*
X144676700Y-94546000D01*
X144676700Y-94307904D01*
X144629081Y-94212666D01*
X144581462Y-94165047D01*
G04 #@! TO.C,R1*
X161645860Y-129563833D02*
X161169670Y-129230500D01*
X161645860Y-128992404D02*
X160645860Y-128992404D01*
X160645860Y-129373357D01*
X160693480Y-129468595D01*
X160741099Y-129516214D01*
X160836337Y-129563833D01*
X160979194Y-129563833D01*
X161074432Y-129516214D01*
X161122051Y-129468595D01*
X161169670Y-129373357D01*
X161169670Y-128992404D01*
X161645860Y-130516214D02*
X161645860Y-129944785D01*
X161645860Y-130230500D02*
X160645860Y-130230500D01*
X160788718Y-130135261D01*
X160883956Y-130040023D01*
X160931575Y-129944785D01*
G04 #@! TO.C,SW1*
X133006933Y-135434941D02*
X132864076Y-135482560D01*
X132625980Y-135482560D01*
X132530742Y-135434941D01*
X132483123Y-135387322D01*
X132435504Y-135292084D01*
X132435504Y-135196846D01*
X132483123Y-135101608D01*
X132530742Y-135053989D01*
X132625980Y-135006370D01*
X132816457Y-134958751D01*
X132911695Y-134911132D01*
X132959314Y-134863513D01*
X133006933Y-134768275D01*
X133006933Y-134673037D01*
X132959314Y-134577799D01*
X132911695Y-134530180D01*
X132816457Y-134482560D01*
X132578361Y-134482560D01*
X132435504Y-134530180D01*
X132102171Y-134482560D02*
X131864076Y-135482560D01*
X131673600Y-134768275D01*
X131483123Y-135482560D01*
X131245028Y-134482560D01*
X130340266Y-135482560D02*
X130911695Y-135482560D01*
X130625980Y-135482560D02*
X130625980Y-134482560D01*
X130721219Y-134625418D01*
X130816457Y-134720656D01*
X130911695Y-134768275D01*
G04 #@! TO.C,U9*
X169154860Y-110225935D02*
X169964384Y-110225935D01*
X170059622Y-110273554D01*
X170107241Y-110321173D01*
X170154860Y-110416411D01*
X170154860Y-110606887D01*
X170107241Y-110702125D01*
X170059622Y-110749744D01*
X169964384Y-110797363D01*
X169154860Y-110797363D01*
X170154860Y-111321173D02*
X170154860Y-111511649D01*
X170107241Y-111606887D01*
X170059622Y-111654506D01*
X169916765Y-111749744D01*
X169726289Y-111797363D01*
X169345337Y-111797363D01*
X169250099Y-111749744D01*
X169202480Y-111702125D01*
X169154860Y-111606887D01*
X169154860Y-111416411D01*
X169202480Y-111321173D01*
X169250099Y-111273554D01*
X169345337Y-111225935D01*
X169583432Y-111225935D01*
X169678670Y-111273554D01*
X169726289Y-111321173D01*
X169773908Y-111416411D01*
X169773908Y-111606887D01*
X169726289Y-111702125D01*
X169678670Y-111749744D01*
X169583432Y-111797363D01*
G04 #@! TO.C,Y1*
X137305450Y-91717609D02*
X137781640Y-91717609D01*
X136781640Y-91384276D02*
X137305450Y-91717609D01*
X136781640Y-92050942D01*
X137781640Y-92908085D02*
X137781640Y-92336657D01*
X137781640Y-92622371D02*
X136781640Y-92622371D01*
X136924498Y-92527133D01*
X137019736Y-92431895D01*
X137067355Y-92336657D01*
G04 #@! TO.C,U6*
X140813887Y-103294403D02*
X141623411Y-103294403D01*
X141718649Y-103342022D01*
X141766268Y-103389641D01*
X141813887Y-103484879D01*
X141813887Y-103675355D01*
X141766268Y-103770593D01*
X141718649Y-103818212D01*
X141623411Y-103865831D01*
X140813887Y-103865831D01*
X140813887Y-104770593D02*
X140813887Y-104580117D01*
X140861507Y-104484879D01*
X140909126Y-104437260D01*
X141051983Y-104342022D01*
X141242459Y-104294403D01*
X141623411Y-104294403D01*
X141718649Y-104342022D01*
X141766268Y-104389641D01*
X141813887Y-104484879D01*
X141813887Y-104675355D01*
X141766268Y-104770593D01*
X141718649Y-104818212D01*
X141623411Y-104865831D01*
X141385316Y-104865831D01*
X141290078Y-104818212D01*
X141242459Y-104770593D01*
X141194840Y-104675355D01*
X141194840Y-104484879D01*
X141242459Y-104389641D01*
X141290078Y-104342022D01*
X141385316Y-104294403D01*
G04 #@! TO.C,C72*
X144257162Y-93108542D02*
X144304781Y-93060923D01*
X144352400Y-92918066D01*
X144352400Y-92822828D01*
X144304781Y-92679971D01*
X144209543Y-92584733D01*
X144114305Y-92537114D01*
X143923829Y-92489495D01*
X143780972Y-92489495D01*
X143590496Y-92537114D01*
X143495258Y-92584733D01*
X143400020Y-92679971D01*
X143352400Y-92822828D01*
X143352400Y-92918066D01*
X143400020Y-93060923D01*
X143447639Y-93108542D01*
X143352400Y-93441876D02*
X143352400Y-94108542D01*
X144352400Y-93679971D01*
X143447639Y-94441876D02*
X143400020Y-94489495D01*
X143352400Y-94584733D01*
X143352400Y-94822828D01*
X143400020Y-94918066D01*
X143447639Y-94965685D01*
X143542877Y-95013304D01*
X143638115Y-95013304D01*
X143780972Y-94965685D01*
X144352400Y-94394257D01*
X144352400Y-95013304D01*
G04 #@! TO.C,C73*
X146106282Y-93108542D02*
X146153901Y-93060923D01*
X146201520Y-92918066D01*
X146201520Y-92822828D01*
X146153901Y-92679971D01*
X146058663Y-92584733D01*
X145963425Y-92537114D01*
X145772949Y-92489495D01*
X145630092Y-92489495D01*
X145439616Y-92537114D01*
X145344378Y-92584733D01*
X145249140Y-92679971D01*
X145201520Y-92822828D01*
X145201520Y-92918066D01*
X145249140Y-93060923D01*
X145296759Y-93108542D01*
X145201520Y-93441876D02*
X145201520Y-94108542D01*
X146201520Y-93679971D01*
X145201520Y-94394257D02*
X145201520Y-95013304D01*
X145582473Y-94679971D01*
X145582473Y-94822828D01*
X145630092Y-94918066D01*
X145677711Y-94965685D01*
X145772949Y-95013304D01*
X146011044Y-95013304D01*
X146106282Y-94965685D01*
X146153901Y-94918066D01*
X146201520Y-94822828D01*
X146201520Y-94537114D01*
X146153901Y-94441876D01*
X146106282Y-94394257D01*
G04 #@! TO.C,C75*
X128628377Y-88008862D02*
X128675996Y-88056481D01*
X128818853Y-88104100D01*
X128914091Y-88104100D01*
X129056948Y-88056481D01*
X129152186Y-87961243D01*
X129199805Y-87866005D01*
X129247424Y-87675529D01*
X129247424Y-87532672D01*
X129199805Y-87342196D01*
X129152186Y-87246958D01*
X129056948Y-87151720D01*
X128914091Y-87104100D01*
X128818853Y-87104100D01*
X128675996Y-87151720D01*
X128628377Y-87199339D01*
X128295043Y-87104100D02*
X127628377Y-87104100D01*
X128056948Y-88104100D01*
X126771234Y-87104100D02*
X127247424Y-87104100D01*
X127295043Y-87580291D01*
X127247424Y-87532672D01*
X127152186Y-87485053D01*
X126914091Y-87485053D01*
X126818853Y-87532672D01*
X126771234Y-87580291D01*
X126723615Y-87675529D01*
X126723615Y-87913624D01*
X126771234Y-88008862D01*
X126818853Y-88056481D01*
X126914091Y-88104100D01*
X127152186Y-88104100D01*
X127247424Y-88056481D01*
X127295043Y-88008862D01*
G04 #@! TO.C,C80*
X105121136Y-98953783D02*
X105168755Y-99001402D01*
X105311612Y-99049021D01*
X105406850Y-99049021D01*
X105549707Y-99001402D01*
X105644945Y-98906164D01*
X105692564Y-98810926D01*
X105740183Y-98620450D01*
X105740183Y-98477593D01*
X105692564Y-98287117D01*
X105644945Y-98191879D01*
X105549707Y-98096641D01*
X105406850Y-98049021D01*
X105311612Y-98049021D01*
X105168755Y-98096641D01*
X105121136Y-98144260D01*
X104549707Y-98477593D02*
X104644945Y-98429974D01*
X104692564Y-98382355D01*
X104740183Y-98287117D01*
X104740183Y-98239498D01*
X104692564Y-98144260D01*
X104644945Y-98096641D01*
X104549707Y-98049021D01*
X104359231Y-98049021D01*
X104263993Y-98096641D01*
X104216374Y-98144260D01*
X104168755Y-98239498D01*
X104168755Y-98287117D01*
X104216374Y-98382355D01*
X104263993Y-98429974D01*
X104359231Y-98477593D01*
X104549707Y-98477593D01*
X104644945Y-98525212D01*
X104692564Y-98572831D01*
X104740183Y-98668069D01*
X104740183Y-98858545D01*
X104692564Y-98953783D01*
X104644945Y-99001402D01*
X104549707Y-99049021D01*
X104359231Y-99049021D01*
X104263993Y-99001402D01*
X104216374Y-98953783D01*
X104168755Y-98858545D01*
X104168755Y-98668069D01*
X104216374Y-98572831D01*
X104263993Y-98525212D01*
X104359231Y-98477593D01*
X103549707Y-98049021D02*
X103454469Y-98049021D01*
X103359231Y-98096641D01*
X103311612Y-98144260D01*
X103263993Y-98239498D01*
X103216374Y-98429974D01*
X103216374Y-98668069D01*
X103263993Y-98858545D01*
X103311612Y-98953783D01*
X103359231Y-99001402D01*
X103454469Y-99049021D01*
X103549707Y-99049021D01*
X103644945Y-99001402D01*
X103692564Y-98953783D01*
X103740183Y-98858545D01*
X103787802Y-98668069D01*
X103787802Y-98429974D01*
X103740183Y-98239498D01*
X103692564Y-98144260D01*
X103644945Y-98096641D01*
X103549707Y-98049021D01*
G04 #@! TO.C,C84*
X108756578Y-101924201D02*
X108804197Y-101971820D01*
X108947054Y-102019439D01*
X109042292Y-102019439D01*
X109185149Y-101971820D01*
X109280387Y-101876582D01*
X109328006Y-101781344D01*
X109375625Y-101590868D01*
X109375625Y-101448011D01*
X109328006Y-101257535D01*
X109280387Y-101162297D01*
X109185149Y-101067059D01*
X109042292Y-101019439D01*
X108947054Y-101019439D01*
X108804197Y-101067059D01*
X108756578Y-101114678D01*
X108185149Y-101448011D02*
X108280387Y-101400392D01*
X108328006Y-101352773D01*
X108375625Y-101257535D01*
X108375625Y-101209916D01*
X108328006Y-101114678D01*
X108280387Y-101067059D01*
X108185149Y-101019439D01*
X107994673Y-101019439D01*
X107899435Y-101067059D01*
X107851816Y-101114678D01*
X107804197Y-101209916D01*
X107804197Y-101257535D01*
X107851816Y-101352773D01*
X107899435Y-101400392D01*
X107994673Y-101448011D01*
X108185149Y-101448011D01*
X108280387Y-101495630D01*
X108328006Y-101543249D01*
X108375625Y-101638487D01*
X108375625Y-101828963D01*
X108328006Y-101924201D01*
X108280387Y-101971820D01*
X108185149Y-102019439D01*
X107994673Y-102019439D01*
X107899435Y-101971820D01*
X107851816Y-101924201D01*
X107804197Y-101828963D01*
X107804197Y-101638487D01*
X107851816Y-101543249D01*
X107899435Y-101495630D01*
X107994673Y-101448011D01*
X106947054Y-101352773D02*
X106947054Y-102019439D01*
X107185149Y-100971820D02*
X107423244Y-101686106D01*
X106804197Y-101686106D01*
G04 #@! TO.C,C85*
X105121136Y-100889083D02*
X105168755Y-100936702D01*
X105311612Y-100984321D01*
X105406850Y-100984321D01*
X105549707Y-100936702D01*
X105644945Y-100841464D01*
X105692564Y-100746226D01*
X105740183Y-100555750D01*
X105740183Y-100412893D01*
X105692564Y-100222417D01*
X105644945Y-100127179D01*
X105549707Y-100031941D01*
X105406850Y-99984321D01*
X105311612Y-99984321D01*
X105168755Y-100031941D01*
X105121136Y-100079560D01*
X104549707Y-100412893D02*
X104644945Y-100365274D01*
X104692564Y-100317655D01*
X104740183Y-100222417D01*
X104740183Y-100174798D01*
X104692564Y-100079560D01*
X104644945Y-100031941D01*
X104549707Y-99984321D01*
X104359231Y-99984321D01*
X104263993Y-100031941D01*
X104216374Y-100079560D01*
X104168755Y-100174798D01*
X104168755Y-100222417D01*
X104216374Y-100317655D01*
X104263993Y-100365274D01*
X104359231Y-100412893D01*
X104549707Y-100412893D01*
X104644945Y-100460512D01*
X104692564Y-100508131D01*
X104740183Y-100603369D01*
X104740183Y-100793845D01*
X104692564Y-100889083D01*
X104644945Y-100936702D01*
X104549707Y-100984321D01*
X104359231Y-100984321D01*
X104263993Y-100936702D01*
X104216374Y-100889083D01*
X104168755Y-100793845D01*
X104168755Y-100603369D01*
X104216374Y-100508131D01*
X104263993Y-100460512D01*
X104359231Y-100412893D01*
X103263993Y-99984321D02*
X103740183Y-99984321D01*
X103787802Y-100460512D01*
X103740183Y-100412893D01*
X103644945Y-100365274D01*
X103406850Y-100365274D01*
X103311612Y-100412893D01*
X103263993Y-100460512D01*
X103216374Y-100555750D01*
X103216374Y-100793845D01*
X103263993Y-100889083D01*
X103311612Y-100936702D01*
X103406850Y-100984321D01*
X103644945Y-100984321D01*
X103740183Y-100936702D01*
X103787802Y-100889083D01*
G04 #@! TO.C,C87*
X178851962Y-81163682D02*
X178899581Y-81116063D01*
X178947200Y-80973206D01*
X178947200Y-80877968D01*
X178899581Y-80735111D01*
X178804343Y-80639873D01*
X178709105Y-80592254D01*
X178518629Y-80544635D01*
X178375772Y-80544635D01*
X178185296Y-80592254D01*
X178090058Y-80639873D01*
X177994820Y-80735111D01*
X177947200Y-80877968D01*
X177947200Y-80973206D01*
X177994820Y-81116063D01*
X178042439Y-81163682D01*
X178375772Y-81735111D02*
X178328153Y-81639873D01*
X178280534Y-81592254D01*
X178185296Y-81544635D01*
X178137677Y-81544635D01*
X178042439Y-81592254D01*
X177994820Y-81639873D01*
X177947200Y-81735111D01*
X177947200Y-81925587D01*
X177994820Y-82020825D01*
X178042439Y-82068444D01*
X178137677Y-82116063D01*
X178185296Y-82116063D01*
X178280534Y-82068444D01*
X178328153Y-82020825D01*
X178375772Y-81925587D01*
X178375772Y-81735111D01*
X178423391Y-81639873D01*
X178471010Y-81592254D01*
X178566248Y-81544635D01*
X178756724Y-81544635D01*
X178851962Y-81592254D01*
X178899581Y-81639873D01*
X178947200Y-81735111D01*
X178947200Y-81925587D01*
X178899581Y-82020825D01*
X178851962Y-82068444D01*
X178756724Y-82116063D01*
X178566248Y-82116063D01*
X178471010Y-82068444D01*
X178423391Y-82020825D01*
X178375772Y-81925587D01*
X177947200Y-82449397D02*
X177947200Y-83116063D01*
X178947200Y-82687492D01*
G04 #@! TO.C,C88*
X170304602Y-92623402D02*
X170352221Y-92575783D01*
X170399840Y-92432926D01*
X170399840Y-92337688D01*
X170352221Y-92194831D01*
X170256983Y-92099593D01*
X170161745Y-92051974D01*
X169971269Y-92004355D01*
X169828412Y-92004355D01*
X169637936Y-92051974D01*
X169542698Y-92099593D01*
X169447460Y-92194831D01*
X169399840Y-92337688D01*
X169399840Y-92432926D01*
X169447460Y-92575783D01*
X169495079Y-92623402D01*
X169828412Y-93194831D02*
X169780793Y-93099593D01*
X169733174Y-93051974D01*
X169637936Y-93004355D01*
X169590317Y-93004355D01*
X169495079Y-93051974D01*
X169447460Y-93099593D01*
X169399840Y-93194831D01*
X169399840Y-93385307D01*
X169447460Y-93480545D01*
X169495079Y-93528164D01*
X169590317Y-93575783D01*
X169637936Y-93575783D01*
X169733174Y-93528164D01*
X169780793Y-93480545D01*
X169828412Y-93385307D01*
X169828412Y-93194831D01*
X169876031Y-93099593D01*
X169923650Y-93051974D01*
X170018888Y-93004355D01*
X170209364Y-93004355D01*
X170304602Y-93051974D01*
X170352221Y-93099593D01*
X170399840Y-93194831D01*
X170399840Y-93385307D01*
X170352221Y-93480545D01*
X170304602Y-93528164D01*
X170209364Y-93575783D01*
X170018888Y-93575783D01*
X169923650Y-93528164D01*
X169876031Y-93480545D01*
X169828412Y-93385307D01*
X169828412Y-94147212D02*
X169780793Y-94051974D01*
X169733174Y-94004355D01*
X169637936Y-93956736D01*
X169590317Y-93956736D01*
X169495079Y-94004355D01*
X169447460Y-94051974D01*
X169399840Y-94147212D01*
X169399840Y-94337688D01*
X169447460Y-94432926D01*
X169495079Y-94480545D01*
X169590317Y-94528164D01*
X169637936Y-94528164D01*
X169733174Y-94480545D01*
X169780793Y-94432926D01*
X169828412Y-94337688D01*
X169828412Y-94147212D01*
X169876031Y-94051974D01*
X169923650Y-94004355D01*
X170018888Y-93956736D01*
X170209364Y-93956736D01*
X170304602Y-94004355D01*
X170352221Y-94051974D01*
X170399840Y-94147212D01*
X170399840Y-94337688D01*
X170352221Y-94432926D01*
X170304602Y-94480545D01*
X170209364Y-94528164D01*
X170018888Y-94528164D01*
X169923650Y-94480545D01*
X169876031Y-94432926D01*
X169828412Y-94337688D01*
G04 #@! TO.C,C89*
X179078022Y-88963262D02*
X179125641Y-88915643D01*
X179173260Y-88772786D01*
X179173260Y-88677548D01*
X179125641Y-88534691D01*
X179030403Y-88439453D01*
X178935165Y-88391834D01*
X178744689Y-88344215D01*
X178601832Y-88344215D01*
X178411356Y-88391834D01*
X178316118Y-88439453D01*
X178220880Y-88534691D01*
X178173260Y-88677548D01*
X178173260Y-88772786D01*
X178220880Y-88915643D01*
X178268499Y-88963262D01*
X178601832Y-89534691D02*
X178554213Y-89439453D01*
X178506594Y-89391834D01*
X178411356Y-89344215D01*
X178363737Y-89344215D01*
X178268499Y-89391834D01*
X178220880Y-89439453D01*
X178173260Y-89534691D01*
X178173260Y-89725167D01*
X178220880Y-89820405D01*
X178268499Y-89868024D01*
X178363737Y-89915643D01*
X178411356Y-89915643D01*
X178506594Y-89868024D01*
X178554213Y-89820405D01*
X178601832Y-89725167D01*
X178601832Y-89534691D01*
X178649451Y-89439453D01*
X178697070Y-89391834D01*
X178792308Y-89344215D01*
X178982784Y-89344215D01*
X179078022Y-89391834D01*
X179125641Y-89439453D01*
X179173260Y-89534691D01*
X179173260Y-89725167D01*
X179125641Y-89820405D01*
X179078022Y-89868024D01*
X178982784Y-89915643D01*
X178792308Y-89915643D01*
X178697070Y-89868024D01*
X178649451Y-89820405D01*
X178601832Y-89725167D01*
X179173260Y-90391834D02*
X179173260Y-90582310D01*
X179125641Y-90677548D01*
X179078022Y-90725167D01*
X178935165Y-90820405D01*
X178744689Y-90868024D01*
X178363737Y-90868024D01*
X178268499Y-90820405D01*
X178220880Y-90772786D01*
X178173260Y-90677548D01*
X178173260Y-90487072D01*
X178220880Y-90391834D01*
X178268499Y-90344215D01*
X178363737Y-90296596D01*
X178601832Y-90296596D01*
X178697070Y-90344215D01*
X178744689Y-90391834D01*
X178792308Y-90487072D01*
X178792308Y-90677548D01*
X178744689Y-90772786D01*
X178697070Y-90820405D01*
X178601832Y-90868024D01*
G04 #@! TO.C,C90*
X171379282Y-88963262D02*
X171426901Y-88915643D01*
X171474520Y-88772786D01*
X171474520Y-88677548D01*
X171426901Y-88534691D01*
X171331663Y-88439453D01*
X171236425Y-88391834D01*
X171045949Y-88344215D01*
X170903092Y-88344215D01*
X170712616Y-88391834D01*
X170617378Y-88439453D01*
X170522140Y-88534691D01*
X170474520Y-88677548D01*
X170474520Y-88772786D01*
X170522140Y-88915643D01*
X170569759Y-88963262D01*
X171474520Y-89439453D02*
X171474520Y-89629929D01*
X171426901Y-89725167D01*
X171379282Y-89772786D01*
X171236425Y-89868024D01*
X171045949Y-89915643D01*
X170664997Y-89915643D01*
X170569759Y-89868024D01*
X170522140Y-89820405D01*
X170474520Y-89725167D01*
X170474520Y-89534691D01*
X170522140Y-89439453D01*
X170569759Y-89391834D01*
X170664997Y-89344215D01*
X170903092Y-89344215D01*
X170998330Y-89391834D01*
X171045949Y-89439453D01*
X171093568Y-89534691D01*
X171093568Y-89725167D01*
X171045949Y-89820405D01*
X170998330Y-89868024D01*
X170903092Y-89915643D01*
X170474520Y-90534691D02*
X170474520Y-90629929D01*
X170522140Y-90725167D01*
X170569759Y-90772786D01*
X170664997Y-90820405D01*
X170855473Y-90868024D01*
X171093568Y-90868024D01*
X171284044Y-90820405D01*
X171379282Y-90772786D01*
X171426901Y-90725167D01*
X171474520Y-90629929D01*
X171474520Y-90534691D01*
X171426901Y-90439453D01*
X171379282Y-90391834D01*
X171284044Y-90344215D01*
X171093568Y-90296596D01*
X170855473Y-90296596D01*
X170664997Y-90344215D01*
X170569759Y-90391834D01*
X170522140Y-90439453D01*
X170474520Y-90534691D01*
G04 #@! TO.C,C91*
X177771905Y-78595509D02*
X177819524Y-78643128D01*
X177962381Y-78690747D01*
X178057619Y-78690747D01*
X178200476Y-78643128D01*
X178295714Y-78547890D01*
X178343333Y-78452652D01*
X178390952Y-78262176D01*
X178390952Y-78119319D01*
X178343333Y-77928843D01*
X178295714Y-77833605D01*
X178200476Y-77738367D01*
X178057619Y-77690747D01*
X177962381Y-77690747D01*
X177819524Y-77738367D01*
X177771905Y-77785986D01*
X177295714Y-78690747D02*
X177105238Y-78690747D01*
X177010000Y-78643128D01*
X176962381Y-78595509D01*
X176867143Y-78452652D01*
X176819524Y-78262176D01*
X176819524Y-77881224D01*
X176867143Y-77785986D01*
X176914762Y-77738367D01*
X177010000Y-77690747D01*
X177200476Y-77690747D01*
X177295714Y-77738367D01*
X177343333Y-77785986D01*
X177390952Y-77881224D01*
X177390952Y-78119319D01*
X177343333Y-78214557D01*
X177295714Y-78262176D01*
X177200476Y-78309795D01*
X177010000Y-78309795D01*
X176914762Y-78262176D01*
X176867143Y-78214557D01*
X176819524Y-78119319D01*
X175867143Y-78690747D02*
X176438571Y-78690747D01*
X176152857Y-78690747D02*
X176152857Y-77690747D01*
X176248095Y-77833605D01*
X176343333Y-77928843D01*
X176438571Y-77976462D01*
G04 #@! TO.C,C92*
X165293601Y-81167461D02*
X165341220Y-81119842D01*
X165388839Y-80976985D01*
X165388839Y-80881747D01*
X165341220Y-80738890D01*
X165245982Y-80643652D01*
X165150744Y-80596033D01*
X164960268Y-80548414D01*
X164817411Y-80548414D01*
X164626935Y-80596033D01*
X164531697Y-80643652D01*
X164436459Y-80738890D01*
X164388839Y-80881747D01*
X164388839Y-80976985D01*
X164436459Y-81119842D01*
X164484078Y-81167461D01*
X165388839Y-81643652D02*
X165388839Y-81834128D01*
X165341220Y-81929366D01*
X165293601Y-81976985D01*
X165150744Y-82072223D01*
X164960268Y-82119842D01*
X164579316Y-82119842D01*
X164484078Y-82072223D01*
X164436459Y-82024604D01*
X164388839Y-81929366D01*
X164388839Y-81738890D01*
X164436459Y-81643652D01*
X164484078Y-81596033D01*
X164579316Y-81548414D01*
X164817411Y-81548414D01*
X164912649Y-81596033D01*
X164960268Y-81643652D01*
X165007887Y-81738890D01*
X165007887Y-81929366D01*
X164960268Y-82024604D01*
X164912649Y-82072223D01*
X164817411Y-82119842D01*
X164484078Y-82500795D02*
X164436459Y-82548414D01*
X164388839Y-82643652D01*
X164388839Y-82881747D01*
X164436459Y-82976985D01*
X164484078Y-83024604D01*
X164579316Y-83072223D01*
X164674554Y-83072223D01*
X164817411Y-83024604D01*
X165388839Y-82453176D01*
X165388839Y-83072223D01*
G04 #@! TO.C,C94*
X125237477Y-89123662D02*
X125285096Y-89171281D01*
X125427953Y-89218900D01*
X125523191Y-89218900D01*
X125666048Y-89171281D01*
X125761286Y-89076043D01*
X125808905Y-88980805D01*
X125856524Y-88790329D01*
X125856524Y-88647472D01*
X125808905Y-88456996D01*
X125761286Y-88361758D01*
X125666048Y-88266520D01*
X125523191Y-88218900D01*
X125427953Y-88218900D01*
X125285096Y-88266520D01*
X125237477Y-88314139D01*
X124761286Y-89218900D02*
X124570810Y-89218900D01*
X124475572Y-89171281D01*
X124427953Y-89123662D01*
X124332715Y-88980805D01*
X124285096Y-88790329D01*
X124285096Y-88409377D01*
X124332715Y-88314139D01*
X124380334Y-88266520D01*
X124475572Y-88218900D01*
X124666048Y-88218900D01*
X124761286Y-88266520D01*
X124808905Y-88314139D01*
X124856524Y-88409377D01*
X124856524Y-88647472D01*
X124808905Y-88742710D01*
X124761286Y-88790329D01*
X124666048Y-88837948D01*
X124475572Y-88837948D01*
X124380334Y-88790329D01*
X124332715Y-88742710D01*
X124285096Y-88647472D01*
X123427953Y-88552234D02*
X123427953Y-89218900D01*
X123666048Y-88171281D02*
X123904143Y-88885567D01*
X123285096Y-88885567D01*
G04 #@! TO.C,C97*
X174182863Y-92626823D02*
X174230482Y-92579204D01*
X174278101Y-92436347D01*
X174278101Y-92341109D01*
X174230482Y-92198252D01*
X174135244Y-92103014D01*
X174040006Y-92055395D01*
X173849530Y-92007776D01*
X173706673Y-92007776D01*
X173516197Y-92055395D01*
X173420959Y-92103014D01*
X173325721Y-92198252D01*
X173278101Y-92341109D01*
X173278101Y-92436347D01*
X173325721Y-92579204D01*
X173373340Y-92626823D01*
X174278101Y-93103014D02*
X174278101Y-93293490D01*
X174230482Y-93388728D01*
X174182863Y-93436347D01*
X174040006Y-93531585D01*
X173849530Y-93579204D01*
X173468578Y-93579204D01*
X173373340Y-93531585D01*
X173325721Y-93483966D01*
X173278101Y-93388728D01*
X173278101Y-93198252D01*
X173325721Y-93103014D01*
X173373340Y-93055395D01*
X173468578Y-93007776D01*
X173706673Y-93007776D01*
X173801911Y-93055395D01*
X173849530Y-93103014D01*
X173897149Y-93198252D01*
X173897149Y-93388728D01*
X173849530Y-93483966D01*
X173801911Y-93531585D01*
X173706673Y-93579204D01*
X173278101Y-93912538D02*
X173278101Y-94579204D01*
X174278101Y-94150633D01*
G04 #@! TO.C,C98*
X176078022Y-92623402D02*
X176125641Y-92575783D01*
X176173260Y-92432926D01*
X176173260Y-92337688D01*
X176125641Y-92194831D01*
X176030403Y-92099593D01*
X175935165Y-92051974D01*
X175744689Y-92004355D01*
X175601832Y-92004355D01*
X175411356Y-92051974D01*
X175316118Y-92099593D01*
X175220880Y-92194831D01*
X175173260Y-92337688D01*
X175173260Y-92432926D01*
X175220880Y-92575783D01*
X175268499Y-92623402D01*
X176173260Y-93099593D02*
X176173260Y-93290069D01*
X176125641Y-93385307D01*
X176078022Y-93432926D01*
X175935165Y-93528164D01*
X175744689Y-93575783D01*
X175363737Y-93575783D01*
X175268499Y-93528164D01*
X175220880Y-93480545D01*
X175173260Y-93385307D01*
X175173260Y-93194831D01*
X175220880Y-93099593D01*
X175268499Y-93051974D01*
X175363737Y-93004355D01*
X175601832Y-93004355D01*
X175697070Y-93051974D01*
X175744689Y-93099593D01*
X175792308Y-93194831D01*
X175792308Y-93385307D01*
X175744689Y-93480545D01*
X175697070Y-93528164D01*
X175601832Y-93575783D01*
X175601832Y-94147212D02*
X175554213Y-94051974D01*
X175506594Y-94004355D01*
X175411356Y-93956736D01*
X175363737Y-93956736D01*
X175268499Y-94004355D01*
X175220880Y-94051974D01*
X175173260Y-94147212D01*
X175173260Y-94337688D01*
X175220880Y-94432926D01*
X175268499Y-94480545D01*
X175363737Y-94528164D01*
X175411356Y-94528164D01*
X175506594Y-94480545D01*
X175554213Y-94432926D01*
X175601832Y-94337688D01*
X175601832Y-94147212D01*
X175649451Y-94051974D01*
X175697070Y-94004355D01*
X175792308Y-93956736D01*
X175982784Y-93956736D01*
X176078022Y-94004355D01*
X176125641Y-94051974D01*
X176173260Y-94147212D01*
X176173260Y-94337688D01*
X176125641Y-94432926D01*
X176078022Y-94480545D01*
X175982784Y-94528164D01*
X175792308Y-94528164D01*
X175697070Y-94480545D01*
X175649451Y-94432926D01*
X175601832Y-94337688D01*
G04 #@! TO.C,C99*
X161392002Y-81195942D02*
X161439621Y-81148323D01*
X161487240Y-81005466D01*
X161487240Y-80910228D01*
X161439621Y-80767371D01*
X161344383Y-80672133D01*
X161249145Y-80624514D01*
X161058669Y-80576895D01*
X160915812Y-80576895D01*
X160725336Y-80624514D01*
X160630098Y-80672133D01*
X160534860Y-80767371D01*
X160487240Y-80910228D01*
X160487240Y-81005466D01*
X160534860Y-81148323D01*
X160582479Y-81195942D01*
X161487240Y-81672133D02*
X161487240Y-81862609D01*
X161439621Y-81957847D01*
X161392002Y-82005466D01*
X161249145Y-82100704D01*
X161058669Y-82148323D01*
X160677717Y-82148323D01*
X160582479Y-82100704D01*
X160534860Y-82053085D01*
X160487240Y-81957847D01*
X160487240Y-81767371D01*
X160534860Y-81672133D01*
X160582479Y-81624514D01*
X160677717Y-81576895D01*
X160915812Y-81576895D01*
X161011050Y-81624514D01*
X161058669Y-81672133D01*
X161106288Y-81767371D01*
X161106288Y-81957847D01*
X161058669Y-82053085D01*
X161011050Y-82100704D01*
X160915812Y-82148323D01*
X161487240Y-82624514D02*
X161487240Y-82814990D01*
X161439621Y-82910228D01*
X161392002Y-82957847D01*
X161249145Y-83053085D01*
X161058669Y-83100704D01*
X160677717Y-83100704D01*
X160582479Y-83053085D01*
X160534860Y-83005466D01*
X160487240Y-82910228D01*
X160487240Y-82719752D01*
X160534860Y-82624514D01*
X160582479Y-82576895D01*
X160677717Y-82529276D01*
X160915812Y-82529276D01*
X161011050Y-82576895D01*
X161058669Y-82624514D01*
X161106288Y-82719752D01*
X161106288Y-82910228D01*
X161058669Y-83005466D01*
X161011050Y-83053085D01*
X160915812Y-83100704D01*
G04 #@! TO.C,C100*
X174626975Y-75608209D02*
X174674594Y-75655828D01*
X174817451Y-75703447D01*
X174912689Y-75703447D01*
X175055547Y-75655828D01*
X175150785Y-75560590D01*
X175198404Y-75465352D01*
X175246023Y-75274876D01*
X175246023Y-75132019D01*
X175198404Y-74941543D01*
X175150785Y-74846305D01*
X175055547Y-74751067D01*
X174912689Y-74703447D01*
X174817451Y-74703447D01*
X174674594Y-74751067D01*
X174626975Y-74798686D01*
X173674594Y-75703447D02*
X174246023Y-75703447D01*
X173960308Y-75703447D02*
X173960308Y-74703447D01*
X174055547Y-74846305D01*
X174150785Y-74941543D01*
X174246023Y-74989162D01*
X173055547Y-74703447D02*
X172960308Y-74703447D01*
X172865070Y-74751067D01*
X172817451Y-74798686D01*
X172769832Y-74893924D01*
X172722213Y-75084400D01*
X172722213Y-75322495D01*
X172769832Y-75512971D01*
X172817451Y-75608209D01*
X172865070Y-75655828D01*
X172960308Y-75703447D01*
X173055547Y-75703447D01*
X173150785Y-75655828D01*
X173198404Y-75608209D01*
X173246023Y-75512971D01*
X173293642Y-75322495D01*
X173293642Y-75084400D01*
X173246023Y-74893924D01*
X173198404Y-74798686D01*
X173150785Y-74751067D01*
X173055547Y-74703447D01*
X172103166Y-74703447D02*
X172007928Y-74703447D01*
X171912689Y-74751067D01*
X171865070Y-74798686D01*
X171817451Y-74893924D01*
X171769832Y-75084400D01*
X171769832Y-75322495D01*
X171817451Y-75512971D01*
X171865070Y-75608209D01*
X171912689Y-75655828D01*
X172007928Y-75703447D01*
X172103166Y-75703447D01*
X172198404Y-75655828D01*
X172246023Y-75608209D01*
X172293642Y-75512971D01*
X172341261Y-75322495D01*
X172341261Y-75084400D01*
X172293642Y-74893924D01*
X172246023Y-74798686D01*
X172198404Y-74751067D01*
X172103166Y-74703447D01*
G04 #@! TO.C,C102*
X174965762Y-80701972D02*
X175013381Y-80654353D01*
X175061000Y-80511496D01*
X175061000Y-80416258D01*
X175013381Y-80273400D01*
X174918143Y-80178162D01*
X174822905Y-80130543D01*
X174632429Y-80082924D01*
X174489572Y-80082924D01*
X174299096Y-80130543D01*
X174203858Y-80178162D01*
X174108620Y-80273400D01*
X174061000Y-80416258D01*
X174061000Y-80511496D01*
X174108620Y-80654353D01*
X174156239Y-80701972D01*
X175061000Y-81654353D02*
X175061000Y-81082924D01*
X175061000Y-81368639D02*
X174061000Y-81368639D01*
X174203858Y-81273400D01*
X174299096Y-81178162D01*
X174346715Y-81082924D01*
X174061000Y-82273400D02*
X174061000Y-82368639D01*
X174108620Y-82463877D01*
X174156239Y-82511496D01*
X174251477Y-82559115D01*
X174441953Y-82606734D01*
X174680048Y-82606734D01*
X174870524Y-82559115D01*
X174965762Y-82511496D01*
X175013381Y-82463877D01*
X175061000Y-82368639D01*
X175061000Y-82273400D01*
X175013381Y-82178162D01*
X174965762Y-82130543D01*
X174870524Y-82082924D01*
X174680048Y-82035305D01*
X174441953Y-82035305D01*
X174251477Y-82082924D01*
X174156239Y-82130543D01*
X174108620Y-82178162D01*
X174061000Y-82273400D01*
X174156239Y-82987686D02*
X174108620Y-83035305D01*
X174061000Y-83130543D01*
X174061000Y-83368639D01*
X174108620Y-83463877D01*
X174156239Y-83511496D01*
X174251477Y-83559115D01*
X174346715Y-83559115D01*
X174489572Y-83511496D01*
X175061000Y-82940067D01*
X175061000Y-83559115D01*
G04 #@! TO.C,C103*
X178260795Y-76663749D02*
X178308414Y-76711368D01*
X178451271Y-76758987D01*
X178546509Y-76758987D01*
X178689367Y-76711368D01*
X178784605Y-76616130D01*
X178832224Y-76520892D01*
X178879843Y-76330416D01*
X178879843Y-76187559D01*
X178832224Y-75997083D01*
X178784605Y-75901845D01*
X178689367Y-75806607D01*
X178546509Y-75758987D01*
X178451271Y-75758987D01*
X178308414Y-75806607D01*
X178260795Y-75854226D01*
X177308414Y-76758987D02*
X177879843Y-76758987D01*
X177594128Y-76758987D02*
X177594128Y-75758987D01*
X177689367Y-75901845D01*
X177784605Y-75997083D01*
X177879843Y-76044702D01*
X176689367Y-75758987D02*
X176594128Y-75758987D01*
X176498890Y-75806607D01*
X176451271Y-75854226D01*
X176403652Y-75949464D01*
X176356033Y-76139940D01*
X176356033Y-76378035D01*
X176403652Y-76568511D01*
X176451271Y-76663749D01*
X176498890Y-76711368D01*
X176594128Y-76758987D01*
X176689367Y-76758987D01*
X176784605Y-76711368D01*
X176832224Y-76663749D01*
X176879843Y-76568511D01*
X176927462Y-76378035D01*
X176927462Y-76139940D01*
X176879843Y-75949464D01*
X176832224Y-75854226D01*
X176784605Y-75806607D01*
X176689367Y-75758987D01*
X176022700Y-75758987D02*
X175403652Y-75758987D01*
X175736986Y-76139940D01*
X175594128Y-76139940D01*
X175498890Y-76187559D01*
X175451271Y-76235178D01*
X175403652Y-76330416D01*
X175403652Y-76568511D01*
X175451271Y-76663749D01*
X175498890Y-76711368D01*
X175594128Y-76758987D01*
X175879843Y-76758987D01*
X175975081Y-76711368D01*
X176022700Y-76663749D01*
G04 #@! TO.C,C105*
X128667687Y-93556222D02*
X128715306Y-93603841D01*
X128858163Y-93651460D01*
X128953401Y-93651460D01*
X129096259Y-93603841D01*
X129191497Y-93508603D01*
X129239116Y-93413365D01*
X129286735Y-93222889D01*
X129286735Y-93080032D01*
X129239116Y-92889556D01*
X129191497Y-92794318D01*
X129096259Y-92699080D01*
X128953401Y-92651460D01*
X128858163Y-92651460D01*
X128715306Y-92699080D01*
X128667687Y-92746699D01*
X127715306Y-93651460D02*
X128286735Y-93651460D01*
X128001020Y-93651460D02*
X128001020Y-92651460D01*
X128096259Y-92794318D01*
X128191497Y-92889556D01*
X128286735Y-92937175D01*
X127096259Y-92651460D02*
X127001020Y-92651460D01*
X126905782Y-92699080D01*
X126858163Y-92746699D01*
X126810544Y-92841937D01*
X126762925Y-93032413D01*
X126762925Y-93270508D01*
X126810544Y-93460984D01*
X126858163Y-93556222D01*
X126905782Y-93603841D01*
X127001020Y-93651460D01*
X127096259Y-93651460D01*
X127191497Y-93603841D01*
X127239116Y-93556222D01*
X127286735Y-93460984D01*
X127334354Y-93270508D01*
X127334354Y-93032413D01*
X127286735Y-92841937D01*
X127239116Y-92746699D01*
X127191497Y-92699080D01*
X127096259Y-92651460D01*
X125858163Y-92651460D02*
X126334354Y-92651460D01*
X126381973Y-93127651D01*
X126334354Y-93080032D01*
X126239116Y-93032413D01*
X126001020Y-93032413D01*
X125905782Y-93080032D01*
X125858163Y-93127651D01*
X125810544Y-93222889D01*
X125810544Y-93460984D01*
X125858163Y-93556222D01*
X125905782Y-93603841D01*
X126001020Y-93651460D01*
X126239116Y-93651460D01*
X126334354Y-93603841D01*
X126381973Y-93556222D01*
G04 #@! TO.C,C108*
X167203522Y-80686732D02*
X167251141Y-80639113D01*
X167298760Y-80496256D01*
X167298760Y-80401018D01*
X167251141Y-80258160D01*
X167155903Y-80162922D01*
X167060665Y-80115303D01*
X166870189Y-80067684D01*
X166727332Y-80067684D01*
X166536856Y-80115303D01*
X166441618Y-80162922D01*
X166346380Y-80258160D01*
X166298760Y-80401018D01*
X166298760Y-80496256D01*
X166346380Y-80639113D01*
X166393999Y-80686732D01*
X167298760Y-81639113D02*
X167298760Y-81067684D01*
X167298760Y-81353399D02*
X166298760Y-81353399D01*
X166441618Y-81258160D01*
X166536856Y-81162922D01*
X166584475Y-81067684D01*
X166298760Y-82258160D02*
X166298760Y-82353399D01*
X166346380Y-82448637D01*
X166393999Y-82496256D01*
X166489237Y-82543875D01*
X166679713Y-82591494D01*
X166917808Y-82591494D01*
X167108284Y-82543875D01*
X167203522Y-82496256D01*
X167251141Y-82448637D01*
X167298760Y-82353399D01*
X167298760Y-82258160D01*
X167251141Y-82162922D01*
X167203522Y-82115303D01*
X167108284Y-82067684D01*
X166917808Y-82020065D01*
X166679713Y-82020065D01*
X166489237Y-82067684D01*
X166393999Y-82115303D01*
X166346380Y-82162922D01*
X166298760Y-82258160D01*
X166727332Y-83162922D02*
X166679713Y-83067684D01*
X166632094Y-83020065D01*
X166536856Y-82972446D01*
X166489237Y-82972446D01*
X166393999Y-83020065D01*
X166346380Y-83067684D01*
X166298760Y-83162922D01*
X166298760Y-83353399D01*
X166346380Y-83448637D01*
X166393999Y-83496256D01*
X166489237Y-83543875D01*
X166536856Y-83543875D01*
X166632094Y-83496256D01*
X166679713Y-83448637D01*
X166727332Y-83353399D01*
X166727332Y-83162922D01*
X166774951Y-83067684D01*
X166822570Y-83020065D01*
X166917808Y-82972446D01*
X167108284Y-82972446D01*
X167203522Y-83020065D01*
X167251141Y-83067684D01*
X167298760Y-83162922D01*
X167298760Y-83353399D01*
X167251141Y-83448637D01*
X167203522Y-83496256D01*
X167108284Y-83543875D01*
X166917808Y-83543875D01*
X166822570Y-83496256D01*
X166774951Y-83448637D01*
X166727332Y-83353399D01*
G04 #@! TO.C,C109*
X177182863Y-88486333D02*
X177230482Y-88438714D01*
X177278101Y-88295857D01*
X177278101Y-88200619D01*
X177230482Y-88057761D01*
X177135244Y-87962523D01*
X177040006Y-87914904D01*
X176849530Y-87867285D01*
X176706673Y-87867285D01*
X176516197Y-87914904D01*
X176420959Y-87962523D01*
X176325721Y-88057761D01*
X176278101Y-88200619D01*
X176278101Y-88295857D01*
X176325721Y-88438714D01*
X176373340Y-88486333D01*
X177278101Y-89438714D02*
X177278101Y-88867285D01*
X177278101Y-89153000D02*
X176278101Y-89153000D01*
X176420959Y-89057761D01*
X176516197Y-88962523D01*
X176563816Y-88867285D01*
X176278101Y-90057761D02*
X176278101Y-90153000D01*
X176325721Y-90248238D01*
X176373340Y-90295857D01*
X176468578Y-90343476D01*
X176659054Y-90391095D01*
X176897149Y-90391095D01*
X177087625Y-90343476D01*
X177182863Y-90295857D01*
X177230482Y-90248238D01*
X177278101Y-90153000D01*
X177278101Y-90057761D01*
X177230482Y-89962523D01*
X177182863Y-89914904D01*
X177087625Y-89867285D01*
X176897149Y-89819666D01*
X176659054Y-89819666D01*
X176468578Y-89867285D01*
X176373340Y-89914904D01*
X176325721Y-89962523D01*
X176278101Y-90057761D01*
X177278101Y-90867285D02*
X177278101Y-91057761D01*
X177230482Y-91153000D01*
X177182863Y-91200619D01*
X177040006Y-91295857D01*
X176849530Y-91343476D01*
X176468578Y-91343476D01*
X176373340Y-91295857D01*
X176325721Y-91248238D01*
X176278101Y-91153000D01*
X176278101Y-90962523D01*
X176325721Y-90867285D01*
X176373340Y-90819666D01*
X176468578Y-90772047D01*
X176706673Y-90772047D01*
X176801911Y-90819666D01*
X176849530Y-90867285D01*
X176897149Y-90962523D01*
X176897149Y-91153000D01*
X176849530Y-91248238D01*
X176801911Y-91295857D01*
X176706673Y-91343476D01*
G04 #@! TO.C,C110*
X172279043Y-92150633D02*
X172326662Y-92103014D01*
X172374281Y-91960157D01*
X172374281Y-91864919D01*
X172326662Y-91722061D01*
X172231424Y-91626823D01*
X172136186Y-91579204D01*
X171945710Y-91531585D01*
X171802853Y-91531585D01*
X171612377Y-91579204D01*
X171517139Y-91626823D01*
X171421901Y-91722061D01*
X171374281Y-91864919D01*
X171374281Y-91960157D01*
X171421901Y-92103014D01*
X171469520Y-92150633D01*
X172374281Y-93103014D02*
X172374281Y-92531585D01*
X172374281Y-92817300D02*
X171374281Y-92817300D01*
X171517139Y-92722061D01*
X171612377Y-92626823D01*
X171659996Y-92531585D01*
X172374281Y-94055395D02*
X172374281Y-93483966D01*
X172374281Y-93769681D02*
X171374281Y-93769681D01*
X171517139Y-93674442D01*
X171612377Y-93579204D01*
X171659996Y-93483966D01*
X171374281Y-94674442D02*
X171374281Y-94769681D01*
X171421901Y-94864919D01*
X171469520Y-94912538D01*
X171564758Y-94960157D01*
X171755234Y-95007776D01*
X171993329Y-95007776D01*
X172183805Y-94960157D01*
X172279043Y-94912538D01*
X172326662Y-94864919D01*
X172374281Y-94769681D01*
X172374281Y-94674442D01*
X172326662Y-94579204D01*
X172279043Y-94531585D01*
X172183805Y-94483966D01*
X171993329Y-94436347D01*
X171755234Y-94436347D01*
X171564758Y-94483966D01*
X171469520Y-94531585D01*
X171421901Y-94579204D01*
X171374281Y-94674442D01*
G04 #@! TO.C,C111*
X182777307Y-108346642D02*
X182824926Y-108394261D01*
X182967783Y-108441880D01*
X183063021Y-108441880D01*
X183205879Y-108394261D01*
X183301117Y-108299023D01*
X183348736Y-108203785D01*
X183396355Y-108013309D01*
X183396355Y-107870452D01*
X183348736Y-107679976D01*
X183301117Y-107584738D01*
X183205879Y-107489500D01*
X183063021Y-107441880D01*
X182967783Y-107441880D01*
X182824926Y-107489500D01*
X182777307Y-107537119D01*
X181824926Y-108441880D02*
X182396355Y-108441880D01*
X182110640Y-108441880D02*
X182110640Y-107441880D01*
X182205879Y-107584738D01*
X182301117Y-107679976D01*
X182396355Y-107727595D01*
X180872545Y-108441880D02*
X181443974Y-108441880D01*
X181158260Y-108441880D02*
X181158260Y-107441880D01*
X181253498Y-107584738D01*
X181348736Y-107679976D01*
X181443974Y-107727595D01*
X179920164Y-108441880D02*
X180491593Y-108441880D01*
X180205879Y-108441880D02*
X180205879Y-107441880D01*
X180301117Y-107584738D01*
X180396355Y-107679976D01*
X180491593Y-107727595D01*
G04 #@! TO.C,C112*
X160345262Y-84364652D02*
X160392881Y-84317033D01*
X160440500Y-84174176D01*
X160440500Y-84078938D01*
X160392881Y-83936080D01*
X160297643Y-83840842D01*
X160202405Y-83793223D01*
X160011929Y-83745604D01*
X159869072Y-83745604D01*
X159678596Y-83793223D01*
X159583358Y-83840842D01*
X159488120Y-83936080D01*
X159440500Y-84078938D01*
X159440500Y-84174176D01*
X159488120Y-84317033D01*
X159535739Y-84364652D01*
X160440500Y-85317033D02*
X160440500Y-84745604D01*
X160440500Y-85031319D02*
X159440500Y-85031319D01*
X159583358Y-84936080D01*
X159678596Y-84840842D01*
X159726215Y-84745604D01*
X160440500Y-86269414D02*
X160440500Y-85697985D01*
X160440500Y-85983700D02*
X159440500Y-85983700D01*
X159583358Y-85888461D01*
X159678596Y-85793223D01*
X159726215Y-85697985D01*
X159535739Y-86650366D02*
X159488120Y-86697985D01*
X159440500Y-86793223D01*
X159440500Y-87031319D01*
X159488120Y-87126557D01*
X159535739Y-87174176D01*
X159630977Y-87221795D01*
X159726215Y-87221795D01*
X159869072Y-87174176D01*
X160440500Y-86602747D01*
X160440500Y-87221795D01*
G04 #@! TO.C,C113*
X171059041Y-80704271D02*
X171106660Y-80656652D01*
X171154279Y-80513795D01*
X171154279Y-80418557D01*
X171106660Y-80275699D01*
X171011422Y-80180461D01*
X170916184Y-80132842D01*
X170725708Y-80085223D01*
X170582851Y-80085223D01*
X170392375Y-80132842D01*
X170297137Y-80180461D01*
X170201899Y-80275699D01*
X170154279Y-80418557D01*
X170154279Y-80513795D01*
X170201899Y-80656652D01*
X170249518Y-80704271D01*
X171154279Y-81656652D02*
X171154279Y-81085223D01*
X171154279Y-81370938D02*
X170154279Y-81370938D01*
X170297137Y-81275699D01*
X170392375Y-81180461D01*
X170439994Y-81085223D01*
X171154279Y-82609033D02*
X171154279Y-82037604D01*
X171154279Y-82323319D02*
X170154279Y-82323319D01*
X170297137Y-82228080D01*
X170392375Y-82132842D01*
X170439994Y-82037604D01*
X170154279Y-82942366D02*
X170154279Y-83561414D01*
X170535232Y-83228080D01*
X170535232Y-83370938D01*
X170582851Y-83466176D01*
X170630470Y-83513795D01*
X170725708Y-83561414D01*
X170963803Y-83561414D01*
X171059041Y-83513795D01*
X171106660Y-83466176D01*
X171154279Y-83370938D01*
X171154279Y-83085223D01*
X171106660Y-82989985D01*
X171059041Y-82942366D01*
G04 #@! TO.C,C114*
X173311723Y-88486333D02*
X173359342Y-88438714D01*
X173406961Y-88295857D01*
X173406961Y-88200619D01*
X173359342Y-88057761D01*
X173264104Y-87962523D01*
X173168866Y-87914904D01*
X172978390Y-87867285D01*
X172835533Y-87867285D01*
X172645057Y-87914904D01*
X172549819Y-87962523D01*
X172454581Y-88057761D01*
X172406961Y-88200619D01*
X172406961Y-88295857D01*
X172454581Y-88438714D01*
X172502200Y-88486333D01*
X173406961Y-89438714D02*
X173406961Y-88867285D01*
X173406961Y-89153000D02*
X172406961Y-89153000D01*
X172549819Y-89057761D01*
X172645057Y-88962523D01*
X172692676Y-88867285D01*
X173406961Y-90391095D02*
X173406961Y-89819666D01*
X173406961Y-90105381D02*
X172406961Y-90105381D01*
X172549819Y-90010142D01*
X172645057Y-89914904D01*
X172692676Y-89819666D01*
X172740295Y-91248238D02*
X173406961Y-91248238D01*
X172359342Y-91010142D02*
X173073628Y-90772047D01*
X173073628Y-91391095D01*
G04 #@! TO.C,C116*
X128665147Y-92118582D02*
X128712766Y-92166201D01*
X128855623Y-92213820D01*
X128950861Y-92213820D01*
X129093719Y-92166201D01*
X129188957Y-92070963D01*
X129236576Y-91975725D01*
X129284195Y-91785249D01*
X129284195Y-91642392D01*
X129236576Y-91451916D01*
X129188957Y-91356678D01*
X129093719Y-91261440D01*
X128950861Y-91213820D01*
X128855623Y-91213820D01*
X128712766Y-91261440D01*
X128665147Y-91309059D01*
X127712766Y-92213820D02*
X128284195Y-92213820D01*
X127998480Y-92213820D02*
X127998480Y-91213820D01*
X128093719Y-91356678D01*
X128188957Y-91451916D01*
X128284195Y-91499535D01*
X126760385Y-92213820D02*
X127331814Y-92213820D01*
X127046100Y-92213820D02*
X127046100Y-91213820D01*
X127141338Y-91356678D01*
X127236576Y-91451916D01*
X127331814Y-91499535D01*
X125903242Y-91213820D02*
X126093719Y-91213820D01*
X126188957Y-91261440D01*
X126236576Y-91309059D01*
X126331814Y-91451916D01*
X126379433Y-91642392D01*
X126379433Y-92023344D01*
X126331814Y-92118582D01*
X126284195Y-92166201D01*
X126188957Y-92213820D01*
X125998480Y-92213820D01*
X125903242Y-92166201D01*
X125855623Y-92118582D01*
X125808004Y-92023344D01*
X125808004Y-91785249D01*
X125855623Y-91690011D01*
X125903242Y-91642392D01*
X125998480Y-91594773D01*
X126188957Y-91594773D01*
X126284195Y-91642392D01*
X126331814Y-91690011D01*
X126379433Y-91785249D01*
G04 #@! TO.C,C119*
X164213682Y-84372272D02*
X164261301Y-84324653D01*
X164308920Y-84181796D01*
X164308920Y-84086558D01*
X164261301Y-83943700D01*
X164166063Y-83848462D01*
X164070825Y-83800843D01*
X163880349Y-83753224D01*
X163737492Y-83753224D01*
X163547016Y-83800843D01*
X163451778Y-83848462D01*
X163356540Y-83943700D01*
X163308920Y-84086558D01*
X163308920Y-84181796D01*
X163356540Y-84324653D01*
X163404159Y-84372272D01*
X164308920Y-85324653D02*
X164308920Y-84753224D01*
X164308920Y-85038939D02*
X163308920Y-85038939D01*
X163451778Y-84943700D01*
X163547016Y-84848462D01*
X163594635Y-84753224D01*
X164308920Y-86277034D02*
X164308920Y-85705605D01*
X164308920Y-85991320D02*
X163308920Y-85991320D01*
X163451778Y-85896081D01*
X163547016Y-85800843D01*
X163594635Y-85705605D01*
X164308920Y-86753224D02*
X164308920Y-86943700D01*
X164261301Y-87038939D01*
X164213682Y-87086558D01*
X164070825Y-87181796D01*
X163880349Y-87229415D01*
X163499397Y-87229415D01*
X163404159Y-87181796D01*
X163356540Y-87134177D01*
X163308920Y-87038939D01*
X163308920Y-86848462D01*
X163356540Y-86753224D01*
X163404159Y-86705605D01*
X163499397Y-86657986D01*
X163737492Y-86657986D01*
X163832730Y-86705605D01*
X163880349Y-86753224D01*
X163927968Y-86848462D01*
X163927968Y-87038939D01*
X163880349Y-87134177D01*
X163832730Y-87181796D01*
X163737492Y-87229415D01*
G04 #@! TO.C,C120*
X168379282Y-92154832D02*
X168426901Y-92107213D01*
X168474520Y-91964356D01*
X168474520Y-91869118D01*
X168426901Y-91726260D01*
X168331663Y-91631022D01*
X168236425Y-91583403D01*
X168045949Y-91535784D01*
X167903092Y-91535784D01*
X167712616Y-91583403D01*
X167617378Y-91631022D01*
X167522140Y-91726260D01*
X167474520Y-91869118D01*
X167474520Y-91964356D01*
X167522140Y-92107213D01*
X167569759Y-92154832D01*
X168474520Y-93107213D02*
X168474520Y-92535784D01*
X168474520Y-92821499D02*
X167474520Y-92821499D01*
X167617378Y-92726260D01*
X167712616Y-92631022D01*
X167760235Y-92535784D01*
X167569759Y-93488165D02*
X167522140Y-93535784D01*
X167474520Y-93631022D01*
X167474520Y-93869118D01*
X167522140Y-93964356D01*
X167569759Y-94011975D01*
X167664997Y-94059594D01*
X167760235Y-94059594D01*
X167903092Y-94011975D01*
X168474520Y-93440546D01*
X168474520Y-94059594D01*
X167474520Y-94678641D02*
X167474520Y-94773880D01*
X167522140Y-94869118D01*
X167569759Y-94916737D01*
X167664997Y-94964356D01*
X167855473Y-95011975D01*
X168093568Y-95011975D01*
X168284044Y-94964356D01*
X168379282Y-94916737D01*
X168426901Y-94869118D01*
X168474520Y-94773880D01*
X168474520Y-94678641D01*
X168426901Y-94583403D01*
X168379282Y-94535784D01*
X168284044Y-94488165D01*
X168093568Y-94440546D01*
X167855473Y-94440546D01*
X167664997Y-94488165D01*
X167569759Y-94535784D01*
X167522140Y-94583403D01*
X167474520Y-94678641D01*
G04 #@! TO.C,C121*
X162285822Y-84372272D02*
X162333441Y-84324653D01*
X162381060Y-84181796D01*
X162381060Y-84086558D01*
X162333441Y-83943700D01*
X162238203Y-83848462D01*
X162142965Y-83800843D01*
X161952489Y-83753224D01*
X161809632Y-83753224D01*
X161619156Y-83800843D01*
X161523918Y-83848462D01*
X161428680Y-83943700D01*
X161381060Y-84086558D01*
X161381060Y-84181796D01*
X161428680Y-84324653D01*
X161476299Y-84372272D01*
X162381060Y-85324653D02*
X162381060Y-84753224D01*
X162381060Y-85038939D02*
X161381060Y-85038939D01*
X161523918Y-84943700D01*
X161619156Y-84848462D01*
X161666775Y-84753224D01*
X161476299Y-85705605D02*
X161428680Y-85753224D01*
X161381060Y-85848462D01*
X161381060Y-86086558D01*
X161428680Y-86181796D01*
X161476299Y-86229415D01*
X161571537Y-86277034D01*
X161666775Y-86277034D01*
X161809632Y-86229415D01*
X162381060Y-85657986D01*
X162381060Y-86277034D01*
X162381060Y-87229415D02*
X162381060Y-86657986D01*
X162381060Y-86943700D02*
X161381060Y-86943700D01*
X161523918Y-86848462D01*
X161619156Y-86753224D01*
X161666775Y-86657986D01*
G04 #@! TO.C,C122*
X173919022Y-84359572D02*
X173966641Y-84311953D01*
X174014260Y-84169096D01*
X174014260Y-84073858D01*
X173966641Y-83931000D01*
X173871403Y-83835762D01*
X173776165Y-83788143D01*
X173585689Y-83740524D01*
X173442832Y-83740524D01*
X173252356Y-83788143D01*
X173157118Y-83835762D01*
X173061880Y-83931000D01*
X173014260Y-84073858D01*
X173014260Y-84169096D01*
X173061880Y-84311953D01*
X173109499Y-84359572D01*
X174014260Y-85311953D02*
X174014260Y-84740524D01*
X174014260Y-85026239D02*
X173014260Y-85026239D01*
X173157118Y-84931000D01*
X173252356Y-84835762D01*
X173299975Y-84740524D01*
X173109499Y-85692905D02*
X173061880Y-85740524D01*
X173014260Y-85835762D01*
X173014260Y-86073858D01*
X173061880Y-86169096D01*
X173109499Y-86216715D01*
X173204737Y-86264334D01*
X173299975Y-86264334D01*
X173442832Y-86216715D01*
X174014260Y-85645286D01*
X174014260Y-86264334D01*
X173109499Y-86645286D02*
X173061880Y-86692905D01*
X173014260Y-86788143D01*
X173014260Y-87026239D01*
X173061880Y-87121477D01*
X173109499Y-87169096D01*
X173204737Y-87216715D01*
X173299975Y-87216715D01*
X173442832Y-87169096D01*
X174014260Y-86597667D01*
X174014260Y-87216715D01*
G04 #@! TO.C,C123*
X158402162Y-84364652D02*
X158449781Y-84317033D01*
X158497400Y-84174176D01*
X158497400Y-84078938D01*
X158449781Y-83936080D01*
X158354543Y-83840842D01*
X158259305Y-83793223D01*
X158068829Y-83745604D01*
X157925972Y-83745604D01*
X157735496Y-83793223D01*
X157640258Y-83840842D01*
X157545020Y-83936080D01*
X157497400Y-84078938D01*
X157497400Y-84174176D01*
X157545020Y-84317033D01*
X157592639Y-84364652D01*
X158497400Y-85317033D02*
X158497400Y-84745604D01*
X158497400Y-85031319D02*
X157497400Y-85031319D01*
X157640258Y-84936080D01*
X157735496Y-84840842D01*
X157783115Y-84745604D01*
X157592639Y-85697985D02*
X157545020Y-85745604D01*
X157497400Y-85840842D01*
X157497400Y-86078938D01*
X157545020Y-86174176D01*
X157592639Y-86221795D01*
X157687877Y-86269414D01*
X157783115Y-86269414D01*
X157925972Y-86221795D01*
X158497400Y-85650366D01*
X158497400Y-86269414D01*
X157497400Y-86602747D02*
X157497400Y-87221795D01*
X157878353Y-86888461D01*
X157878353Y-87031319D01*
X157925972Y-87126557D01*
X157973591Y-87174176D01*
X158068829Y-87221795D01*
X158306924Y-87221795D01*
X158402162Y-87174176D01*
X158449781Y-87126557D01*
X158497400Y-87031319D01*
X158497400Y-86745604D01*
X158449781Y-86650366D01*
X158402162Y-86602747D01*
G04 #@! TO.C,C125*
X125713667Y-90558762D02*
X125761286Y-90606381D01*
X125904143Y-90654000D01*
X125999381Y-90654000D01*
X126142239Y-90606381D01*
X126237477Y-90511143D01*
X126285096Y-90415905D01*
X126332715Y-90225429D01*
X126332715Y-90082572D01*
X126285096Y-89892096D01*
X126237477Y-89796858D01*
X126142239Y-89701620D01*
X125999381Y-89654000D01*
X125904143Y-89654000D01*
X125761286Y-89701620D01*
X125713667Y-89749239D01*
X124761286Y-90654000D02*
X125332715Y-90654000D01*
X125047000Y-90654000D02*
X125047000Y-89654000D01*
X125142239Y-89796858D01*
X125237477Y-89892096D01*
X125332715Y-89939715D01*
X124380334Y-89749239D02*
X124332715Y-89701620D01*
X124237477Y-89654000D01*
X123999381Y-89654000D01*
X123904143Y-89701620D01*
X123856524Y-89749239D01*
X123808905Y-89844477D01*
X123808905Y-89939715D01*
X123856524Y-90082572D01*
X124427953Y-90654000D01*
X123808905Y-90654000D01*
X122904143Y-89654000D02*
X123380334Y-89654000D01*
X123427953Y-90130191D01*
X123380334Y-90082572D01*
X123285096Y-90034953D01*
X123047000Y-90034953D01*
X122951762Y-90082572D01*
X122904143Y-90130191D01*
X122856524Y-90225429D01*
X122856524Y-90463524D01*
X122904143Y-90558762D01*
X122951762Y-90606381D01*
X123047000Y-90654000D01*
X123285096Y-90654000D01*
X123380334Y-90606381D01*
X123427953Y-90558762D01*
G04 #@! TO.C,C127*
X179124787Y-105351722D02*
X179172406Y-105399341D01*
X179315263Y-105446960D01*
X179410501Y-105446960D01*
X179553359Y-105399341D01*
X179648597Y-105304103D01*
X179696216Y-105208865D01*
X179743835Y-105018389D01*
X179743835Y-104875532D01*
X179696216Y-104685056D01*
X179648597Y-104589818D01*
X179553359Y-104494580D01*
X179410501Y-104446960D01*
X179315263Y-104446960D01*
X179172406Y-104494580D01*
X179124787Y-104542199D01*
X178172406Y-105446960D02*
X178743835Y-105446960D01*
X178458120Y-105446960D02*
X178458120Y-104446960D01*
X178553359Y-104589818D01*
X178648597Y-104685056D01*
X178743835Y-104732675D01*
X177791454Y-104542199D02*
X177743835Y-104494580D01*
X177648597Y-104446960D01*
X177410501Y-104446960D01*
X177315263Y-104494580D01*
X177267644Y-104542199D01*
X177220025Y-104637437D01*
X177220025Y-104732675D01*
X177267644Y-104875532D01*
X177839073Y-105446960D01*
X177220025Y-105446960D01*
X176886692Y-104446960D02*
X176220025Y-104446960D01*
X176648597Y-105446960D01*
G04 #@! TO.C,C128*
X182795087Y-114155622D02*
X182842706Y-114203241D01*
X182985563Y-114250860D01*
X183080801Y-114250860D01*
X183223659Y-114203241D01*
X183318897Y-114108003D01*
X183366516Y-114012765D01*
X183414135Y-113822289D01*
X183414135Y-113679432D01*
X183366516Y-113488956D01*
X183318897Y-113393718D01*
X183223659Y-113298480D01*
X183080801Y-113250860D01*
X182985563Y-113250860D01*
X182842706Y-113298480D01*
X182795087Y-113346099D01*
X181842706Y-114250860D02*
X182414135Y-114250860D01*
X182128420Y-114250860D02*
X182128420Y-113250860D01*
X182223659Y-113393718D01*
X182318897Y-113488956D01*
X182414135Y-113536575D01*
X181461754Y-113346099D02*
X181414135Y-113298480D01*
X181318897Y-113250860D01*
X181080801Y-113250860D01*
X180985563Y-113298480D01*
X180937944Y-113346099D01*
X180890325Y-113441337D01*
X180890325Y-113536575D01*
X180937944Y-113679432D01*
X181509373Y-114250860D01*
X180890325Y-114250860D01*
X180318897Y-113679432D02*
X180414135Y-113631813D01*
X180461754Y-113584194D01*
X180509373Y-113488956D01*
X180509373Y-113441337D01*
X180461754Y-113346099D01*
X180414135Y-113298480D01*
X180318897Y-113250860D01*
X180128420Y-113250860D01*
X180033182Y-113298480D01*
X179985563Y-113346099D01*
X179937944Y-113441337D01*
X179937944Y-113488956D01*
X179985563Y-113584194D01*
X180033182Y-113631813D01*
X180128420Y-113679432D01*
X180318897Y-113679432D01*
X180414135Y-113727051D01*
X180461754Y-113774670D01*
X180509373Y-113869908D01*
X180509373Y-114060384D01*
X180461754Y-114155622D01*
X180414135Y-114203241D01*
X180318897Y-114250860D01*
X180128420Y-114250860D01*
X180033182Y-114203241D01*
X179985563Y-114155622D01*
X179937944Y-114060384D01*
X179937944Y-113869908D01*
X179985563Y-113774670D01*
X180033182Y-113727051D01*
X180128420Y-113679432D01*
G04 #@! TO.C,C129*
X169994722Y-84359572D02*
X170042341Y-84311953D01*
X170089960Y-84169096D01*
X170089960Y-84073858D01*
X170042341Y-83931000D01*
X169947103Y-83835762D01*
X169851865Y-83788143D01*
X169661389Y-83740524D01*
X169518532Y-83740524D01*
X169328056Y-83788143D01*
X169232818Y-83835762D01*
X169137580Y-83931000D01*
X169089960Y-84073858D01*
X169089960Y-84169096D01*
X169137580Y-84311953D01*
X169185199Y-84359572D01*
X170089960Y-85311953D02*
X170089960Y-84740524D01*
X170089960Y-85026239D02*
X169089960Y-85026239D01*
X169232818Y-84931000D01*
X169328056Y-84835762D01*
X169375675Y-84740524D01*
X169185199Y-85692905D02*
X169137580Y-85740524D01*
X169089960Y-85835762D01*
X169089960Y-86073858D01*
X169137580Y-86169096D01*
X169185199Y-86216715D01*
X169280437Y-86264334D01*
X169375675Y-86264334D01*
X169518532Y-86216715D01*
X170089960Y-85645286D01*
X170089960Y-86264334D01*
X170089960Y-86740524D02*
X170089960Y-86931000D01*
X170042341Y-87026239D01*
X169994722Y-87073858D01*
X169851865Y-87169096D01*
X169661389Y-87216715D01*
X169280437Y-87216715D01*
X169185199Y-87169096D01*
X169137580Y-87121477D01*
X169089960Y-87026239D01*
X169089960Y-86835762D01*
X169137580Y-86740524D01*
X169185199Y-86692905D01*
X169280437Y-86645286D01*
X169518532Y-86645286D01*
X169613770Y-86692905D01*
X169661389Y-86740524D01*
X169709008Y-86835762D01*
X169709008Y-87026239D01*
X169661389Y-87121477D01*
X169613770Y-87169096D01*
X169518532Y-87216715D01*
G04 #@! TO.C,C130*
X179134546Y-109195763D02*
X179182165Y-109243382D01*
X179325022Y-109291001D01*
X179420260Y-109291001D01*
X179563118Y-109243382D01*
X179658356Y-109148144D01*
X179705975Y-109052906D01*
X179753594Y-108862430D01*
X179753594Y-108719573D01*
X179705975Y-108529097D01*
X179658356Y-108433859D01*
X179563118Y-108338621D01*
X179420260Y-108291001D01*
X179325022Y-108291001D01*
X179182165Y-108338621D01*
X179134546Y-108386240D01*
X178182165Y-109291001D02*
X178753594Y-109291001D01*
X178467879Y-109291001D02*
X178467879Y-108291001D01*
X178563118Y-108433859D01*
X178658356Y-108529097D01*
X178753594Y-108576716D01*
X177848832Y-108291001D02*
X177229784Y-108291001D01*
X177563118Y-108671954D01*
X177420260Y-108671954D01*
X177325022Y-108719573D01*
X177277403Y-108767192D01*
X177229784Y-108862430D01*
X177229784Y-109100525D01*
X177277403Y-109195763D01*
X177325022Y-109243382D01*
X177420260Y-109291001D01*
X177705975Y-109291001D01*
X177801213Y-109243382D01*
X177848832Y-109195763D01*
X176610737Y-108291001D02*
X176515499Y-108291001D01*
X176420260Y-108338621D01*
X176372641Y-108386240D01*
X176325022Y-108481478D01*
X176277403Y-108671954D01*
X176277403Y-108910049D01*
X176325022Y-109100525D01*
X176372641Y-109195763D01*
X176420260Y-109243382D01*
X176515499Y-109291001D01*
X176610737Y-109291001D01*
X176705975Y-109243382D01*
X176753594Y-109195763D01*
X176801213Y-109100525D01*
X176848832Y-108910049D01*
X176848832Y-108671954D01*
X176801213Y-108481478D01*
X176753594Y-108386240D01*
X176705975Y-108338621D01*
X176610737Y-108291001D01*
G04 #@! TO.C,C131*
X182784408Y-112182381D02*
X182832027Y-112230000D01*
X182974884Y-112277619D01*
X183070122Y-112277619D01*
X183212980Y-112230000D01*
X183308218Y-112134762D01*
X183355837Y-112039524D01*
X183403456Y-111849048D01*
X183403456Y-111706191D01*
X183355837Y-111515715D01*
X183308218Y-111420477D01*
X183212980Y-111325239D01*
X183070122Y-111277619D01*
X182974884Y-111277619D01*
X182832027Y-111325239D01*
X182784408Y-111372858D01*
X181832027Y-112277619D02*
X182403456Y-112277619D01*
X182117741Y-112277619D02*
X182117741Y-111277619D01*
X182212980Y-111420477D01*
X182308218Y-111515715D01*
X182403456Y-111563334D01*
X181498694Y-111277619D02*
X180879646Y-111277619D01*
X181212980Y-111658572D01*
X181070122Y-111658572D01*
X180974884Y-111706191D01*
X180927265Y-111753810D01*
X180879646Y-111849048D01*
X180879646Y-112087143D01*
X180927265Y-112182381D01*
X180974884Y-112230000D01*
X181070122Y-112277619D01*
X181355837Y-112277619D01*
X181451075Y-112230000D01*
X181498694Y-112182381D01*
X179927265Y-112277619D02*
X180498694Y-112277619D01*
X180212980Y-112277619D02*
X180212980Y-111277619D01*
X180308218Y-111420477D01*
X180403456Y-111515715D01*
X180498694Y-111563334D01*
G04 #@! TO.C,C132*
X171978462Y-84359572D02*
X172026081Y-84311953D01*
X172073700Y-84169096D01*
X172073700Y-84073858D01*
X172026081Y-83931000D01*
X171930843Y-83835762D01*
X171835605Y-83788143D01*
X171645129Y-83740524D01*
X171502272Y-83740524D01*
X171311796Y-83788143D01*
X171216558Y-83835762D01*
X171121320Y-83931000D01*
X171073700Y-84073858D01*
X171073700Y-84169096D01*
X171121320Y-84311953D01*
X171168939Y-84359572D01*
X172073700Y-85311953D02*
X172073700Y-84740524D01*
X172073700Y-85026239D02*
X171073700Y-85026239D01*
X171216558Y-84931000D01*
X171311796Y-84835762D01*
X171359415Y-84740524D01*
X171073700Y-85645286D02*
X171073700Y-86264334D01*
X171454653Y-85931000D01*
X171454653Y-86073858D01*
X171502272Y-86169096D01*
X171549891Y-86216715D01*
X171645129Y-86264334D01*
X171883224Y-86264334D01*
X171978462Y-86216715D01*
X172026081Y-86169096D01*
X172073700Y-86073858D01*
X172073700Y-85788143D01*
X172026081Y-85692905D01*
X171978462Y-85645286D01*
X171168939Y-86645286D02*
X171121320Y-86692905D01*
X171073700Y-86788143D01*
X171073700Y-87026239D01*
X171121320Y-87121477D01*
X171168939Y-87169096D01*
X171264177Y-87216715D01*
X171359415Y-87216715D01*
X171502272Y-87169096D01*
X172073700Y-86597667D01*
X172073700Y-87216715D01*
G04 #@! TO.C,C135*
X179134546Y-111160543D02*
X179182165Y-111208162D01*
X179325022Y-111255781D01*
X179420260Y-111255781D01*
X179563118Y-111208162D01*
X179658356Y-111112924D01*
X179705975Y-111017686D01*
X179753594Y-110827210D01*
X179753594Y-110684353D01*
X179705975Y-110493877D01*
X179658356Y-110398639D01*
X179563118Y-110303401D01*
X179420260Y-110255781D01*
X179325022Y-110255781D01*
X179182165Y-110303401D01*
X179134546Y-110351020D01*
X178182165Y-111255781D02*
X178753594Y-111255781D01*
X178467879Y-111255781D02*
X178467879Y-110255781D01*
X178563118Y-110398639D01*
X178658356Y-110493877D01*
X178753594Y-110541496D01*
X177848832Y-110255781D02*
X177229784Y-110255781D01*
X177563118Y-110636734D01*
X177420260Y-110636734D01*
X177325022Y-110684353D01*
X177277403Y-110731972D01*
X177229784Y-110827210D01*
X177229784Y-111065305D01*
X177277403Y-111160543D01*
X177325022Y-111208162D01*
X177420260Y-111255781D01*
X177705975Y-111255781D01*
X177801213Y-111208162D01*
X177848832Y-111160543D01*
X176325022Y-110255781D02*
X176801213Y-110255781D01*
X176848832Y-110731972D01*
X176801213Y-110684353D01*
X176705975Y-110636734D01*
X176467879Y-110636734D01*
X176372641Y-110684353D01*
X176325022Y-110731972D01*
X176277403Y-110827210D01*
X176277403Y-111065305D01*
X176325022Y-111160543D01*
X176372641Y-111208162D01*
X176467879Y-111255781D01*
X176705975Y-111255781D01*
X176801213Y-111208162D01*
X176848832Y-111160543D01*
G04 #@! TO.C,C136*
X179121846Y-107261463D02*
X179169465Y-107309082D01*
X179312322Y-107356701D01*
X179407560Y-107356701D01*
X179550418Y-107309082D01*
X179645656Y-107213844D01*
X179693275Y-107118606D01*
X179740894Y-106928130D01*
X179740894Y-106785273D01*
X179693275Y-106594797D01*
X179645656Y-106499559D01*
X179550418Y-106404321D01*
X179407560Y-106356701D01*
X179312322Y-106356701D01*
X179169465Y-106404321D01*
X179121846Y-106451940D01*
X178169465Y-107356701D02*
X178740894Y-107356701D01*
X178455179Y-107356701D02*
X178455179Y-106356701D01*
X178550418Y-106499559D01*
X178645656Y-106594797D01*
X178740894Y-106642416D01*
X177836132Y-106356701D02*
X177217084Y-106356701D01*
X177550418Y-106737654D01*
X177407560Y-106737654D01*
X177312322Y-106785273D01*
X177264703Y-106832892D01*
X177217084Y-106928130D01*
X177217084Y-107166225D01*
X177264703Y-107261463D01*
X177312322Y-107309082D01*
X177407560Y-107356701D01*
X177693275Y-107356701D01*
X177788513Y-107309082D01*
X177836132Y-107261463D01*
X176359941Y-106356701D02*
X176550418Y-106356701D01*
X176645656Y-106404321D01*
X176693275Y-106451940D01*
X176788513Y-106594797D01*
X176836132Y-106785273D01*
X176836132Y-107166225D01*
X176788513Y-107261463D01*
X176740894Y-107309082D01*
X176645656Y-107356701D01*
X176455179Y-107356701D01*
X176359941Y-107309082D01*
X176312322Y-107261463D01*
X176264703Y-107166225D01*
X176264703Y-106928130D01*
X176312322Y-106832892D01*
X176359941Y-106785273D01*
X176455179Y-106737654D01*
X176645656Y-106737654D01*
X176740894Y-106785273D01*
X176788513Y-106832892D01*
X176836132Y-106928130D01*
G04 #@! TO.C,C137*
X182771708Y-110248081D02*
X182819327Y-110295700D01*
X182962184Y-110343319D01*
X183057422Y-110343319D01*
X183200280Y-110295700D01*
X183295518Y-110200462D01*
X183343137Y-110105224D01*
X183390756Y-109914748D01*
X183390756Y-109771891D01*
X183343137Y-109581415D01*
X183295518Y-109486177D01*
X183200280Y-109390939D01*
X183057422Y-109343319D01*
X182962184Y-109343319D01*
X182819327Y-109390939D01*
X182771708Y-109438558D01*
X181819327Y-110343319D02*
X182390756Y-110343319D01*
X182105041Y-110343319D02*
X182105041Y-109343319D01*
X182200280Y-109486177D01*
X182295518Y-109581415D01*
X182390756Y-109629034D01*
X181485994Y-109343319D02*
X180866946Y-109343319D01*
X181200280Y-109724272D01*
X181057422Y-109724272D01*
X180962184Y-109771891D01*
X180914565Y-109819510D01*
X180866946Y-109914748D01*
X180866946Y-110152843D01*
X180914565Y-110248081D01*
X180962184Y-110295700D01*
X181057422Y-110343319D01*
X181343137Y-110343319D01*
X181438375Y-110295700D01*
X181485994Y-110248081D01*
X180533613Y-109343319D02*
X179866946Y-109343319D01*
X180295518Y-110343319D01*
G04 #@! TO.C,C138*
X174618827Y-77520942D02*
X174666446Y-77568561D01*
X174809303Y-77616180D01*
X174904541Y-77616180D01*
X175047399Y-77568561D01*
X175142637Y-77473323D01*
X175190256Y-77378085D01*
X175237875Y-77187609D01*
X175237875Y-77044752D01*
X175190256Y-76854276D01*
X175142637Y-76759038D01*
X175047399Y-76663800D01*
X174904541Y-76616180D01*
X174809303Y-76616180D01*
X174666446Y-76663800D01*
X174618827Y-76711419D01*
X173666446Y-77616180D02*
X174237875Y-77616180D01*
X173952160Y-77616180D02*
X173952160Y-76616180D01*
X174047399Y-76759038D01*
X174142637Y-76854276D01*
X174237875Y-76901895D01*
X173333113Y-76616180D02*
X172714065Y-76616180D01*
X173047399Y-76997133D01*
X172904541Y-76997133D01*
X172809303Y-77044752D01*
X172761684Y-77092371D01*
X172714065Y-77187609D01*
X172714065Y-77425704D01*
X172761684Y-77520942D01*
X172809303Y-77568561D01*
X172904541Y-77616180D01*
X173190256Y-77616180D01*
X173285494Y-77568561D01*
X173333113Y-77520942D01*
X172142637Y-77044752D02*
X172237875Y-76997133D01*
X172285494Y-76949514D01*
X172333113Y-76854276D01*
X172333113Y-76806657D01*
X172285494Y-76711419D01*
X172237875Y-76663800D01*
X172142637Y-76616180D01*
X171952160Y-76616180D01*
X171856922Y-76663800D01*
X171809303Y-76711419D01*
X171761684Y-76806657D01*
X171761684Y-76854276D01*
X171809303Y-76949514D01*
X171856922Y-76997133D01*
X171952160Y-77044752D01*
X172142637Y-77044752D01*
X172237875Y-77092371D01*
X172285494Y-77139990D01*
X172333113Y-77235228D01*
X172333113Y-77425704D01*
X172285494Y-77520942D01*
X172237875Y-77568561D01*
X172142637Y-77616180D01*
X171952160Y-77616180D01*
X171856922Y-77568561D01*
X171809303Y-77520942D01*
X171761684Y-77425704D01*
X171761684Y-77235228D01*
X171809303Y-77139990D01*
X171856922Y-77092371D01*
X171952160Y-77044752D01*
G04 #@! TO.C,C139*
X168051622Y-84374812D02*
X168099241Y-84327193D01*
X168146860Y-84184336D01*
X168146860Y-84089098D01*
X168099241Y-83946240D01*
X168004003Y-83851002D01*
X167908765Y-83803383D01*
X167718289Y-83755764D01*
X167575432Y-83755764D01*
X167384956Y-83803383D01*
X167289718Y-83851002D01*
X167194480Y-83946240D01*
X167146860Y-84089098D01*
X167146860Y-84184336D01*
X167194480Y-84327193D01*
X167242099Y-84374812D01*
X168146860Y-85327193D02*
X168146860Y-84755764D01*
X168146860Y-85041479D02*
X167146860Y-85041479D01*
X167289718Y-84946240D01*
X167384956Y-84851002D01*
X167432575Y-84755764D01*
X167146860Y-85660526D02*
X167146860Y-86279574D01*
X167527813Y-85946240D01*
X167527813Y-86089098D01*
X167575432Y-86184336D01*
X167623051Y-86231955D01*
X167718289Y-86279574D01*
X167956384Y-86279574D01*
X168051622Y-86231955D01*
X168099241Y-86184336D01*
X168146860Y-86089098D01*
X168146860Y-85803383D01*
X168099241Y-85708145D01*
X168051622Y-85660526D01*
X168146860Y-86755764D02*
X168146860Y-86946240D01*
X168099241Y-87041479D01*
X168051622Y-87089098D01*
X167908765Y-87184336D01*
X167718289Y-87231955D01*
X167337337Y-87231955D01*
X167242099Y-87184336D01*
X167194480Y-87136717D01*
X167146860Y-87041479D01*
X167146860Y-86851002D01*
X167194480Y-86755764D01*
X167242099Y-86708145D01*
X167337337Y-86660526D01*
X167575432Y-86660526D01*
X167670670Y-86708145D01*
X167718289Y-86755764D01*
X167765908Y-86851002D01*
X167765908Y-87041479D01*
X167718289Y-87136717D01*
X167670670Y-87184336D01*
X167575432Y-87231955D01*
G04 #@! TO.C,C140*
X178258647Y-80505702D02*
X178306266Y-80553321D01*
X178449123Y-80600940D01*
X178544361Y-80600940D01*
X178687219Y-80553321D01*
X178782457Y-80458083D01*
X178830076Y-80362845D01*
X178877695Y-80172369D01*
X178877695Y-80029512D01*
X178830076Y-79839036D01*
X178782457Y-79743798D01*
X178687219Y-79648560D01*
X178544361Y-79600940D01*
X178449123Y-79600940D01*
X178306266Y-79648560D01*
X178258647Y-79696179D01*
X177306266Y-80600940D02*
X177877695Y-80600940D01*
X177591980Y-80600940D02*
X177591980Y-79600940D01*
X177687219Y-79743798D01*
X177782457Y-79839036D01*
X177877695Y-79886655D01*
X176449123Y-79934274D02*
X176449123Y-80600940D01*
X176687219Y-79553321D02*
X176925314Y-80267607D01*
X176306266Y-80267607D01*
X175734838Y-79600940D02*
X175639600Y-79600940D01*
X175544361Y-79648560D01*
X175496742Y-79696179D01*
X175449123Y-79791417D01*
X175401504Y-79981893D01*
X175401504Y-80219988D01*
X175449123Y-80410464D01*
X175496742Y-80505702D01*
X175544361Y-80553321D01*
X175639600Y-80600940D01*
X175734838Y-80600940D01*
X175830076Y-80553321D01*
X175877695Y-80505702D01*
X175925314Y-80410464D01*
X175972933Y-80219988D01*
X175972933Y-79981893D01*
X175925314Y-79791417D01*
X175877695Y-79696179D01*
X175830076Y-79648560D01*
X175734838Y-79600940D01*
G04 #@! TO.C,C145*
X157768467Y-79641842D02*
X157816086Y-79689461D01*
X157958943Y-79737080D01*
X158054181Y-79737080D01*
X158197039Y-79689461D01*
X158292277Y-79594223D01*
X158339896Y-79498985D01*
X158387515Y-79308509D01*
X158387515Y-79165652D01*
X158339896Y-78975176D01*
X158292277Y-78879938D01*
X158197039Y-78784700D01*
X158054181Y-78737080D01*
X157958943Y-78737080D01*
X157816086Y-78784700D01*
X157768467Y-78832319D01*
X156816086Y-79737080D02*
X157387515Y-79737080D01*
X157101800Y-79737080D02*
X157101800Y-78737080D01*
X157197039Y-78879938D01*
X157292277Y-78975176D01*
X157387515Y-79022795D01*
X155958943Y-79070414D02*
X155958943Y-79737080D01*
X156197039Y-78689461D02*
X156435134Y-79403747D01*
X155816086Y-79403747D01*
X154958943Y-78737080D02*
X155435134Y-78737080D01*
X155482753Y-79213271D01*
X155435134Y-79165652D01*
X155339896Y-79118033D01*
X155101800Y-79118033D01*
X155006562Y-79165652D01*
X154958943Y-79213271D01*
X154911324Y-79308509D01*
X154911324Y-79546604D01*
X154958943Y-79641842D01*
X155006562Y-79689461D01*
X155101800Y-79737080D01*
X155339896Y-79737080D01*
X155435134Y-79689461D01*
X155482753Y-79641842D01*
G04 #@! TO.C,C148*
X166534007Y-136165422D02*
X166581626Y-136213041D01*
X166724483Y-136260660D01*
X166819721Y-136260660D01*
X166962579Y-136213041D01*
X167057817Y-136117803D01*
X167105436Y-136022565D01*
X167153055Y-135832089D01*
X167153055Y-135689232D01*
X167105436Y-135498756D01*
X167057817Y-135403518D01*
X166962579Y-135308280D01*
X166819721Y-135260660D01*
X166724483Y-135260660D01*
X166581626Y-135308280D01*
X166534007Y-135355899D01*
X165581626Y-136260660D02*
X166153055Y-136260660D01*
X165867340Y-136260660D02*
X165867340Y-135260660D01*
X165962579Y-135403518D01*
X166057817Y-135498756D01*
X166153055Y-135546375D01*
X164724483Y-135593994D02*
X164724483Y-136260660D01*
X164962579Y-135213041D02*
X165200674Y-135927327D01*
X164581626Y-135927327D01*
X164057817Y-135689232D02*
X164153055Y-135641613D01*
X164200674Y-135593994D01*
X164248293Y-135498756D01*
X164248293Y-135451137D01*
X164200674Y-135355899D01*
X164153055Y-135308280D01*
X164057817Y-135260660D01*
X163867340Y-135260660D01*
X163772102Y-135308280D01*
X163724483Y-135355899D01*
X163676864Y-135451137D01*
X163676864Y-135498756D01*
X163724483Y-135593994D01*
X163772102Y-135641613D01*
X163867340Y-135689232D01*
X164057817Y-135689232D01*
X164153055Y-135736851D01*
X164200674Y-135784470D01*
X164248293Y-135879708D01*
X164248293Y-136070184D01*
X164200674Y-136165422D01*
X164153055Y-136213041D01*
X164057817Y-136260660D01*
X163867340Y-136260660D01*
X163772102Y-136213041D01*
X163724483Y-136165422D01*
X163676864Y-136070184D01*
X163676864Y-135879708D01*
X163724483Y-135784470D01*
X163772102Y-135736851D01*
X163867340Y-135689232D01*
G04 #@! TO.C,C150*
X174639675Y-73676449D02*
X174687294Y-73724068D01*
X174830151Y-73771687D01*
X174925389Y-73771687D01*
X175068247Y-73724068D01*
X175163485Y-73628830D01*
X175211104Y-73533592D01*
X175258723Y-73343116D01*
X175258723Y-73200259D01*
X175211104Y-73009783D01*
X175163485Y-72914545D01*
X175068247Y-72819307D01*
X174925389Y-72771687D01*
X174830151Y-72771687D01*
X174687294Y-72819307D01*
X174639675Y-72866926D01*
X173687294Y-73771687D02*
X174258723Y-73771687D01*
X173973008Y-73771687D02*
X173973008Y-72771687D01*
X174068247Y-72914545D01*
X174163485Y-73009783D01*
X174258723Y-73057402D01*
X172782532Y-72771687D02*
X173258723Y-72771687D01*
X173306342Y-73247878D01*
X173258723Y-73200259D01*
X173163485Y-73152640D01*
X172925389Y-73152640D01*
X172830151Y-73200259D01*
X172782532Y-73247878D01*
X172734913Y-73343116D01*
X172734913Y-73581211D01*
X172782532Y-73676449D01*
X172830151Y-73724068D01*
X172925389Y-73771687D01*
X173163485Y-73771687D01*
X173258723Y-73724068D01*
X173306342Y-73676449D01*
X172115866Y-72771687D02*
X172020628Y-72771687D01*
X171925389Y-72819307D01*
X171877770Y-72866926D01*
X171830151Y-72962164D01*
X171782532Y-73152640D01*
X171782532Y-73390735D01*
X171830151Y-73581211D01*
X171877770Y-73676449D01*
X171925389Y-73724068D01*
X172020628Y-73771687D01*
X172115866Y-73771687D01*
X172211104Y-73724068D01*
X172258723Y-73676449D01*
X172306342Y-73581211D01*
X172353961Y-73390735D01*
X172353961Y-73152640D01*
X172306342Y-72962164D01*
X172258723Y-72866926D01*
X172211104Y-72819307D01*
X172115866Y-72771687D01*
G04 #@! TO.C,C151*
X163340182Y-80684192D02*
X163387801Y-80636573D01*
X163435420Y-80493716D01*
X163435420Y-80398478D01*
X163387801Y-80255620D01*
X163292563Y-80160382D01*
X163197325Y-80112763D01*
X163006849Y-80065144D01*
X162863992Y-80065144D01*
X162673516Y-80112763D01*
X162578278Y-80160382D01*
X162483040Y-80255620D01*
X162435420Y-80398478D01*
X162435420Y-80493716D01*
X162483040Y-80636573D01*
X162530659Y-80684192D01*
X163435420Y-81636573D02*
X163435420Y-81065144D01*
X163435420Y-81350859D02*
X162435420Y-81350859D01*
X162578278Y-81255620D01*
X162673516Y-81160382D01*
X162721135Y-81065144D01*
X162435420Y-82541335D02*
X162435420Y-82065144D01*
X162911611Y-82017525D01*
X162863992Y-82065144D01*
X162816373Y-82160382D01*
X162816373Y-82398478D01*
X162863992Y-82493716D01*
X162911611Y-82541335D01*
X163006849Y-82588954D01*
X163244944Y-82588954D01*
X163340182Y-82541335D01*
X163387801Y-82493716D01*
X163435420Y-82398478D01*
X163435420Y-82160382D01*
X163387801Y-82065144D01*
X163340182Y-82017525D01*
X163435420Y-83541335D02*
X163435420Y-82969906D01*
X163435420Y-83255620D02*
X162435420Y-83255620D01*
X162578278Y-83160382D01*
X162673516Y-83065144D01*
X162721135Y-82969906D01*
G04 #@! TO.C,C155*
X157735447Y-81099802D02*
X157783066Y-81147421D01*
X157925923Y-81195040D01*
X158021161Y-81195040D01*
X158164019Y-81147421D01*
X158259257Y-81052183D01*
X158306876Y-80956945D01*
X158354495Y-80766469D01*
X158354495Y-80623612D01*
X158306876Y-80433136D01*
X158259257Y-80337898D01*
X158164019Y-80242660D01*
X158021161Y-80195040D01*
X157925923Y-80195040D01*
X157783066Y-80242660D01*
X157735447Y-80290279D01*
X156783066Y-81195040D02*
X157354495Y-81195040D01*
X157068780Y-81195040D02*
X157068780Y-80195040D01*
X157164019Y-80337898D01*
X157259257Y-80433136D01*
X157354495Y-80480755D01*
X155878304Y-80195040D02*
X156354495Y-80195040D01*
X156402114Y-80671231D01*
X156354495Y-80623612D01*
X156259257Y-80575993D01*
X156021161Y-80575993D01*
X155925923Y-80623612D01*
X155878304Y-80671231D01*
X155830685Y-80766469D01*
X155830685Y-81004564D01*
X155878304Y-81099802D01*
X155925923Y-81147421D01*
X156021161Y-81195040D01*
X156259257Y-81195040D01*
X156354495Y-81147421D01*
X156402114Y-81099802D01*
X154925923Y-80195040D02*
X155402114Y-80195040D01*
X155449733Y-80671231D01*
X155402114Y-80623612D01*
X155306876Y-80575993D01*
X155068780Y-80575993D01*
X154973542Y-80623612D01*
X154925923Y-80671231D01*
X154878304Y-80766469D01*
X154878304Y-81004564D01*
X154925923Y-81099802D01*
X154973542Y-81147421D01*
X155068780Y-81195040D01*
X155306876Y-81195040D01*
X155402114Y-81147421D01*
X155449733Y-81099802D01*
G04 #@! TO.C,C159*
X157709866Y-84069623D02*
X157757485Y-84117242D01*
X157900342Y-84164861D01*
X157995580Y-84164861D01*
X158138438Y-84117242D01*
X158233676Y-84022004D01*
X158281295Y-83926766D01*
X158328914Y-83736290D01*
X158328914Y-83593433D01*
X158281295Y-83402957D01*
X158233676Y-83307719D01*
X158138438Y-83212481D01*
X157995580Y-83164861D01*
X157900342Y-83164861D01*
X157757485Y-83212481D01*
X157709866Y-83260100D01*
X156757485Y-84164861D02*
X157328914Y-84164861D01*
X157043199Y-84164861D02*
X157043199Y-83164861D01*
X157138438Y-83307719D01*
X157233676Y-83402957D01*
X157328914Y-83450576D01*
X155852723Y-83164861D02*
X156328914Y-83164861D01*
X156376533Y-83641052D01*
X156328914Y-83593433D01*
X156233676Y-83545814D01*
X155995580Y-83545814D01*
X155900342Y-83593433D01*
X155852723Y-83641052D01*
X155805104Y-83736290D01*
X155805104Y-83974385D01*
X155852723Y-84069623D01*
X155900342Y-84117242D01*
X155995580Y-84164861D01*
X156233676Y-84164861D01*
X156328914Y-84117242D01*
X156376533Y-84069623D01*
X155328914Y-84164861D02*
X155138438Y-84164861D01*
X155043199Y-84117242D01*
X154995580Y-84069623D01*
X154900342Y-83926766D01*
X154852723Y-83736290D01*
X154852723Y-83355338D01*
X154900342Y-83260100D01*
X154947961Y-83212481D01*
X155043199Y-83164861D01*
X155233676Y-83164861D01*
X155328914Y-83212481D01*
X155376533Y-83260100D01*
X155424152Y-83355338D01*
X155424152Y-83593433D01*
X155376533Y-83688671D01*
X155328914Y-83736290D01*
X155233676Y-83783909D01*
X155043199Y-83783909D01*
X154947961Y-83736290D01*
X154900342Y-83688671D01*
X154852723Y-83593433D01*
G04 #@! TO.C,C160*
X175846882Y-84377352D02*
X175894501Y-84329733D01*
X175942120Y-84186876D01*
X175942120Y-84091638D01*
X175894501Y-83948780D01*
X175799263Y-83853542D01*
X175704025Y-83805923D01*
X175513549Y-83758304D01*
X175370692Y-83758304D01*
X175180216Y-83805923D01*
X175084978Y-83853542D01*
X174989740Y-83948780D01*
X174942120Y-84091638D01*
X174942120Y-84186876D01*
X174989740Y-84329733D01*
X175037359Y-84377352D01*
X175942120Y-85329733D02*
X175942120Y-84758304D01*
X175942120Y-85044019D02*
X174942120Y-85044019D01*
X175084978Y-84948780D01*
X175180216Y-84853542D01*
X175227835Y-84758304D01*
X174942120Y-86186876D02*
X174942120Y-85996400D01*
X174989740Y-85901161D01*
X175037359Y-85853542D01*
X175180216Y-85758304D01*
X175370692Y-85710685D01*
X175751644Y-85710685D01*
X175846882Y-85758304D01*
X175894501Y-85805923D01*
X175942120Y-85901161D01*
X175942120Y-86091638D01*
X175894501Y-86186876D01*
X175846882Y-86234495D01*
X175751644Y-86282114D01*
X175513549Y-86282114D01*
X175418311Y-86234495D01*
X175370692Y-86186876D01*
X175323073Y-86091638D01*
X175323073Y-85901161D01*
X175370692Y-85805923D01*
X175418311Y-85758304D01*
X175513549Y-85710685D01*
X174942120Y-86901161D02*
X174942120Y-86996400D01*
X174989740Y-87091638D01*
X175037359Y-87139257D01*
X175132597Y-87186876D01*
X175323073Y-87234495D01*
X175561168Y-87234495D01*
X175751644Y-87186876D01*
X175846882Y-87139257D01*
X175894501Y-87091638D01*
X175942120Y-86996400D01*
X175942120Y-86901161D01*
X175894501Y-86805923D01*
X175846882Y-86758304D01*
X175751644Y-86710685D01*
X175561168Y-86663066D01*
X175323073Y-86663066D01*
X175132597Y-86710685D01*
X175037359Y-86758304D01*
X174989740Y-86805923D01*
X174942120Y-86901161D01*
G04 #@! TO.C,C161*
X176913942Y-80701972D02*
X176961561Y-80654353D01*
X177009180Y-80511496D01*
X177009180Y-80416258D01*
X176961561Y-80273400D01*
X176866323Y-80178162D01*
X176771085Y-80130543D01*
X176580609Y-80082924D01*
X176437752Y-80082924D01*
X176247276Y-80130543D01*
X176152038Y-80178162D01*
X176056800Y-80273400D01*
X176009180Y-80416258D01*
X176009180Y-80511496D01*
X176056800Y-80654353D01*
X176104419Y-80701972D01*
X177009180Y-81654353D02*
X177009180Y-81082924D01*
X177009180Y-81368639D02*
X176009180Y-81368639D01*
X176152038Y-81273400D01*
X176247276Y-81178162D01*
X176294895Y-81082924D01*
X176009180Y-82511496D02*
X176009180Y-82321020D01*
X176056800Y-82225781D01*
X176104419Y-82178162D01*
X176247276Y-82082924D01*
X176437752Y-82035305D01*
X176818704Y-82035305D01*
X176913942Y-82082924D01*
X176961561Y-82130543D01*
X177009180Y-82225781D01*
X177009180Y-82416258D01*
X176961561Y-82511496D01*
X176913942Y-82559115D01*
X176818704Y-82606734D01*
X176580609Y-82606734D01*
X176485371Y-82559115D01*
X176437752Y-82511496D01*
X176390133Y-82416258D01*
X176390133Y-82225781D01*
X176437752Y-82130543D01*
X176485371Y-82082924D01*
X176580609Y-82035305D01*
X177009180Y-83559115D02*
X177009180Y-82987686D01*
X177009180Y-83273400D02*
X176009180Y-83273400D01*
X176152038Y-83178162D01*
X176247276Y-83082924D01*
X176294895Y-82987686D01*
G04 #@! TO.C,C167*
X157735447Y-82595862D02*
X157783066Y-82643481D01*
X157925923Y-82691100D01*
X158021161Y-82691100D01*
X158164019Y-82643481D01*
X158259257Y-82548243D01*
X158306876Y-82453005D01*
X158354495Y-82262529D01*
X158354495Y-82119672D01*
X158306876Y-81929196D01*
X158259257Y-81833958D01*
X158164019Y-81738720D01*
X158021161Y-81691100D01*
X157925923Y-81691100D01*
X157783066Y-81738720D01*
X157735447Y-81786339D01*
X156783066Y-82691100D02*
X157354495Y-82691100D01*
X157068780Y-82691100D02*
X157068780Y-81691100D01*
X157164019Y-81833958D01*
X157259257Y-81929196D01*
X157354495Y-81976815D01*
X155925923Y-81691100D02*
X156116400Y-81691100D01*
X156211638Y-81738720D01*
X156259257Y-81786339D01*
X156354495Y-81929196D01*
X156402114Y-82119672D01*
X156402114Y-82500624D01*
X156354495Y-82595862D01*
X156306876Y-82643481D01*
X156211638Y-82691100D01*
X156021161Y-82691100D01*
X155925923Y-82643481D01*
X155878304Y-82595862D01*
X155830685Y-82500624D01*
X155830685Y-82262529D01*
X155878304Y-82167291D01*
X155925923Y-82119672D01*
X156021161Y-82072053D01*
X156211638Y-82072053D01*
X156306876Y-82119672D01*
X156354495Y-82167291D01*
X156402114Y-82262529D01*
X155497352Y-81691100D02*
X154830685Y-81691100D01*
X155259257Y-82691100D01*
G04 #@! TO.C,C170*
X172999802Y-80717212D02*
X173047421Y-80669593D01*
X173095040Y-80526736D01*
X173095040Y-80431498D01*
X173047421Y-80288640D01*
X172952183Y-80193402D01*
X172856945Y-80145783D01*
X172666469Y-80098164D01*
X172523612Y-80098164D01*
X172333136Y-80145783D01*
X172237898Y-80193402D01*
X172142660Y-80288640D01*
X172095040Y-80431498D01*
X172095040Y-80526736D01*
X172142660Y-80669593D01*
X172190279Y-80717212D01*
X173095040Y-81669593D02*
X173095040Y-81098164D01*
X173095040Y-81383879D02*
X172095040Y-81383879D01*
X172237898Y-81288640D01*
X172333136Y-81193402D01*
X172380755Y-81098164D01*
X172095040Y-82002926D02*
X172095040Y-82669593D01*
X173095040Y-82241021D01*
X172095040Y-83241021D02*
X172095040Y-83336260D01*
X172142660Y-83431498D01*
X172190279Y-83479117D01*
X172285517Y-83526736D01*
X172475993Y-83574355D01*
X172714088Y-83574355D01*
X172904564Y-83526736D01*
X172999802Y-83479117D01*
X173047421Y-83431498D01*
X173095040Y-83336260D01*
X173095040Y-83241021D01*
X173047421Y-83145783D01*
X172999802Y-83098164D01*
X172904564Y-83050545D01*
X172714088Y-83002926D01*
X172475993Y-83002926D01*
X172285517Y-83050545D01*
X172190279Y-83098164D01*
X172142660Y-83145783D01*
X172095040Y-83241021D01*
G04 #@! TO.C,C171*
X175279043Y-88486333D02*
X175326662Y-88438714D01*
X175374281Y-88295857D01*
X175374281Y-88200619D01*
X175326662Y-88057761D01*
X175231424Y-87962523D01*
X175136186Y-87914904D01*
X174945710Y-87867285D01*
X174802853Y-87867285D01*
X174612377Y-87914904D01*
X174517139Y-87962523D01*
X174421901Y-88057761D01*
X174374281Y-88200619D01*
X174374281Y-88295857D01*
X174421901Y-88438714D01*
X174469520Y-88486333D01*
X175374281Y-89438714D02*
X175374281Y-88867285D01*
X175374281Y-89153000D02*
X174374281Y-89153000D01*
X174517139Y-89057761D01*
X174612377Y-88962523D01*
X174659996Y-88867285D01*
X174374281Y-89772047D02*
X174374281Y-90438714D01*
X175374281Y-90010142D01*
X175374281Y-91343476D02*
X175374281Y-90772047D01*
X175374281Y-91057761D02*
X174374281Y-91057761D01*
X174517139Y-90962523D01*
X174612377Y-90867285D01*
X174659996Y-90772047D01*
G04 #@! TO.C,C179*
X169159322Y-80704512D02*
X169206941Y-80656893D01*
X169254560Y-80514036D01*
X169254560Y-80418798D01*
X169206941Y-80275940D01*
X169111703Y-80180702D01*
X169016465Y-80133083D01*
X168825989Y-80085464D01*
X168683132Y-80085464D01*
X168492656Y-80133083D01*
X168397418Y-80180702D01*
X168302180Y-80275940D01*
X168254560Y-80418798D01*
X168254560Y-80514036D01*
X168302180Y-80656893D01*
X168349799Y-80704512D01*
X169254560Y-81656893D02*
X169254560Y-81085464D01*
X169254560Y-81371179D02*
X168254560Y-81371179D01*
X168397418Y-81275940D01*
X168492656Y-81180702D01*
X168540275Y-81085464D01*
X168254560Y-81990226D02*
X168254560Y-82656893D01*
X169254560Y-82228321D01*
X169254560Y-83085464D02*
X169254560Y-83275940D01*
X169206941Y-83371179D01*
X169159322Y-83418798D01*
X169016465Y-83514036D01*
X168825989Y-83561655D01*
X168445037Y-83561655D01*
X168349799Y-83514036D01*
X168302180Y-83466417D01*
X168254560Y-83371179D01*
X168254560Y-83180702D01*
X168302180Y-83085464D01*
X168349799Y-83037845D01*
X168445037Y-82990226D01*
X168683132Y-82990226D01*
X168778370Y-83037845D01*
X168825989Y-83085464D01*
X168873608Y-83180702D01*
X168873608Y-83371179D01*
X168825989Y-83466417D01*
X168778370Y-83514036D01*
X168683132Y-83561655D01*
G04 #@! TO.C,C180*
X166154242Y-84374812D02*
X166201861Y-84327193D01*
X166249480Y-84184336D01*
X166249480Y-84089098D01*
X166201861Y-83946240D01*
X166106623Y-83851002D01*
X166011385Y-83803383D01*
X165820909Y-83755764D01*
X165678052Y-83755764D01*
X165487576Y-83803383D01*
X165392338Y-83851002D01*
X165297100Y-83946240D01*
X165249480Y-84089098D01*
X165249480Y-84184336D01*
X165297100Y-84327193D01*
X165344719Y-84374812D01*
X166249480Y-85327193D02*
X166249480Y-84755764D01*
X166249480Y-85041479D02*
X165249480Y-85041479D01*
X165392338Y-84946240D01*
X165487576Y-84851002D01*
X165535195Y-84755764D01*
X165678052Y-85898621D02*
X165630433Y-85803383D01*
X165582814Y-85755764D01*
X165487576Y-85708145D01*
X165439957Y-85708145D01*
X165344719Y-85755764D01*
X165297100Y-85803383D01*
X165249480Y-85898621D01*
X165249480Y-86089098D01*
X165297100Y-86184336D01*
X165344719Y-86231955D01*
X165439957Y-86279574D01*
X165487576Y-86279574D01*
X165582814Y-86231955D01*
X165630433Y-86184336D01*
X165678052Y-86089098D01*
X165678052Y-85898621D01*
X165725671Y-85803383D01*
X165773290Y-85755764D01*
X165868528Y-85708145D01*
X166059004Y-85708145D01*
X166154242Y-85755764D01*
X166201861Y-85803383D01*
X166249480Y-85898621D01*
X166249480Y-86089098D01*
X166201861Y-86184336D01*
X166154242Y-86231955D01*
X166059004Y-86279574D01*
X165868528Y-86279574D01*
X165773290Y-86231955D01*
X165725671Y-86184336D01*
X165678052Y-86089098D01*
X165249480Y-86898621D02*
X165249480Y-86993860D01*
X165297100Y-87089098D01*
X165344719Y-87136717D01*
X165439957Y-87184336D01*
X165630433Y-87231955D01*
X165868528Y-87231955D01*
X166059004Y-87184336D01*
X166154242Y-87136717D01*
X166201861Y-87089098D01*
X166249480Y-86993860D01*
X166249480Y-86898621D01*
X166201861Y-86803383D01*
X166154242Y-86755764D01*
X166059004Y-86708145D01*
X165868528Y-86660526D01*
X165630433Y-86660526D01*
X165439957Y-86708145D01*
X165344719Y-86755764D01*
X165297100Y-86803383D01*
X165249480Y-86898621D01*
G04 #@! TO.C,C181*
X157712587Y-85486382D02*
X157760206Y-85534001D01*
X157903063Y-85581620D01*
X157998301Y-85581620D01*
X158141159Y-85534001D01*
X158236397Y-85438763D01*
X158284016Y-85343525D01*
X158331635Y-85153049D01*
X158331635Y-85010192D01*
X158284016Y-84819716D01*
X158236397Y-84724478D01*
X158141159Y-84629240D01*
X157998301Y-84581620D01*
X157903063Y-84581620D01*
X157760206Y-84629240D01*
X157712587Y-84676859D01*
X156760206Y-85581620D02*
X157331635Y-85581620D01*
X157045920Y-85581620D02*
X157045920Y-84581620D01*
X157141159Y-84724478D01*
X157236397Y-84819716D01*
X157331635Y-84867335D01*
X156188778Y-85010192D02*
X156284016Y-84962573D01*
X156331635Y-84914954D01*
X156379254Y-84819716D01*
X156379254Y-84772097D01*
X156331635Y-84676859D01*
X156284016Y-84629240D01*
X156188778Y-84581620D01*
X155998301Y-84581620D01*
X155903063Y-84629240D01*
X155855444Y-84676859D01*
X155807825Y-84772097D01*
X155807825Y-84819716D01*
X155855444Y-84914954D01*
X155903063Y-84962573D01*
X155998301Y-85010192D01*
X156188778Y-85010192D01*
X156284016Y-85057811D01*
X156331635Y-85105430D01*
X156379254Y-85200668D01*
X156379254Y-85391144D01*
X156331635Y-85486382D01*
X156284016Y-85534001D01*
X156188778Y-85581620D01*
X155998301Y-85581620D01*
X155903063Y-85534001D01*
X155855444Y-85486382D01*
X155807825Y-85391144D01*
X155807825Y-85200668D01*
X155855444Y-85105430D01*
X155903063Y-85057811D01*
X155998301Y-85010192D01*
X154855444Y-85581620D02*
X155426873Y-85581620D01*
X155141159Y-85581620D02*
X155141159Y-84581620D01*
X155236397Y-84724478D01*
X155331635Y-84819716D01*
X155426873Y-84867335D01*
G04 #@! TO.C,C219*
X109232768Y-103859501D02*
X109280387Y-103907120D01*
X109423244Y-103954739D01*
X109518482Y-103954739D01*
X109661340Y-103907120D01*
X109756578Y-103811882D01*
X109804197Y-103716644D01*
X109851816Y-103526168D01*
X109851816Y-103383311D01*
X109804197Y-103192835D01*
X109756578Y-103097597D01*
X109661340Y-103002359D01*
X109518482Y-102954739D01*
X109423244Y-102954739D01*
X109280387Y-103002359D01*
X109232768Y-103049978D01*
X108851816Y-103049978D02*
X108804197Y-103002359D01*
X108708959Y-102954739D01*
X108470863Y-102954739D01*
X108375625Y-103002359D01*
X108328006Y-103049978D01*
X108280387Y-103145216D01*
X108280387Y-103240454D01*
X108328006Y-103383311D01*
X108899435Y-103954739D01*
X108280387Y-103954739D01*
X107328006Y-103954739D02*
X107899435Y-103954739D01*
X107613721Y-103954739D02*
X107613721Y-102954739D01*
X107708959Y-103097597D01*
X107804197Y-103192835D01*
X107899435Y-103240454D01*
X106851816Y-103954739D02*
X106661340Y-103954739D01*
X106566101Y-103907120D01*
X106518482Y-103859501D01*
X106423244Y-103716644D01*
X106375625Y-103526168D01*
X106375625Y-103145216D01*
X106423244Y-103049978D01*
X106470863Y-103002359D01*
X106566101Y-102954739D01*
X106756578Y-102954739D01*
X106851816Y-103002359D01*
X106899435Y-103049978D01*
X106947054Y-103145216D01*
X106947054Y-103383311D01*
X106899435Y-103478549D01*
X106851816Y-103526168D01*
X106756578Y-103573787D01*
X106566101Y-103573787D01*
X106470863Y-103526168D01*
X106423244Y-103478549D01*
X106375625Y-103383311D01*
G04 #@! TO.C,D3*
X156216575Y-114957800D02*
X156216575Y-113957800D01*
X155978480Y-113957800D01*
X155835622Y-114005420D01*
X155740384Y-114100658D01*
X155692765Y-114195896D01*
X155645146Y-114386372D01*
X155645146Y-114529229D01*
X155692765Y-114719705D01*
X155740384Y-114814943D01*
X155835622Y-114910181D01*
X155978480Y-114957800D01*
X156216575Y-114957800D01*
X155311813Y-113957800D02*
X154692765Y-113957800D01*
X155026099Y-114338753D01*
X154883241Y-114338753D01*
X154788003Y-114386372D01*
X154740384Y-114433991D01*
X154692765Y-114529229D01*
X154692765Y-114767324D01*
X154740384Y-114862562D01*
X154788003Y-114910181D01*
X154883241Y-114957800D01*
X155168956Y-114957800D01*
X155264194Y-114910181D01*
X155311813Y-114862562D01*
G04 #@! TO.C,D4*
X156216575Y-116438620D02*
X156216575Y-115438620D01*
X155978480Y-115438620D01*
X155835622Y-115486240D01*
X155740384Y-115581478D01*
X155692765Y-115676716D01*
X155645146Y-115867192D01*
X155645146Y-116010049D01*
X155692765Y-116200525D01*
X155740384Y-116295763D01*
X155835622Y-116391001D01*
X155978480Y-116438620D01*
X156216575Y-116438620D01*
X154788003Y-115771954D02*
X154788003Y-116438620D01*
X155026099Y-115391001D02*
X155264194Y-116105287D01*
X154645146Y-116105287D01*
G04 #@! TO.C,D5*
X136503635Y-105049260D02*
X136503635Y-104049260D01*
X136265540Y-104049260D01*
X136122682Y-104096880D01*
X136027444Y-104192118D01*
X135979825Y-104287356D01*
X135932206Y-104477832D01*
X135932206Y-104620689D01*
X135979825Y-104811165D01*
X136027444Y-104906403D01*
X136122682Y-105001641D01*
X136265540Y-105049260D01*
X136503635Y-105049260D01*
X135027444Y-104049260D02*
X135503635Y-104049260D01*
X135551254Y-104525451D01*
X135503635Y-104477832D01*
X135408397Y-104430213D01*
X135170301Y-104430213D01*
X135075063Y-104477832D01*
X135027444Y-104525451D01*
X134979825Y-104620689D01*
X134979825Y-104858784D01*
X135027444Y-104954022D01*
X135075063Y-105001641D01*
X135170301Y-105049260D01*
X135408397Y-105049260D01*
X135503635Y-105001641D01*
X135551254Y-104954022D01*
G04 #@! TO.C,R7*
X146176000Y-96528593D02*
X145699810Y-96195260D01*
X146176000Y-95957164D02*
X145176000Y-95957164D01*
X145176000Y-96338117D01*
X145223620Y-96433355D01*
X145271239Y-96480974D01*
X145366477Y-96528593D01*
X145509334Y-96528593D01*
X145604572Y-96480974D01*
X145652191Y-96433355D01*
X145699810Y-96338117D01*
X145699810Y-95957164D01*
X145176000Y-96861926D02*
X145176000Y-97528593D01*
X146176000Y-97100021D01*
G04 #@! TO.C,R8*
X152426413Y-97052788D02*
X152759747Y-96576598D01*
X152997842Y-97052788D02*
X152997842Y-96052788D01*
X152616889Y-96052788D01*
X152521651Y-96100408D01*
X152474032Y-96148027D01*
X152426413Y-96243265D01*
X152426413Y-96386122D01*
X152474032Y-96481360D01*
X152521651Y-96528979D01*
X152616889Y-96576598D01*
X152997842Y-96576598D01*
X151854985Y-96481360D02*
X151950223Y-96433741D01*
X151997842Y-96386122D01*
X152045461Y-96290884D01*
X152045461Y-96243265D01*
X151997842Y-96148027D01*
X151950223Y-96100408D01*
X151854985Y-96052788D01*
X151664508Y-96052788D01*
X151569270Y-96100408D01*
X151521651Y-96148027D01*
X151474032Y-96243265D01*
X151474032Y-96290884D01*
X151521651Y-96386122D01*
X151569270Y-96433741D01*
X151664508Y-96481360D01*
X151854985Y-96481360D01*
X151950223Y-96528979D01*
X151997842Y-96576598D01*
X152045461Y-96671836D01*
X152045461Y-96862312D01*
X151997842Y-96957550D01*
X151950223Y-97005169D01*
X151854985Y-97052788D01*
X151664508Y-97052788D01*
X151569270Y-97005169D01*
X151521651Y-96957550D01*
X151474032Y-96862312D01*
X151474032Y-96671836D01*
X151521651Y-96576598D01*
X151569270Y-96528979D01*
X151664508Y-96481360D01*
G04 #@! TO.C,R15*
X165067217Y-109767900D02*
X165400550Y-109291710D01*
X165638645Y-109767900D02*
X165638645Y-108767900D01*
X165257693Y-108767900D01*
X165162455Y-108815520D01*
X165114836Y-108863139D01*
X165067217Y-108958377D01*
X165067217Y-109101234D01*
X165114836Y-109196472D01*
X165162455Y-109244091D01*
X165257693Y-109291710D01*
X165638645Y-109291710D01*
X164114836Y-109767900D02*
X164686264Y-109767900D01*
X164400550Y-109767900D02*
X164400550Y-108767900D01*
X164495788Y-108910758D01*
X164591026Y-109005996D01*
X164686264Y-109053615D01*
X163210074Y-108767900D02*
X163686264Y-108767900D01*
X163733883Y-109244091D01*
X163686264Y-109196472D01*
X163591026Y-109148853D01*
X163352931Y-109148853D01*
X163257693Y-109196472D01*
X163210074Y-109244091D01*
X163162455Y-109339329D01*
X163162455Y-109577424D01*
X163210074Y-109672662D01*
X163257693Y-109720281D01*
X163352931Y-109767900D01*
X163591026Y-109767900D01*
X163686264Y-109720281D01*
X163733883Y-109672662D01*
G04 #@! TO.C,R23*
X152870137Y-117636820D02*
X153203470Y-117160630D01*
X153441565Y-117636820D02*
X153441565Y-116636820D01*
X153060613Y-116636820D01*
X152965375Y-116684440D01*
X152917756Y-116732059D01*
X152870137Y-116827297D01*
X152870137Y-116970154D01*
X152917756Y-117065392D01*
X152965375Y-117113011D01*
X153060613Y-117160630D01*
X153441565Y-117160630D01*
X152489184Y-116732059D02*
X152441565Y-116684440D01*
X152346327Y-116636820D01*
X152108232Y-116636820D01*
X152012994Y-116684440D01*
X151965375Y-116732059D01*
X151917756Y-116827297D01*
X151917756Y-116922535D01*
X151965375Y-117065392D01*
X152536803Y-117636820D01*
X151917756Y-117636820D01*
X151584422Y-116636820D02*
X150965375Y-116636820D01*
X151298708Y-117017773D01*
X151155851Y-117017773D01*
X151060613Y-117065392D01*
X151012994Y-117113011D01*
X150965375Y-117208249D01*
X150965375Y-117446344D01*
X151012994Y-117541582D01*
X151060613Y-117589201D01*
X151155851Y-117636820D01*
X151441565Y-117636820D01*
X151536803Y-117589201D01*
X151584422Y-117541582D01*
G04 #@! TO.C,R24*
X152870137Y-119585000D02*
X153203470Y-119108810D01*
X153441565Y-119585000D02*
X153441565Y-118585000D01*
X153060613Y-118585000D01*
X152965375Y-118632620D01*
X152917756Y-118680239D01*
X152870137Y-118775477D01*
X152870137Y-118918334D01*
X152917756Y-119013572D01*
X152965375Y-119061191D01*
X153060613Y-119108810D01*
X153441565Y-119108810D01*
X152489184Y-118680239D02*
X152441565Y-118632620D01*
X152346327Y-118585000D01*
X152108232Y-118585000D01*
X152012994Y-118632620D01*
X151965375Y-118680239D01*
X151917756Y-118775477D01*
X151917756Y-118870715D01*
X151965375Y-119013572D01*
X152536803Y-119585000D01*
X151917756Y-119585000D01*
X151060613Y-118918334D02*
X151060613Y-119585000D01*
X151298708Y-118537381D02*
X151536803Y-119251667D01*
X150917756Y-119251667D01*
G04 #@! TO.C,R25*
X124131060Y-129887742D02*
X123654870Y-129554409D01*
X124131060Y-129316314D02*
X123131060Y-129316314D01*
X123131060Y-129697266D01*
X123178680Y-129792504D01*
X123226299Y-129840123D01*
X123321537Y-129887742D01*
X123464394Y-129887742D01*
X123559632Y-129840123D01*
X123607251Y-129792504D01*
X123654870Y-129697266D01*
X123654870Y-129316314D01*
X123226299Y-130268695D02*
X123178680Y-130316314D01*
X123131060Y-130411552D01*
X123131060Y-130649647D01*
X123178680Y-130744885D01*
X123226299Y-130792504D01*
X123321537Y-130840123D01*
X123416775Y-130840123D01*
X123559632Y-130792504D01*
X124131060Y-130221076D01*
X124131060Y-130840123D01*
X123131060Y-131744885D02*
X123131060Y-131268695D01*
X123607251Y-131221076D01*
X123559632Y-131268695D01*
X123512013Y-131363933D01*
X123512013Y-131602028D01*
X123559632Y-131697266D01*
X123607251Y-131744885D01*
X123702489Y-131792504D01*
X123940584Y-131792504D01*
X124035822Y-131744885D01*
X124083441Y-131697266D01*
X124131060Y-131602028D01*
X124131060Y-131363933D01*
X124083441Y-131268695D01*
X124035822Y-131221076D01*
G04 #@! TO.C,R28*
X136393157Y-109610420D02*
X136726490Y-109134230D01*
X136964585Y-109610420D02*
X136964585Y-108610420D01*
X136583633Y-108610420D01*
X136488395Y-108658040D01*
X136440776Y-108705659D01*
X136393157Y-108800897D01*
X136393157Y-108943754D01*
X136440776Y-109038992D01*
X136488395Y-109086611D01*
X136583633Y-109134230D01*
X136964585Y-109134230D01*
X136012204Y-108705659D02*
X135964585Y-108658040D01*
X135869347Y-108610420D01*
X135631252Y-108610420D01*
X135536014Y-108658040D01*
X135488395Y-108705659D01*
X135440776Y-108800897D01*
X135440776Y-108896135D01*
X135488395Y-109038992D01*
X136059823Y-109610420D01*
X135440776Y-109610420D01*
X134869347Y-109038992D02*
X134964585Y-108991373D01*
X135012204Y-108943754D01*
X135059823Y-108848516D01*
X135059823Y-108800897D01*
X135012204Y-108705659D01*
X134964585Y-108658040D01*
X134869347Y-108610420D01*
X134678871Y-108610420D01*
X134583633Y-108658040D01*
X134536014Y-108705659D01*
X134488395Y-108800897D01*
X134488395Y-108848516D01*
X134536014Y-108943754D01*
X134583633Y-108991373D01*
X134678871Y-109038992D01*
X134869347Y-109038992D01*
X134964585Y-109086611D01*
X135012204Y-109134230D01*
X135059823Y-109229468D01*
X135059823Y-109419944D01*
X135012204Y-109515182D01*
X134964585Y-109562801D01*
X134869347Y-109610420D01*
X134678871Y-109610420D01*
X134583633Y-109562801D01*
X134536014Y-109515182D01*
X134488395Y-109419944D01*
X134488395Y-109229468D01*
X134536014Y-109134230D01*
X134583633Y-109086611D01*
X134678871Y-109038992D01*
G04 #@! TO.C,TP23*
X162862995Y-116811560D02*
X162291566Y-116811560D01*
X162577280Y-117811560D02*
X162577280Y-116811560D01*
X161958233Y-117811560D02*
X161958233Y-116811560D01*
X161577280Y-116811560D01*
X161482042Y-116859180D01*
X161434423Y-116906799D01*
X161386804Y-117002037D01*
X161386804Y-117144894D01*
X161434423Y-117240132D01*
X161482042Y-117287751D01*
X161577280Y-117335370D01*
X161958233Y-117335370D01*
X161005852Y-116906799D02*
X160958233Y-116859180D01*
X160862995Y-116811560D01*
X160624900Y-116811560D01*
X160529661Y-116859180D01*
X160482042Y-116906799D01*
X160434423Y-117002037D01*
X160434423Y-117097275D01*
X160482042Y-117240132D01*
X161053471Y-117811560D01*
X160434423Y-117811560D01*
X160101090Y-116811560D02*
X159482042Y-116811560D01*
X159815376Y-117192513D01*
X159672519Y-117192513D01*
X159577280Y-117240132D01*
X159529661Y-117287751D01*
X159482042Y-117382989D01*
X159482042Y-117621084D01*
X159529661Y-117716322D01*
X159577280Y-117763941D01*
X159672519Y-117811560D01*
X159958233Y-117811560D01*
X160053471Y-117763941D01*
X160101090Y-117716322D01*
G04 #@! TO.C,C212*
X188364262Y-89574192D02*
X188411881Y-89526573D01*
X188459500Y-89383716D01*
X188459500Y-89288478D01*
X188411881Y-89145620D01*
X188316643Y-89050382D01*
X188221405Y-89002763D01*
X188030929Y-88955144D01*
X187888072Y-88955144D01*
X187697596Y-89002763D01*
X187602358Y-89050382D01*
X187507120Y-89145620D01*
X187459500Y-89288478D01*
X187459500Y-89383716D01*
X187507120Y-89526573D01*
X187554739Y-89574192D01*
X187554739Y-89955144D02*
X187507120Y-90002763D01*
X187459500Y-90098001D01*
X187459500Y-90336097D01*
X187507120Y-90431335D01*
X187554739Y-90478954D01*
X187649977Y-90526573D01*
X187745215Y-90526573D01*
X187888072Y-90478954D01*
X188459500Y-89907525D01*
X188459500Y-90526573D01*
X188459500Y-91478954D02*
X188459500Y-90907525D01*
X188459500Y-91193240D02*
X187459500Y-91193240D01*
X187602358Y-91098001D01*
X187697596Y-91002763D01*
X187745215Y-90907525D01*
X187554739Y-91859906D02*
X187507120Y-91907525D01*
X187459500Y-92002763D01*
X187459500Y-92240859D01*
X187507120Y-92336097D01*
X187554739Y-92383716D01*
X187649977Y-92431335D01*
X187745215Y-92431335D01*
X187888072Y-92383716D01*
X188459500Y-91812287D01*
X188459500Y-92431335D01*
G04 #@! TO.C,D19*
X111734765Y-114901920D02*
X111734765Y-113901920D01*
X111496670Y-113901920D01*
X111353813Y-113949540D01*
X111258575Y-114044778D01*
X111210956Y-114140016D01*
X111163337Y-114330492D01*
X111163337Y-114473349D01*
X111210956Y-114663825D01*
X111258575Y-114759063D01*
X111353813Y-114854301D01*
X111496670Y-114901920D01*
X111734765Y-114901920D01*
X110210956Y-114901920D02*
X110782384Y-114901920D01*
X110496670Y-114901920D02*
X110496670Y-113901920D01*
X110591908Y-114044778D01*
X110687146Y-114140016D01*
X110782384Y-114187635D01*
X109734765Y-114901920D02*
X109544289Y-114901920D01*
X109449051Y-114854301D01*
X109401432Y-114806682D01*
X109306194Y-114663825D01*
X109258575Y-114473349D01*
X109258575Y-114092397D01*
X109306194Y-113997159D01*
X109353813Y-113949540D01*
X109449051Y-113901920D01*
X109639527Y-113901920D01*
X109734765Y-113949540D01*
X109782384Y-113997159D01*
X109830003Y-114092397D01*
X109830003Y-114330492D01*
X109782384Y-114425730D01*
X109734765Y-114473349D01*
X109639527Y-114520968D01*
X109449051Y-114520968D01*
X109353813Y-114473349D01*
X109306194Y-114425730D01*
X109258575Y-114330492D01*
G04 #@! TO.C,R46*
X122369817Y-121759900D02*
X122703150Y-121283710D01*
X122941245Y-121759900D02*
X122941245Y-120759900D01*
X122560293Y-120759900D01*
X122465055Y-120807520D01*
X122417436Y-120855139D01*
X122369817Y-120950377D01*
X122369817Y-121093234D01*
X122417436Y-121188472D01*
X122465055Y-121236091D01*
X122560293Y-121283710D01*
X122941245Y-121283710D01*
X121512674Y-121093234D02*
X121512674Y-121759900D01*
X121750769Y-120712281D02*
X121988864Y-121426567D01*
X121369817Y-121426567D01*
X120560293Y-120759900D02*
X120750769Y-120759900D01*
X120846007Y-120807520D01*
X120893626Y-120855139D01*
X120988864Y-120997996D01*
X121036483Y-121188472D01*
X121036483Y-121569424D01*
X120988864Y-121664662D01*
X120941245Y-121712281D01*
X120846007Y-121759900D01*
X120655531Y-121759900D01*
X120560293Y-121712281D01*
X120512674Y-121664662D01*
X120465055Y-121569424D01*
X120465055Y-121331329D01*
X120512674Y-121236091D01*
X120560293Y-121188472D01*
X120655531Y-121140853D01*
X120846007Y-121140853D01*
X120941245Y-121188472D01*
X120988864Y-121236091D01*
X121036483Y-121331329D01*
G04 #@! TO.C,R47*
X122364737Y-123337240D02*
X122698070Y-122861050D01*
X122936165Y-123337240D02*
X122936165Y-122337240D01*
X122555213Y-122337240D01*
X122459975Y-122384860D01*
X122412356Y-122432479D01*
X122364737Y-122527717D01*
X122364737Y-122670574D01*
X122412356Y-122765812D01*
X122459975Y-122813431D01*
X122555213Y-122861050D01*
X122936165Y-122861050D01*
X121507594Y-122670574D02*
X121507594Y-123337240D01*
X121745689Y-122289621D02*
X121983784Y-123003907D01*
X121364737Y-123003907D01*
X121079022Y-122337240D02*
X120412356Y-122337240D01*
X120840927Y-123337240D01*
G04 #@! TO.C,R48*
X122367277Y-124894260D02*
X122700610Y-124418070D01*
X122938705Y-124894260D02*
X122938705Y-123894260D01*
X122557753Y-123894260D01*
X122462515Y-123941880D01*
X122414896Y-123989499D01*
X122367277Y-124084737D01*
X122367277Y-124227594D01*
X122414896Y-124322832D01*
X122462515Y-124370451D01*
X122557753Y-124418070D01*
X122938705Y-124418070D01*
X121510134Y-124227594D02*
X121510134Y-124894260D01*
X121748229Y-123846641D02*
X121986324Y-124560927D01*
X121367277Y-124560927D01*
X120843467Y-124322832D02*
X120938705Y-124275213D01*
X120986324Y-124227594D01*
X121033943Y-124132356D01*
X121033943Y-124084737D01*
X120986324Y-123989499D01*
X120938705Y-123941880D01*
X120843467Y-123894260D01*
X120652991Y-123894260D01*
X120557753Y-123941880D01*
X120510134Y-123989499D01*
X120462515Y-124084737D01*
X120462515Y-124132356D01*
X120510134Y-124227594D01*
X120557753Y-124275213D01*
X120652991Y-124322832D01*
X120843467Y-124322832D01*
X120938705Y-124370451D01*
X120986324Y-124418070D01*
X121033943Y-124513308D01*
X121033943Y-124703784D01*
X120986324Y-124799022D01*
X120938705Y-124846641D01*
X120843467Y-124894260D01*
X120652991Y-124894260D01*
X120557753Y-124846641D01*
X120510134Y-124799022D01*
X120462515Y-124703784D01*
X120462515Y-124513308D01*
X120510134Y-124418070D01*
X120557753Y-124370451D01*
X120652991Y-124322832D01*
G04 #@! TO.C,R49*
X122334257Y-127944800D02*
X122667590Y-127468610D01*
X122905685Y-127944800D02*
X122905685Y-126944800D01*
X122524733Y-126944800D01*
X122429495Y-126992420D01*
X122381876Y-127040039D01*
X122334257Y-127135277D01*
X122334257Y-127278134D01*
X122381876Y-127373372D01*
X122429495Y-127420991D01*
X122524733Y-127468610D01*
X122905685Y-127468610D01*
X121477114Y-127278134D02*
X121477114Y-127944800D01*
X121715209Y-126897181D02*
X121953304Y-127611467D01*
X121334257Y-127611467D01*
X120905685Y-127944800D02*
X120715209Y-127944800D01*
X120619971Y-127897181D01*
X120572352Y-127849562D01*
X120477114Y-127706705D01*
X120429495Y-127516229D01*
X120429495Y-127135277D01*
X120477114Y-127040039D01*
X120524733Y-126992420D01*
X120619971Y-126944800D01*
X120810447Y-126944800D01*
X120905685Y-126992420D01*
X120953304Y-127040039D01*
X121000923Y-127135277D01*
X121000923Y-127373372D01*
X120953304Y-127468610D01*
X120905685Y-127516229D01*
X120810447Y-127563848D01*
X120619971Y-127563848D01*
X120524733Y-127516229D01*
X120477114Y-127468610D01*
X120429495Y-127373372D01*
G04 #@! TO.C,R50*
X122331717Y-129473880D02*
X122665050Y-128997690D01*
X122903145Y-129473880D02*
X122903145Y-128473880D01*
X122522193Y-128473880D01*
X122426955Y-128521500D01*
X122379336Y-128569119D01*
X122331717Y-128664357D01*
X122331717Y-128807214D01*
X122379336Y-128902452D01*
X122426955Y-128950071D01*
X122522193Y-128997690D01*
X122903145Y-128997690D01*
X121426955Y-128473880D02*
X121903145Y-128473880D01*
X121950764Y-128950071D01*
X121903145Y-128902452D01*
X121807907Y-128854833D01*
X121569812Y-128854833D01*
X121474574Y-128902452D01*
X121426955Y-128950071D01*
X121379336Y-129045309D01*
X121379336Y-129283404D01*
X121426955Y-129378642D01*
X121474574Y-129426261D01*
X121569812Y-129473880D01*
X121807907Y-129473880D01*
X121903145Y-129426261D01*
X121950764Y-129378642D01*
X120760288Y-128473880D02*
X120665050Y-128473880D01*
X120569812Y-128521500D01*
X120522193Y-128569119D01*
X120474574Y-128664357D01*
X120426955Y-128854833D01*
X120426955Y-129092928D01*
X120474574Y-129283404D01*
X120522193Y-129378642D01*
X120569812Y-129426261D01*
X120665050Y-129473880D01*
X120760288Y-129473880D01*
X120855526Y-129426261D01*
X120903145Y-129378642D01*
X120950764Y-129283404D01*
X120998383Y-129092928D01*
X120998383Y-128854833D01*
X120950764Y-128664357D01*
X120903145Y-128569119D01*
X120855526Y-128521500D01*
X120760288Y-128473880D01*
G04 #@! TO.C,R51*
X122336797Y-131020740D02*
X122670130Y-130544550D01*
X122908225Y-131020740D02*
X122908225Y-130020740D01*
X122527273Y-130020740D01*
X122432035Y-130068360D01*
X122384416Y-130115979D01*
X122336797Y-130211217D01*
X122336797Y-130354074D01*
X122384416Y-130449312D01*
X122432035Y-130496931D01*
X122527273Y-130544550D01*
X122908225Y-130544550D01*
X121432035Y-130020740D02*
X121908225Y-130020740D01*
X121955844Y-130496931D01*
X121908225Y-130449312D01*
X121812987Y-130401693D01*
X121574892Y-130401693D01*
X121479654Y-130449312D01*
X121432035Y-130496931D01*
X121384416Y-130592169D01*
X121384416Y-130830264D01*
X121432035Y-130925502D01*
X121479654Y-130973121D01*
X121574892Y-131020740D01*
X121812987Y-131020740D01*
X121908225Y-130973121D01*
X121955844Y-130925502D01*
X120432035Y-131020740D02*
X121003463Y-131020740D01*
X120717749Y-131020740D02*
X120717749Y-130020740D01*
X120812987Y-130163598D01*
X120908225Y-130258836D01*
X121003463Y-130306455D01*
G04 #@! TO.C,R52*
X115857620Y-132790962D02*
X115381430Y-132457629D01*
X115857620Y-132219534D02*
X114857620Y-132219534D01*
X114857620Y-132600486D01*
X114905240Y-132695724D01*
X114952859Y-132743343D01*
X115048097Y-132790962D01*
X115190954Y-132790962D01*
X115286192Y-132743343D01*
X115333811Y-132695724D01*
X115381430Y-132600486D01*
X115381430Y-132219534D01*
X114857620Y-133695724D02*
X114857620Y-133219534D01*
X115333811Y-133171915D01*
X115286192Y-133219534D01*
X115238573Y-133314772D01*
X115238573Y-133552867D01*
X115286192Y-133648105D01*
X115333811Y-133695724D01*
X115429049Y-133743343D01*
X115667144Y-133743343D01*
X115762382Y-133695724D01*
X115810001Y-133648105D01*
X115857620Y-133552867D01*
X115857620Y-133314772D01*
X115810001Y-133219534D01*
X115762382Y-133171915D01*
X114952859Y-134124296D02*
X114905240Y-134171915D01*
X114857620Y-134267153D01*
X114857620Y-134505248D01*
X114905240Y-134600486D01*
X114952859Y-134648105D01*
X115048097Y-134695724D01*
X115143335Y-134695724D01*
X115286192Y-134648105D01*
X115857620Y-134076677D01*
X115857620Y-134695724D01*
G04 #@! TO.C,R53*
X114328540Y-132793502D02*
X113852350Y-132460169D01*
X114328540Y-132222074D02*
X113328540Y-132222074D01*
X113328540Y-132603026D01*
X113376160Y-132698264D01*
X113423779Y-132745883D01*
X113519017Y-132793502D01*
X113661874Y-132793502D01*
X113757112Y-132745883D01*
X113804731Y-132698264D01*
X113852350Y-132603026D01*
X113852350Y-132222074D01*
X113328540Y-133698264D02*
X113328540Y-133222074D01*
X113804731Y-133174455D01*
X113757112Y-133222074D01*
X113709493Y-133317312D01*
X113709493Y-133555407D01*
X113757112Y-133650645D01*
X113804731Y-133698264D01*
X113899969Y-133745883D01*
X114138064Y-133745883D01*
X114233302Y-133698264D01*
X114280921Y-133650645D01*
X114328540Y-133555407D01*
X114328540Y-133317312D01*
X114280921Y-133222074D01*
X114233302Y-133174455D01*
X113328540Y-134079217D02*
X113328540Y-134698264D01*
X113709493Y-134364931D01*
X113709493Y-134507788D01*
X113757112Y-134603026D01*
X113804731Y-134650645D01*
X113899969Y-134698264D01*
X114138064Y-134698264D01*
X114233302Y-134650645D01*
X114280921Y-134603026D01*
X114328540Y-134507788D01*
X114328540Y-134222074D01*
X114280921Y-134126836D01*
X114233302Y-134079217D01*
G04 #@! TO.C,R54*
X112804540Y-132811282D02*
X112328350Y-132477949D01*
X112804540Y-132239854D02*
X111804540Y-132239854D01*
X111804540Y-132620806D01*
X111852160Y-132716044D01*
X111899779Y-132763663D01*
X111995017Y-132811282D01*
X112137874Y-132811282D01*
X112233112Y-132763663D01*
X112280731Y-132716044D01*
X112328350Y-132620806D01*
X112328350Y-132239854D01*
X111804540Y-133716044D02*
X111804540Y-133239854D01*
X112280731Y-133192235D01*
X112233112Y-133239854D01*
X112185493Y-133335092D01*
X112185493Y-133573187D01*
X112233112Y-133668425D01*
X112280731Y-133716044D01*
X112375969Y-133763663D01*
X112614064Y-133763663D01*
X112709302Y-133716044D01*
X112756921Y-133668425D01*
X112804540Y-133573187D01*
X112804540Y-133335092D01*
X112756921Y-133239854D01*
X112709302Y-133192235D01*
X112137874Y-134620806D02*
X112804540Y-134620806D01*
X111756921Y-134382711D02*
X112471207Y-134144616D01*
X112471207Y-134763663D01*
G04 #@! TO.C,R55*
X111272920Y-132803662D02*
X110796730Y-132470329D01*
X111272920Y-132232234D02*
X110272920Y-132232234D01*
X110272920Y-132613186D01*
X110320540Y-132708424D01*
X110368159Y-132756043D01*
X110463397Y-132803662D01*
X110606254Y-132803662D01*
X110701492Y-132756043D01*
X110749111Y-132708424D01*
X110796730Y-132613186D01*
X110796730Y-132232234D01*
X110272920Y-133708424D02*
X110272920Y-133232234D01*
X110749111Y-133184615D01*
X110701492Y-133232234D01*
X110653873Y-133327472D01*
X110653873Y-133565567D01*
X110701492Y-133660805D01*
X110749111Y-133708424D01*
X110844349Y-133756043D01*
X111082444Y-133756043D01*
X111177682Y-133708424D01*
X111225301Y-133660805D01*
X111272920Y-133565567D01*
X111272920Y-133327472D01*
X111225301Y-133232234D01*
X111177682Y-133184615D01*
X110272920Y-134660805D02*
X110272920Y-134184615D01*
X110749111Y-134136996D01*
X110701492Y-134184615D01*
X110653873Y-134279853D01*
X110653873Y-134517948D01*
X110701492Y-134613186D01*
X110749111Y-134660805D01*
X110844349Y-134708424D01*
X111082444Y-134708424D01*
X111177682Y-134660805D01*
X111225301Y-134613186D01*
X111272920Y-134517948D01*
X111272920Y-134279853D01*
X111225301Y-134184615D01*
X111177682Y-134136996D01*
G04 #@! TO.C,R56*
X109766700Y-132803662D02*
X109290510Y-132470329D01*
X109766700Y-132232234D02*
X108766700Y-132232234D01*
X108766700Y-132613186D01*
X108814320Y-132708424D01*
X108861939Y-132756043D01*
X108957177Y-132803662D01*
X109100034Y-132803662D01*
X109195272Y-132756043D01*
X109242891Y-132708424D01*
X109290510Y-132613186D01*
X109290510Y-132232234D01*
X108766700Y-133708424D02*
X108766700Y-133232234D01*
X109242891Y-133184615D01*
X109195272Y-133232234D01*
X109147653Y-133327472D01*
X109147653Y-133565567D01*
X109195272Y-133660805D01*
X109242891Y-133708424D01*
X109338129Y-133756043D01*
X109576224Y-133756043D01*
X109671462Y-133708424D01*
X109719081Y-133660805D01*
X109766700Y-133565567D01*
X109766700Y-133327472D01*
X109719081Y-133232234D01*
X109671462Y-133184615D01*
X108766700Y-134613186D02*
X108766700Y-134422710D01*
X108814320Y-134327472D01*
X108861939Y-134279853D01*
X109004796Y-134184615D01*
X109195272Y-134136996D01*
X109576224Y-134136996D01*
X109671462Y-134184615D01*
X109719081Y-134232234D01*
X109766700Y-134327472D01*
X109766700Y-134517948D01*
X109719081Y-134613186D01*
X109671462Y-134660805D01*
X109576224Y-134708424D01*
X109338129Y-134708424D01*
X109242891Y-134660805D01*
X109195272Y-134613186D01*
X109147653Y-134517948D01*
X109147653Y-134327472D01*
X109195272Y-134232234D01*
X109242891Y-134184615D01*
X109338129Y-134136996D01*
G04 #@! TO.C,R57*
X108237620Y-132796042D02*
X107761430Y-132462709D01*
X108237620Y-132224614D02*
X107237620Y-132224614D01*
X107237620Y-132605566D01*
X107285240Y-132700804D01*
X107332859Y-132748423D01*
X107428097Y-132796042D01*
X107570954Y-132796042D01*
X107666192Y-132748423D01*
X107713811Y-132700804D01*
X107761430Y-132605566D01*
X107761430Y-132224614D01*
X107237620Y-133700804D02*
X107237620Y-133224614D01*
X107713811Y-133176995D01*
X107666192Y-133224614D01*
X107618573Y-133319852D01*
X107618573Y-133557947D01*
X107666192Y-133653185D01*
X107713811Y-133700804D01*
X107809049Y-133748423D01*
X108047144Y-133748423D01*
X108142382Y-133700804D01*
X108190001Y-133653185D01*
X108237620Y-133557947D01*
X108237620Y-133319852D01*
X108190001Y-133224614D01*
X108142382Y-133176995D01*
X107237620Y-134081757D02*
X107237620Y-134748423D01*
X108237620Y-134319852D01*
G04 #@! TO.C,R58*
X116322077Y-117132020D02*
X116655410Y-116655830D01*
X116893505Y-117132020D02*
X116893505Y-116132020D01*
X116512553Y-116132020D01*
X116417315Y-116179640D01*
X116369696Y-116227259D01*
X116322077Y-116322497D01*
X116322077Y-116465354D01*
X116369696Y-116560592D01*
X116417315Y-116608211D01*
X116512553Y-116655830D01*
X116893505Y-116655830D01*
X115417315Y-116132020D02*
X115893505Y-116132020D01*
X115941124Y-116608211D01*
X115893505Y-116560592D01*
X115798267Y-116512973D01*
X115560172Y-116512973D01*
X115464934Y-116560592D01*
X115417315Y-116608211D01*
X115369696Y-116703449D01*
X115369696Y-116941544D01*
X115417315Y-117036782D01*
X115464934Y-117084401D01*
X115560172Y-117132020D01*
X115798267Y-117132020D01*
X115893505Y-117084401D01*
X115941124Y-117036782D01*
X114798267Y-116560592D02*
X114893505Y-116512973D01*
X114941124Y-116465354D01*
X114988743Y-116370116D01*
X114988743Y-116322497D01*
X114941124Y-116227259D01*
X114893505Y-116179640D01*
X114798267Y-116132020D01*
X114607791Y-116132020D01*
X114512553Y-116179640D01*
X114464934Y-116227259D01*
X114417315Y-116322497D01*
X114417315Y-116370116D01*
X114464934Y-116465354D01*
X114512553Y-116512973D01*
X114607791Y-116560592D01*
X114798267Y-116560592D01*
X114893505Y-116608211D01*
X114941124Y-116655830D01*
X114988743Y-116751068D01*
X114988743Y-116941544D01*
X114941124Y-117036782D01*
X114893505Y-117084401D01*
X114798267Y-117132020D01*
X114607791Y-117132020D01*
X114512553Y-117084401D01*
X114464934Y-117036782D01*
X114417315Y-116941544D01*
X114417315Y-116751068D01*
X114464934Y-116655830D01*
X114512553Y-116608211D01*
X114607791Y-116560592D01*
G04 #@! TO.C,R60*
X105897917Y-131169940D02*
X106231250Y-130693750D01*
X106469345Y-131169940D02*
X106469345Y-130169940D01*
X106088393Y-130169940D01*
X105993155Y-130217560D01*
X105945536Y-130265179D01*
X105897917Y-130360417D01*
X105897917Y-130503274D01*
X105945536Y-130598512D01*
X105993155Y-130646131D01*
X106088393Y-130693750D01*
X106469345Y-130693750D01*
X105040774Y-130169940D02*
X105231250Y-130169940D01*
X105326488Y-130217560D01*
X105374107Y-130265179D01*
X105469345Y-130408036D01*
X105516964Y-130598512D01*
X105516964Y-130979464D01*
X105469345Y-131074702D01*
X105421726Y-131122321D01*
X105326488Y-131169940D01*
X105136012Y-131169940D01*
X105040774Y-131122321D01*
X104993155Y-131074702D01*
X104945536Y-130979464D01*
X104945536Y-130741369D01*
X104993155Y-130646131D01*
X105040774Y-130598512D01*
X105136012Y-130550893D01*
X105326488Y-130550893D01*
X105421726Y-130598512D01*
X105469345Y-130646131D01*
X105516964Y-130741369D01*
X104326488Y-130169940D02*
X104231250Y-130169940D01*
X104136012Y-130217560D01*
X104088393Y-130265179D01*
X104040774Y-130360417D01*
X103993155Y-130550893D01*
X103993155Y-130788988D01*
X104040774Y-130979464D01*
X104088393Y-131074702D01*
X104136012Y-131122321D01*
X104231250Y-131169940D01*
X104326488Y-131169940D01*
X104421726Y-131122321D01*
X104469345Y-131074702D01*
X104516964Y-130979464D01*
X104564583Y-130788988D01*
X104564583Y-130550893D01*
X104516964Y-130360417D01*
X104469345Y-130265179D01*
X104421726Y-130217560D01*
X104326488Y-130169940D01*
G04 #@! TO.C,R66*
X162572937Y-116765060D02*
X162906270Y-116288870D01*
X163144365Y-116765060D02*
X163144365Y-115765060D01*
X162763413Y-115765060D01*
X162668175Y-115812680D01*
X162620556Y-115860299D01*
X162572937Y-115955537D01*
X162572937Y-116098394D01*
X162620556Y-116193632D01*
X162668175Y-116241251D01*
X162763413Y-116288870D01*
X163144365Y-116288870D01*
X161715794Y-115765060D02*
X161906270Y-115765060D01*
X162001508Y-115812680D01*
X162049127Y-115860299D01*
X162144365Y-116003156D01*
X162191984Y-116193632D01*
X162191984Y-116574584D01*
X162144365Y-116669822D01*
X162096746Y-116717441D01*
X162001508Y-116765060D01*
X161811032Y-116765060D01*
X161715794Y-116717441D01*
X161668175Y-116669822D01*
X161620556Y-116574584D01*
X161620556Y-116336489D01*
X161668175Y-116241251D01*
X161715794Y-116193632D01*
X161811032Y-116146013D01*
X162001508Y-116146013D01*
X162096746Y-116193632D01*
X162144365Y-116241251D01*
X162191984Y-116336489D01*
X160763413Y-115765060D02*
X160953889Y-115765060D01*
X161049127Y-115812680D01*
X161096746Y-115860299D01*
X161191984Y-116003156D01*
X161239603Y-116193632D01*
X161239603Y-116574584D01*
X161191984Y-116669822D01*
X161144365Y-116717441D01*
X161049127Y-116765060D01*
X160858651Y-116765060D01*
X160763413Y-116717441D01*
X160715794Y-116669822D01*
X160668175Y-116574584D01*
X160668175Y-116336489D01*
X160715794Y-116241251D01*
X160763413Y-116193632D01*
X160858651Y-116146013D01*
X161049127Y-116146013D01*
X161144365Y-116193632D01*
X161191984Y-116241251D01*
X161239603Y-116336489D01*
G04 #@! TO.C,R92*
X111169226Y-112821899D02*
X111502559Y-112345709D01*
X111740654Y-112821899D02*
X111740654Y-111821899D01*
X111359702Y-111821899D01*
X111264464Y-111869519D01*
X111216845Y-111917138D01*
X111169226Y-112012376D01*
X111169226Y-112155233D01*
X111216845Y-112250471D01*
X111264464Y-112298090D01*
X111359702Y-112345709D01*
X111740654Y-112345709D01*
X110693035Y-112821899D02*
X110502559Y-112821899D01*
X110407321Y-112774280D01*
X110359702Y-112726661D01*
X110264464Y-112583804D01*
X110216845Y-112393328D01*
X110216845Y-112012376D01*
X110264464Y-111917138D01*
X110312083Y-111869519D01*
X110407321Y-111821899D01*
X110597797Y-111821899D01*
X110693035Y-111869519D01*
X110740654Y-111917138D01*
X110788273Y-112012376D01*
X110788273Y-112250471D01*
X110740654Y-112345709D01*
X110693035Y-112393328D01*
X110597797Y-112440947D01*
X110407321Y-112440947D01*
X110312083Y-112393328D01*
X110264464Y-112345709D01*
X110216845Y-112250471D01*
X109835892Y-111917138D02*
X109788273Y-111869519D01*
X109693035Y-111821899D01*
X109454940Y-111821899D01*
X109359702Y-111869519D01*
X109312083Y-111917138D01*
X109264464Y-112012376D01*
X109264464Y-112107614D01*
X109312083Y-112250471D01*
X109883511Y-112821899D01*
X109264464Y-112821899D01*
G04 #@! TD*
M02*
