G04 #@! TF.GenerationSoftware,KiCad,Pcbnew,(5.0.2)-1*
G04 #@! TF.CreationDate,2019-04-03T00:40:33-04:00*
G04 #@! TF.ProjectId,RASAC,52415341-432e-46b6-9963-61645f706362,rev?*
G04 #@! TF.SameCoordinates,Original*
G04 #@! TF.FileFunction,Paste,Bot*
G04 #@! TF.FilePolarity,Positive*
%FSLAX46Y46*%
G04 Gerber Fmt 4.6, Leading zero omitted, Abs format (unit mm)*
G04 Created by KiCad (PCBNEW (5.0.2)-1) date 4/3/2019 12:40:33 AM*
%MOMM*%
%LPD*%
G01*
G04 APERTURE LIST*
%ADD10R,0.700000X1.300000*%
%ADD11R,1.143000X0.508000*%
%ADD12C,0.400000*%
%ADD13R,0.500000X0.600000*%
%ADD14R,2.500000X1.000000*%
%ADD15R,1.300000X0.700000*%
%ADD16R,0.600000X0.400000*%
%ADD17R,1.550000X1.300000*%
%ADD18R,1.200000X0.900000*%
%ADD19R,2.000000X4.500000*%
%ADD20R,0.780000X0.780000*%
%ADD21R,1.000000X0.250000*%
%ADD22R,0.250000X1.000000*%
%ADD23R,1.250000X1.000000*%
%ADD24R,1.000000X1.250000*%
%ADD25R,0.800000X0.750000*%
%ADD26R,1.000000X2.500000*%
%ADD27R,0.800000X0.800000*%
%ADD28R,0.500000X0.900000*%
%ADD29R,0.900000X0.500000*%
G04 APERTURE END LIST*
D10*
G04 #@! TO.C,R69*
X160944520Y-125539500D03*
X162844520Y-125539500D03*
G04 #@! TD*
G04 #@! TO.C,R64*
X162841980Y-122529600D03*
X160941980Y-122529600D03*
G04 #@! TD*
D11*
G04 #@! TO.C,U7*
X139313920Y-100185220D03*
X139313920Y-101455220D03*
X139313920Y-102725220D03*
X139313920Y-103995220D03*
X132963920Y-103995220D03*
X132963920Y-102725220D03*
X132963920Y-101455220D03*
X132963920Y-100185220D03*
G04 #@! TD*
D12*
G04 #@! TO.C,U1*
X142255508Y-119533450D03*
X143055508Y-119533450D03*
X143855508Y-119533450D03*
X144655508Y-119533450D03*
X145455508Y-119533450D03*
X146255508Y-119533450D03*
X147055508Y-119533450D03*
X147855508Y-119533450D03*
X148655508Y-119533450D03*
X149455508Y-119533450D03*
X150255508Y-119533450D03*
X151055508Y-119533450D03*
X151855508Y-119533450D03*
X152655508Y-119533450D03*
X153455508Y-119533450D03*
X154255508Y-119533450D03*
X155055508Y-119533450D03*
X155855508Y-119533450D03*
X142255508Y-120333450D03*
X143055508Y-120333450D03*
X143855508Y-120333450D03*
X144655508Y-120333450D03*
X145455508Y-120333450D03*
X146255508Y-120333450D03*
X147055508Y-120333450D03*
X147855508Y-120333450D03*
X148655508Y-120333450D03*
X149455508Y-120333450D03*
X150255508Y-120333450D03*
X151055508Y-120333450D03*
X151855508Y-120333450D03*
X152655508Y-120333450D03*
X153455508Y-120333450D03*
X154255508Y-120333450D03*
X155055508Y-120333450D03*
X155855508Y-120333450D03*
X142255508Y-121133450D03*
X143055508Y-121133450D03*
X143855508Y-121133450D03*
X144655508Y-121133450D03*
X145455508Y-121133450D03*
X146255508Y-121133450D03*
X147055508Y-121133450D03*
X147855508Y-121133450D03*
X148655508Y-121133450D03*
X149455508Y-121133450D03*
X150255508Y-121133450D03*
X151055508Y-121133450D03*
X151855508Y-121133450D03*
X152655508Y-121133450D03*
X153455508Y-121133450D03*
X154255508Y-121133450D03*
X155055508Y-121133450D03*
X155855508Y-121133450D03*
X142255508Y-121933450D03*
X143055508Y-121933450D03*
X143855508Y-121933450D03*
X144655508Y-121933450D03*
X145455508Y-121933450D03*
X146255508Y-121933450D03*
X147055508Y-121933450D03*
X147855508Y-121933450D03*
X148655508Y-121933450D03*
X149455508Y-121933450D03*
X150255508Y-121933450D03*
X151055508Y-121933450D03*
X151855508Y-121933450D03*
X152655508Y-121933450D03*
X153455508Y-121933450D03*
X154255508Y-121933450D03*
X155055508Y-121933450D03*
X155855508Y-121933450D03*
X142255508Y-122733450D03*
X143055508Y-122733450D03*
X143855508Y-122733450D03*
X144655508Y-122733450D03*
X145455508Y-122733450D03*
X146255508Y-122733450D03*
X147055508Y-122733450D03*
X147855508Y-122733450D03*
X148655508Y-122733450D03*
X149455508Y-122733450D03*
X150255508Y-122733450D03*
X151055508Y-122733450D03*
X151855508Y-122733450D03*
X152655508Y-122733450D03*
X153455508Y-122733450D03*
X154255508Y-122733450D03*
X155055508Y-122733450D03*
X155855508Y-122733450D03*
X142255508Y-123533450D03*
X143055508Y-123533450D03*
X143855508Y-123533450D03*
X144655508Y-123533450D03*
X145455508Y-123533450D03*
X146255508Y-123533450D03*
X147055508Y-123533450D03*
X147855508Y-123533450D03*
X148655508Y-123533450D03*
X149455508Y-123533450D03*
X150255508Y-123533450D03*
X151055508Y-123533450D03*
X151855508Y-123533450D03*
X152655508Y-123533450D03*
X153455508Y-123533450D03*
X154255508Y-123533450D03*
X155055508Y-123533450D03*
X155855508Y-123533450D03*
X142255508Y-124333450D03*
X143055508Y-124333450D03*
X143855508Y-124333450D03*
X144655508Y-124333450D03*
X145455508Y-124333450D03*
X146255508Y-124333450D03*
X147055508Y-124333450D03*
X147855508Y-124333450D03*
X148655508Y-124333450D03*
X149455508Y-124333450D03*
X150255508Y-124333450D03*
X151055508Y-124333450D03*
X151855508Y-124333450D03*
X152655508Y-124333450D03*
X153455508Y-124333450D03*
X154255508Y-124333450D03*
X155055508Y-124333450D03*
X155855508Y-124333450D03*
X142255508Y-125133450D03*
X143055508Y-125133450D03*
X143855508Y-125133450D03*
X144655508Y-125133450D03*
X145455508Y-125133450D03*
X146255508Y-125133450D03*
X147055508Y-125133450D03*
X147855508Y-125133450D03*
X148655508Y-125133450D03*
X149455508Y-125133450D03*
X150255508Y-125133450D03*
X151055508Y-125133450D03*
X151855508Y-125133450D03*
X152655508Y-125133450D03*
X153455508Y-125133450D03*
X154255508Y-125133450D03*
X155055508Y-125133450D03*
X155855508Y-125133450D03*
X142255508Y-125933450D03*
X143055508Y-125933450D03*
X143855508Y-125933450D03*
X144655508Y-125933450D03*
X145455508Y-125933450D03*
X146255508Y-125933450D03*
X147055508Y-125933450D03*
X147855508Y-125933450D03*
X148655508Y-125933450D03*
X149455508Y-125933450D03*
X150255508Y-125933450D03*
X151055508Y-125933450D03*
X151855508Y-125933450D03*
X152655508Y-125933450D03*
X153455508Y-125933450D03*
X154255508Y-125933450D03*
X155055508Y-125933450D03*
X155855508Y-125933450D03*
X142255508Y-126733450D03*
X143055508Y-126733450D03*
X143855508Y-126733450D03*
X144655508Y-126733450D03*
X145455508Y-126733450D03*
X146255508Y-126733450D03*
X147055508Y-126733450D03*
X147855508Y-126733450D03*
X148655508Y-126733450D03*
X149455508Y-126733450D03*
X150255508Y-126733450D03*
X151055508Y-126733450D03*
X151855508Y-126733450D03*
X152655508Y-126733450D03*
X153455508Y-126733450D03*
X154255508Y-126733450D03*
X155055508Y-126733450D03*
X155855508Y-126733450D03*
X142255508Y-127533450D03*
X143055508Y-127533450D03*
X143855508Y-127533450D03*
X144655508Y-127533450D03*
X145455508Y-127533450D03*
X146255508Y-127533450D03*
X147055508Y-127533450D03*
X147855508Y-127533450D03*
X148655508Y-127533450D03*
X149455508Y-127533450D03*
X150255508Y-127533450D03*
X151055508Y-127533450D03*
X151855508Y-127533450D03*
X152655508Y-127533450D03*
X153455508Y-127533450D03*
X154255508Y-127533450D03*
X155055508Y-127533450D03*
X155855508Y-127533450D03*
X142255508Y-128333450D03*
X143055508Y-128333450D03*
X143855508Y-128333450D03*
X144655508Y-128333450D03*
X145455508Y-128333450D03*
X146255508Y-128333450D03*
X147055508Y-128333450D03*
X147855508Y-128333450D03*
X148655508Y-128333450D03*
X149455508Y-128333450D03*
X150255508Y-128333450D03*
X151055508Y-128333450D03*
X151855508Y-128333450D03*
X152655508Y-128333450D03*
X153455508Y-128333450D03*
X154255508Y-128333450D03*
X155055508Y-128333450D03*
X155855508Y-128333450D03*
X142255508Y-129133450D03*
X143055508Y-129133450D03*
X143855508Y-129133450D03*
X144655508Y-129133450D03*
X145455508Y-129133450D03*
X146255508Y-129133450D03*
X147055508Y-129133450D03*
X147855508Y-129133450D03*
X148655508Y-129133450D03*
X149455508Y-129133450D03*
X150255508Y-129133450D03*
X151055508Y-129133450D03*
X151855508Y-129133450D03*
X152655508Y-129133450D03*
X153455508Y-129133450D03*
X154255508Y-129133450D03*
X155055508Y-129133450D03*
X155855508Y-129133450D03*
X142255508Y-129933450D03*
X143055508Y-129933450D03*
X143855508Y-129933450D03*
X144655508Y-129933450D03*
X145455508Y-129933450D03*
X146255508Y-129933450D03*
X147055508Y-129933450D03*
X147855508Y-129933450D03*
X148655508Y-129933450D03*
X149455508Y-129933450D03*
X150255508Y-129933450D03*
X151055508Y-129933450D03*
X151855508Y-129933450D03*
X152655508Y-129933450D03*
X153455508Y-129933450D03*
X154255508Y-129933450D03*
X155055508Y-129933450D03*
X155855508Y-129933450D03*
X142255508Y-130733450D03*
X143055508Y-130733450D03*
X143855508Y-130733450D03*
X144655508Y-130733450D03*
X145455508Y-130733450D03*
X146255508Y-130733450D03*
X147055508Y-130733450D03*
X147855508Y-130733450D03*
X148655508Y-130733450D03*
X149455508Y-130733450D03*
X150255508Y-130733450D03*
X151055508Y-130733450D03*
X151855508Y-130733450D03*
X152655508Y-130733450D03*
X153455508Y-130733450D03*
X154255508Y-130733450D03*
X155055508Y-130733450D03*
X155855508Y-130733450D03*
X142255508Y-131533450D03*
X143055508Y-131533450D03*
X143855508Y-131533450D03*
X144655508Y-131533450D03*
X145455508Y-131533450D03*
X146255508Y-131533450D03*
X147055508Y-131533450D03*
X147855508Y-131533450D03*
X148655508Y-131533450D03*
X149455508Y-131533450D03*
X150255508Y-131533450D03*
X151055508Y-131533450D03*
X151855508Y-131533450D03*
X152655508Y-131533450D03*
X153455508Y-131533450D03*
X154255508Y-131533450D03*
X155055508Y-131533450D03*
X155855508Y-131533450D03*
X142255508Y-132333450D03*
X143055508Y-132333450D03*
X143855508Y-132333450D03*
X144655508Y-132333450D03*
X145455508Y-132333450D03*
X146255508Y-132333450D03*
X147055508Y-132333450D03*
X147855508Y-132333450D03*
X148655508Y-132333450D03*
X149455508Y-132333450D03*
X150255508Y-132333450D03*
X151055508Y-132333450D03*
X151855508Y-132333450D03*
X152655508Y-132333450D03*
X153455508Y-132333450D03*
X154255508Y-132333450D03*
X155055508Y-132333450D03*
X155855508Y-132333450D03*
X142255508Y-133133450D03*
X143055508Y-133133450D03*
X143855508Y-133133450D03*
X144655508Y-133133450D03*
X145455508Y-133133450D03*
X146255508Y-133133450D03*
X147055508Y-133133450D03*
X147855508Y-133133450D03*
X148655508Y-133133450D03*
X149455508Y-133133450D03*
X150255508Y-133133450D03*
X151055508Y-133133450D03*
X151855508Y-133133450D03*
X152655508Y-133133450D03*
X153455508Y-133133450D03*
X154255508Y-133133450D03*
X155055508Y-133133450D03*
X155855508Y-133133450D03*
G04 #@! TD*
D13*
G04 #@! TO.C,C1*
X141249400Y-142790000D03*
X141249400Y-141690000D03*
G04 #@! TD*
G04 #@! TO.C,C2*
X142049500Y-141690000D03*
X142049500Y-142790000D03*
G04 #@! TD*
G04 #@! TO.C,C3*
X144246600Y-142790000D03*
X144246600Y-141690000D03*
G04 #@! TD*
G04 #@! TO.C,C4*
X145046700Y-141690000D03*
X145046700Y-142790000D03*
G04 #@! TD*
G04 #@! TO.C,C5*
X149250400Y-142790000D03*
X149250400Y-141690000D03*
G04 #@! TD*
G04 #@! TO.C,C6*
X150050500Y-141690000D03*
X150050500Y-142790000D03*
G04 #@! TD*
G04 #@! TO.C,C7*
X153250900Y-142790000D03*
X153250900Y-141690000D03*
G04 #@! TD*
G04 #@! TO.C,C8*
X154051000Y-141690000D03*
X154051000Y-142790000D03*
G04 #@! TD*
G04 #@! TO.C,C9*
X157251400Y-141690000D03*
X157251400Y-142790000D03*
G04 #@! TD*
G04 #@! TO.C,C10*
X158051500Y-141690000D03*
X158051500Y-142790000D03*
G04 #@! TD*
D14*
G04 #@! TO.C,C12*
X189405260Y-94219900D03*
X189405260Y-97219900D03*
G04 #@! TD*
G04 #@! TO.C,C210*
X195653632Y-97214820D03*
X195653632Y-94214820D03*
G04 #@! TD*
G04 #@! TO.C,C211*
X192521840Y-97214820D03*
X192521840Y-94214820D03*
G04 #@! TD*
D10*
G04 #@! TO.C,L4*
X153224987Y-92966668D03*
X151324987Y-92966668D03*
G04 #@! TD*
D15*
G04 #@! TO.C,L5*
X146324320Y-94996000D03*
X146324320Y-93096000D03*
G04 #@! TD*
D16*
G04 #@! TO.C,R1*
X159981900Y-130180500D03*
X159981900Y-129280500D03*
G04 #@! TD*
D17*
G04 #@! TO.C,SW1*
X135653600Y-128730180D03*
X135653600Y-133230180D03*
X127693600Y-133230180D03*
X127693600Y-128730180D03*
G04 #@! TD*
D18*
G04 #@! TO.C,U9*
X168602480Y-112257840D03*
X168602480Y-110987840D03*
X168602480Y-109717840D03*
X170802480Y-112257840D03*
X170802480Y-110987840D03*
X170802480Y-109717840D03*
G04 #@! TD*
D19*
G04 #@! TO.C,Y1*
X133779260Y-87943800D03*
X133779260Y-96443800D03*
G04 #@! TD*
D20*
G04 #@! TO.C,U6*
X151161507Y-106656308D03*
X151161507Y-105356308D03*
X151161507Y-104056308D03*
X151161507Y-102756308D03*
X151161507Y-101456308D03*
X149861507Y-106656308D03*
X149861507Y-105356308D03*
X149861507Y-104056308D03*
X149861507Y-102756308D03*
X149861507Y-101456308D03*
X148561507Y-106656308D03*
X148561507Y-105356308D03*
X148561507Y-104056308D03*
X148561507Y-102756308D03*
X148561507Y-101456308D03*
X147261507Y-106656308D03*
X147261507Y-105356308D03*
X147261507Y-104056308D03*
X147261507Y-102756308D03*
X147261507Y-101456308D03*
X145961507Y-106656308D03*
X145961507Y-105356308D03*
X145961507Y-104056308D03*
X145961507Y-102756308D03*
X145961507Y-101456308D03*
D21*
X142861507Y-100306308D03*
X142861507Y-100806308D03*
X142861507Y-101306308D03*
X142861507Y-101806308D03*
X142861507Y-102306308D03*
X142861507Y-102806308D03*
X142861507Y-103306308D03*
X142861507Y-103806308D03*
X142861507Y-104306308D03*
X142861507Y-104806308D03*
X142861507Y-105306308D03*
X142861507Y-105806308D03*
X142861507Y-106306308D03*
X142861507Y-106806308D03*
X142861507Y-107306308D03*
X142861507Y-107806308D03*
D22*
X144811507Y-109756308D03*
X145311507Y-109756308D03*
X145811507Y-109756308D03*
X146311507Y-109756308D03*
X146811507Y-109756308D03*
X147311507Y-109756308D03*
X147811507Y-109756308D03*
X148311507Y-109756308D03*
X148811507Y-109756308D03*
X149311507Y-109756308D03*
X149811507Y-109756308D03*
X150311507Y-109756308D03*
X150811507Y-109756308D03*
X151311507Y-109756308D03*
X151811507Y-109756308D03*
X152311507Y-109756308D03*
D21*
X154261507Y-107806308D03*
X154261507Y-107306308D03*
X154261507Y-106806308D03*
X154261507Y-106306308D03*
X154261507Y-105806308D03*
X154261507Y-105306308D03*
X154261507Y-104806308D03*
X154261507Y-104306308D03*
X154261507Y-103806308D03*
X154261507Y-103306308D03*
X154261507Y-102806308D03*
X154261507Y-102306308D03*
X154261507Y-101806308D03*
X154261507Y-101306308D03*
X154261507Y-100806308D03*
X154261507Y-100306308D03*
D22*
X152311507Y-98356308D03*
X151811507Y-98356308D03*
X151311507Y-98356308D03*
X150811507Y-98356308D03*
X150311507Y-98356308D03*
X149811507Y-98356308D03*
X149311507Y-98356308D03*
X148811507Y-98356308D03*
X148311507Y-98356308D03*
X147811507Y-98356308D03*
X147311507Y-98356308D03*
X146811507Y-98356308D03*
X146311507Y-98356308D03*
X145811507Y-98356308D03*
X145311507Y-98356308D03*
X144811507Y-98356308D03*
G04 #@! TD*
D23*
G04 #@! TO.C,C72*
X142400020Y-94751400D03*
X142400020Y-92751400D03*
G04 #@! TD*
G04 #@! TO.C,C73*
X144249140Y-92751400D03*
X144249140Y-94751400D03*
G04 #@! TD*
D24*
G04 #@! TO.C,C75*
X128985520Y-86151720D03*
X126985520Y-86151720D03*
G04 #@! TD*
G04 #@! TO.C,C80*
X103478279Y-100096641D03*
X105478279Y-100096641D03*
G04 #@! TD*
G04 #@! TO.C,C84*
X109113721Y-100067059D03*
X107113721Y-100067059D03*
G04 #@! TD*
G04 #@! TO.C,C85*
X103478279Y-102031941D03*
X105478279Y-102031941D03*
G04 #@! TD*
D23*
G04 #@! TO.C,C87*
X176994820Y-80806540D03*
X176994820Y-82806540D03*
G04 #@! TD*
G04 #@! TO.C,C88*
X171447460Y-94266260D03*
X171447460Y-92266260D03*
G04 #@! TD*
G04 #@! TO.C,C89*
X177220880Y-88606120D03*
X177220880Y-90606120D03*
G04 #@! TD*
G04 #@! TO.C,C90*
X169522140Y-90606120D03*
X169522140Y-88606120D03*
G04 #@! TD*
D24*
G04 #@! TO.C,C91*
X176129048Y-76738367D03*
X178129048Y-76738367D03*
G04 #@! TD*
D23*
G04 #@! TO.C,C92*
X163436459Y-82810319D03*
X163436459Y-80810319D03*
G04 #@! TD*
D25*
G04 #@! TO.C,C94*
X123844620Y-90266520D03*
X125344620Y-90266520D03*
G04 #@! TD*
D23*
G04 #@! TO.C,C97*
X175325721Y-94269681D03*
X175325721Y-92269681D03*
G04 #@! TD*
G04 #@! TO.C,C98*
X177220880Y-92266260D03*
X177220880Y-94266260D03*
G04 #@! TD*
G04 #@! TO.C,C99*
X159534860Y-82838800D03*
X159534860Y-80838800D03*
G04 #@! TD*
D24*
G04 #@! TO.C,C100*
X174507928Y-76751067D03*
X172507928Y-76751067D03*
G04 #@! TD*
D23*
G04 #@! TO.C,C102*
X173108620Y-80821020D03*
X173108620Y-82821020D03*
G04 #@! TD*
D24*
G04 #@! TO.C,C103*
X178141748Y-74806607D03*
X176141748Y-74806607D03*
G04 #@! TD*
D25*
G04 #@! TO.C,C105*
X126798640Y-91699080D03*
X128298640Y-91699080D03*
G04 #@! TD*
D23*
G04 #@! TO.C,C108*
X165346380Y-82805780D03*
X165346380Y-80805780D03*
G04 #@! TD*
G04 #@! TO.C,C109*
X175325721Y-88605381D03*
X175325721Y-90605381D03*
G04 #@! TD*
G04 #@! TO.C,C110*
X173421901Y-94269681D03*
X173421901Y-92269681D03*
G04 #@! TD*
D24*
G04 #@! TO.C,C111*
X182658260Y-106489500D03*
X180658260Y-106489500D03*
G04 #@! TD*
D23*
G04 #@! TO.C,C112*
X161488120Y-84483700D03*
X161488120Y-86483700D03*
G04 #@! TD*
G04 #@! TO.C,C113*
X169201899Y-82823319D03*
X169201899Y-80823319D03*
G04 #@! TD*
G04 #@! TO.C,C114*
X171454581Y-90605381D03*
X171454581Y-88605381D03*
G04 #@! TD*
D25*
G04 #@! TO.C,C116*
X128296100Y-90261440D03*
X126796100Y-90261440D03*
G04 #@! TD*
D23*
G04 #@! TO.C,C119*
X165356540Y-84491320D03*
X165356540Y-86491320D03*
G04 #@! TD*
G04 #@! TO.C,C120*
X169522140Y-92273880D03*
X169522140Y-94273880D03*
G04 #@! TD*
G04 #@! TO.C,C121*
X163428680Y-84491320D03*
X163428680Y-86491320D03*
G04 #@! TD*
G04 #@! TO.C,C122*
X175061880Y-86478620D03*
X175061880Y-84478620D03*
G04 #@! TD*
G04 #@! TO.C,C123*
X159545020Y-86483700D03*
X159545020Y-84483700D03*
G04 #@! TD*
D25*
G04 #@! TO.C,C125*
X125344620Y-91701620D03*
X123844620Y-91701620D03*
G04 #@! TD*
D24*
G04 #@! TO.C,C127*
X177005740Y-106494580D03*
X179005740Y-106494580D03*
G04 #@! TD*
G04 #@! TO.C,C128*
X182676040Y-112298480D03*
X180676040Y-112298480D03*
G04 #@! TD*
D23*
G04 #@! TO.C,C129*
X171137580Y-86478620D03*
X171137580Y-84478620D03*
G04 #@! TD*
D24*
G04 #@! TO.C,C130*
X179015499Y-110338621D03*
X177015499Y-110338621D03*
G04 #@! TD*
G04 #@! TO.C,C131*
X180665361Y-110325239D03*
X182665361Y-110325239D03*
G04 #@! TD*
D23*
G04 #@! TO.C,C132*
X173121320Y-84478620D03*
X173121320Y-86478620D03*
G04 #@! TD*
D24*
G04 #@! TO.C,C135*
X179015499Y-112303401D03*
X177015499Y-112303401D03*
G04 #@! TD*
G04 #@! TO.C,C136*
X179002799Y-108404321D03*
X177002799Y-108404321D03*
G04 #@! TD*
G04 #@! TO.C,C137*
X182652661Y-108390939D03*
X180652661Y-108390939D03*
G04 #@! TD*
G04 #@! TO.C,C138*
X172499780Y-78663800D03*
X174499780Y-78663800D03*
G04 #@! TD*
D23*
G04 #@! TO.C,C139*
X169194480Y-86493860D03*
X169194480Y-84493860D03*
G04 #@! TD*
D24*
G04 #@! TO.C,C140*
X178139600Y-78648560D03*
X176139600Y-78648560D03*
G04 #@! TD*
D25*
G04 #@! TO.C,C145*
X155899420Y-80784700D03*
X157399420Y-80784700D03*
G04 #@! TD*
D26*
G04 #@! TO.C,C148*
X163914960Y-133558280D03*
X166914960Y-133558280D03*
G04 #@! TD*
D24*
G04 #@! TO.C,C150*
X174520628Y-74819307D03*
X172520628Y-74819307D03*
G04 #@! TD*
D23*
G04 #@! TO.C,C151*
X161483040Y-82803240D03*
X161483040Y-80803240D03*
G04 #@! TD*
D25*
G04 #@! TO.C,C155*
X157366400Y-82242660D03*
X155866400Y-82242660D03*
G04 #@! TD*
G04 #@! TO.C,C159*
X157340819Y-85212481D03*
X155840819Y-85212481D03*
G04 #@! TD*
D23*
G04 #@! TO.C,C160*
X176989740Y-86496400D03*
X176989740Y-84496400D03*
G04 #@! TD*
G04 #@! TO.C,C161*
X175056800Y-80821020D03*
X175056800Y-82821020D03*
G04 #@! TD*
D25*
G04 #@! TO.C,C167*
X155866400Y-83738720D03*
X157366400Y-83738720D03*
G04 #@! TD*
D23*
G04 #@! TO.C,C170*
X171142660Y-82836260D03*
X171142660Y-80836260D03*
G04 #@! TD*
G04 #@! TO.C,C171*
X173421901Y-88605381D03*
X173421901Y-90605381D03*
G04 #@! TD*
G04 #@! TO.C,C179*
X167302180Y-80823560D03*
X167302180Y-82823560D03*
G04 #@! TD*
G04 #@! TO.C,C180*
X167297100Y-84493860D03*
X167297100Y-86493860D03*
G04 #@! TD*
D25*
G04 #@! TO.C,C181*
X157343540Y-86629240D03*
X155843540Y-86629240D03*
G04 #@! TD*
D24*
G04 #@! TO.C,C219*
X109113721Y-102002359D03*
X107113721Y-102002359D03*
G04 #@! TD*
D27*
G04 #@! TO.C,D3*
X156278480Y-115755420D03*
X154678480Y-115755420D03*
G04 #@! TD*
G04 #@! TO.C,D4*
X154678480Y-117236240D03*
X156278480Y-117236240D03*
G04 #@! TD*
G04 #@! TO.C,D5*
X134965540Y-105846880D03*
X136565540Y-105846880D03*
G04 #@! TD*
D16*
G04 #@! TO.C,R7*
X147073620Y-97145260D03*
X147073620Y-96245260D03*
G04 #@! TD*
D10*
G04 #@! TO.C,R8*
X153209747Y-94950408D03*
X151309747Y-94950408D03*
G04 #@! TD*
G04 #@! TO.C,R15*
X163474360Y-107665520D03*
X165374360Y-107665520D03*
G04 #@! TD*
G04 #@! TO.C,R23*
X153177280Y-115534440D03*
X151277280Y-115534440D03*
G04 #@! TD*
G04 #@! TO.C,R24*
X151277280Y-117482620D03*
X153177280Y-117482620D03*
G04 #@! TD*
D15*
G04 #@! TO.C,R25*
X125328680Y-131480600D03*
X125328680Y-129580600D03*
G04 #@! TD*
D10*
G04 #@! TO.C,R28*
X134800300Y-107508040D03*
X136700300Y-107508040D03*
G04 #@! TD*
D23*
G04 #@! TO.C,C212*
X186507120Y-89693240D03*
X186507120Y-91693240D03*
G04 #@! TD*
D27*
G04 #@! TO.C,D19*
X109720480Y-115699540D03*
X111320480Y-115699540D03*
G04 #@! TD*
D28*
G04 #@! TO.C,R46*
X120976960Y-119857520D03*
X122476960Y-119857520D03*
G04 #@! TD*
G04 #@! TO.C,R47*
X120971880Y-121434860D03*
X122471880Y-121434860D03*
G04 #@! TD*
G04 #@! TO.C,R48*
X120974420Y-122991880D03*
X122474420Y-122991880D03*
G04 #@! TD*
G04 #@! TO.C,R49*
X122441400Y-126042420D03*
X120941400Y-126042420D03*
G04 #@! TD*
G04 #@! TO.C,R50*
X120938860Y-127571500D03*
X122438860Y-127571500D03*
G04 #@! TD*
G04 #@! TO.C,R51*
X120943940Y-129118360D03*
X122443940Y-129118360D03*
G04 #@! TD*
D29*
G04 #@! TO.C,R52*
X116855240Y-132683820D03*
X116855240Y-134183820D03*
G04 #@! TD*
G04 #@! TO.C,R53*
X115326160Y-132686360D03*
X115326160Y-134186360D03*
G04 #@! TD*
G04 #@! TO.C,R54*
X113802160Y-134204140D03*
X113802160Y-132704140D03*
G04 #@! TD*
G04 #@! TO.C,R55*
X112270540Y-134196520D03*
X112270540Y-132696520D03*
G04 #@! TD*
G04 #@! TO.C,R56*
X110764320Y-132696520D03*
X110764320Y-134196520D03*
G04 #@! TD*
G04 #@! TO.C,R57*
X109235240Y-134188900D03*
X109235240Y-132688900D03*
G04 #@! TD*
D28*
G04 #@! TO.C,R58*
X116429220Y-115229640D03*
X114929220Y-115229640D03*
G04 #@! TD*
D10*
G04 #@! TO.C,R60*
X106205060Y-129067560D03*
X104305060Y-129067560D03*
G04 #@! TD*
G04 #@! TO.C,R66*
X162880080Y-117962680D03*
X160980080Y-117962680D03*
G04 #@! TD*
G04 #@! TO.C,R71*
X162887700Y-119900700D03*
X160987700Y-119900700D03*
G04 #@! TD*
G04 #@! TO.C,R92*
X109576369Y-114019519D03*
X111476369Y-114019519D03*
G04 #@! TD*
M02*
